<svg preserveAspectRatio="none" width="100%" height="100%" overflow="visible" style="display: block;" viewBox="0 0 22 22" fill="none" xmlns="http://www.w3.org/2000/svg">
<g id="Icon">
<path id="Vector" d="M17.4167 15.5833V4.58333C17.4167 4.0971 17.2235 3.63079 16.8797 3.28697C16.5359 2.94315 16.0696 2.75 15.5833 2.75H3.66667" stroke="var(--stroke-0, #B91C1C)" stroke-width="1.83333" stroke-linecap="round" stroke-linejoin="round"/>
<path id="Vector_2" d="M7.33333 19.25H18.3333C18.8196 19.25 19.2859 19.0568 19.6297 18.713C19.9735 18.3692 20.1667 17.9029 20.1667 17.4167V16.5C20.1667 16.2569 20.0701 16.0237 19.8982 15.8518C19.7263 15.6799 19.4931 15.5833 19.25 15.5833H10.0833C9.84022 15.5833 9.60706 15.6799 9.43515 15.8518C9.26324 16.0237 9.16667 16.2569 9.16667 16.5V17.4167C9.16667 17.9029 8.97351 18.3692 8.6297 18.713C8.28588 19.0568 7.81956 19.25 7.33333 19.25ZM7.33333 19.25C6.8471 19.25 6.38079 19.0568 6.03697 18.713C5.69315 18.3692 5.5 17.9029 5.5 17.4167V4.58333C5.5 4.0971 5.30685 3.63079 4.96303 3.28697C4.61921 2.94315 4.1529 2.75 3.66667 2.75C3.18044 2.75 2.71412 2.94315 2.3703 3.28697C2.02649 3.63079 1.83333 4.0971 1.83333 4.58333V6.41667C1.83333 6.65978 1.92991 6.89294 2.10182 7.06485C2.27373 7.23676 2.50688 7.33333 2.75 7.33333H5.5" stroke="var(--stroke-0, #B91C1C)" stroke-width="1.83333" stroke-linecap="round" stroke-linejoin="round"/>
</g>
</svg>
