<svg preserveAspectRatio="none" width="100%" height="100%" overflow="visible" style="display: block;" viewBox="0 0 22 22" fill="none" xmlns="http://www.w3.org/2000/svg">
<g id="Icon">
<path id="Vector" d="M12.5858 3.66667C12.4247 3.38885 12.1934 3.15824 11.915 2.99793C11.6367 2.83763 11.3212 2.75325 11 2.75325C10.6788 2.75325 10.3633 2.83763 10.085 2.99793C9.80664 3.15824 9.57533 3.38885 9.41417 3.66667L2.08083 16.5C1.92 16.7786 1.8353 17.0945 1.83521 17.4162C1.83513 17.7379 1.91968 18.0539 2.08036 18.3325C2.24105 18.6112 2.47222 18.8426 2.75066 19.0037C3.0291 19.1647 3.34501 19.2497 3.66667 19.25H18.3333C18.655 19.2497 18.9709 19.1647 19.2493 19.0037C19.5278 18.8426 19.759 18.6112 19.9196 18.3325C20.0803 18.0539 20.1649 17.7379 20.1648 17.4162C20.1647 17.0945 20.08 16.7786 19.9192 16.5L12.5858 3.66667Z" stroke="var(--stroke-0, #B91C1C)" stroke-width="1.83333" stroke-linecap="round" stroke-linejoin="round"/>
</g>
</svg>
