<?xml version="1.0" encoding="utf-8"?>
<svg version="1.1" id="Layer_1" xmlns="http://www.w3.org/2000/svg" xmlns:xlink="http://www.w3.org/1999/xlink" x="0px" y="0px"
	 viewBox="0 0 3017 2437" enable-background="new 0 0 3017 2437" xml:space="preserve">
<g>
	<path fill="#98251E" d="M2927.42,901.552c-11.981-92.393-107.634-115.83-136.538-147.202
		c-23.332-25.325-18.146-69.159-39.133-118.766c-18.652-44.09-61.909-72.234-95.225-104.847c-4.082-3.996-8.881-7.006-13.917-9.644
		c-1.426-0.747-2.96-1.942-4.51-0.456c-4.279,4.102,11.372,15.798,26.839,46.665c34.729,69.3,44.458,86.061,59.861,132.576
		c4.256,12.854,1.258,10.542-35.921,4.664c-17.589-2.781-35.265-1.208-52.896-0.886c-52.099,0.952-69.781,32.609-105.261,58.653
		c-4.93,3.619-8.354,3.695-13.307,1.586c-106.351-45.288-175.395-84.89-290.396-84.172c-37.29,0.233-111.342,2.178-144.398,20.036
		c-15.828,8.551-31.67,17.01-46.06,27.983c-38.845,29.624-93.393,47.155-140.723,57.348c-78.3,16.862-90.193,12.249-141.321-13.891
		c-34.14-17.455-19.217-35.159-55.801-68.393c-42.462-38.574-67.297,3.835-61.401-26.319c16.716-85.516-4.426-102.78-74.583-241.502
		c-14.552-28.774-37.286-71.758-40.927-109.819c-4.045-42.276-0.725-87.79,0.923-95.212c1.151-5.183,2.27-10.307,2.987-15.585
		c2.702-19.881,8.454-38.217,12.378-57.72c-47.259,15.541-91.93,38.845-131.849,68.52c-40.902,30.407-72.719,69.432-110.073,103.708
		c-6.678,6.128-7.328,6.213-14.127,0.179c-55.114-48.913-120.114-79.561-194.427-73.629c-21.304,1.701-42.241,5.905-60.174,18.971
		c-2.576,1.877-5.292,1.023-4.724-6.531c2.758-36.697-21.657-42.088-29.051-94.186c-11.603-81.755,19.562-142.418-1.391-135.437
		c-14.82,4.937-29.841,9.298-44.008,16.109c-18.92,9.096-36.217,21.173-55.496,29.618c-19.201,8.411-37.145,19.755-57.124,26.257
		c-44.713,14.552-63.808,46.554-85.133,88.664c-26.549,52.424-22.693,67.113-23.696,105.592
		c-0.433,16.609-1.385,33.269,2.511,49.723c1.547,6.532,0.804,7.472-6.257,8.091c-37.688,3.299-83.159,3.837-145.139,41.444
		c-45.808,27.795-57.816,59.058-67.193,69.886c-32.006,36.958-17.75,44.45-38.406,41.607c-17.438-2.401-31.089-2.694-45.82,7.857
		c-31.153,22.315-23.831,39.503-38.562,34.289c-52.333-18.523-50.403,24.454-93.733,15.336c-9.554-2.01-14.888-10.222-24.652-12.346
		c-9.382-2.04-18.338-4.755-27.325-8.475c-59.761-24.739-97.23,21.479-109.518,29.088c-33.762,20.906-56.424,70.73-40.118,109.386
		c2.313,5.483,2.352,8.644-0.733,13.062c-9.113,13.052-5.013,17.515-3.88,27.464c3.131,27.494,16.018,51.177,29.106,74.787
		c1.518,2.738,3.695,3.858,6.899,4.819c45.863,13.759,23.573,25.163,92.355,30.817c3.742,0.308,7.037,0.677,7.151,6.892
		c0.519,28.448,6.89,56.875,7.236,73.504c0.087,4.201-1.299,5.829-5.736,5.864c-39.767,0.308-71.657,23.468-102.049,46.346
		c-11.999,9.032-21.577,20.795-31.43,32.083c-5.214,5.973-4.707,10.019,1.607,12.713c17.157,7.322,68.224,36.765,91.492,67.62
		c16.51,21.895,30.39,45.157,39.567,71.22c40.371,114.657,30.588,104.771,39.16,165.232
		c30.219,213.144,78.485,283.337,177.897,412.053c6.189,8.014-9.009,25.465-15.907,37.954
		c-45.368,82.129-12.938-8.807-78.432,158.403c-25.097,64.073-55.725,76.977-83.368,100.034
		c-23.567,19.656-35.306,20.481-64.313,68.377c-11.717,19.347-18.226,40.623-22.565,62.638c-1.09,5.531,0.033,6.542,5.882,5.292
		c26.643-5.694,46.656-19.95,76.77-19.643c-0.175,1.506-0.122,2.511-0.42,3.399c-7.215,21.51-11.455,43.77-16.624,65.795
		c-2.334,9.945-1.133,10.951,8.815,9.898c21.252-2.252,42.544-1.127,63.752-4.957c15.072-2.722,29.734-10.356,44.61-12.177
		c5.834-0.714,9.923-3.417,13.451-8.749c13.118-19.821,21.67-43.032,36.609-48.401c2.856,7.037-1.388,14.013,1.556,21.957
		c9.112-12.619,17.904-23.904,27.676-34.309c14.185-15.105,7.199-20.855,58.493-54.39c31.221-20.411,63.429-22.968,74.74-33.985
		c19.811-19.298,19.557-34.702,26.267-33.993c2.671,0.282,3.118,3.009,4.255,5.022c4.778,8.465,4.542,18.005,5.565,27.134
		c5.32,47.471,26.521,92.162,68.188,121.353c10.307,7.221,47.422,22.676,77.3,28.677c55.814,11.209,97.198,0.363,131.117,22.366
		c3.896,2.527,7.468,5.551,11.316,8.159c21.48,14.554,43.23,28.714,63.27,45.295c34.015,28.143,53.81,23.692,89.933,29.818
		c11.95,2.026,2.109-11.337-2.735-22.722c-6.005-14.115-9.818-28.884-12.711-44.498c1.335-0.281,2.019-0.654,2.557-0.504
		c20.455,5.72,41.678,3.318,62.438,5.866c6.666,0.818,7.99-0.598,6.234-6.271c-7.748-25.024-12.035-51.257-26.363-74.02
		c-3.559-5.655-7.369-10.058-13.792-12.074c-9.591-3.011-15.835-9.329-18.884-19.002c-0.894-2.835-1.323-6.561-5.118-7.356
		c-4.479,3.939,0.85,12.218-4.811,13.554c-6.787,1.603-6.778-6.227-21.956-18.806c11.779-2.65,22.447-5.07,33.127-7.436
		c1.995-0.442,4.095-0.781,4.623-3.115c0.619-2.736-1.223-4.327-3.233-5.644c-2.255-1.479-6.033-1.788-4.361-6.911
		c7.322,2.563,14.396,5.257,21.607,7.51c9.484,2.963,17.55,9.979,27.507,10.964c30.197,2.989,60.833,3.158,90.77,7.922
		c29.821,4.746,59.321,12.454,89.68,12.823c32.198,0.39,64.401,0.58,96.601,0.267c30.065-0.292,59.984,3.69,90.14,3.648
		c101.007-0.138,206.882-22.569,228.066-24.073c42.168-2.996,70.795-19.436,172.256-29.207c14.632-1.409,5.407,10.606,4.169,14.791
		c-8.336,28.189-24.456,57.401-15.367,83.599c3.454,9.957,5.925,19.683,2.212,30.828c-23.572,70.744-49.847,47.977-44.481,158.533
		c0.112,2.312-0.487,5.54,3.52,7.033c9.922-9.022,24.381-13.158,30.555-27.049c0.846-1.905,3.353-2.001,5.037-3.016
		c11.958-7.209,25.813-10.593,37.358-18.717c2.889-2.033,6.718-3.638,10.181-3.776c11.633-0.462,11.259-3.545,9.16,16.309
		c-6.228,58.917-8.1,56.719,3.068,52.983c21.761-7.281,44.219-17.235,80.366-34.858c4.496-2.192,8.708-5.074,11.407-9.412
		c9.366-15.051,18.055-30.359,19.177-48.728c0.29-4.743,0.785-9.69,4.003-14.681c7.523,8.834,10.35,20.12,19.916,29.651
		c1.521-19.681,6.958-36.531,8.709-54.02c1.911-19.083,6.069-37.248,15.836-54.122c56.731-98.007,107.398-67.652,104.307-166.287
		c-0.137-4.39-3.742-9.94,1.184-12.964c4.416-2.711,8.676,1.746,12.869,3.422c100.073,39.993,55.206,7.97,165.941,39.412
		c15.455,4.389,28.903,11.655,39.619,24.962c39.502,49.052,43.13,95.951,36.316,116.765c-6.401,19.554-10.994,39.662-18.553,58.868
		c-3.261,8.285-2.694,8.482,4.834,13.523c101.453,67.937,72.555,48.476,136.788,92.988c15.68,10.865,45.9-64.181,52.071-76.659
		c4.863-9.832,4.325-10.436-6.274-10.781c-32.065-1.043-11.875,0.487-18.782-37.183c5.56,0.025,2.549,3.181,11.459,15.991
		c2.238,3.219,4.353,8.232,8.482,7.49c6.486-1.165,0.852-7.434,10.362-73.743c3.49-24.333,13.553-28.823,40.915-95.159
		c26.292-63.743,11.841-167.741-33.572-220.712c-10.162-11.852-17.528-24.912-23.026-39.344c-3.095-8.123-0.148-8.173,10.776-30.737
		c10.483-21.652,22.184-42.577,38.129-60.739c80.434-91.615,116.581-275.283,124.257-384.03
		c6.122-86.717,12.91-120.822-30.707-177.232c-5.862-7.582-5.788-7.801-0.139-15.344c7.832-10.458,15.965-2.554,66.667-16.123
		c50.402-13.489,93.585-66.027,112.856-112.532C2932.561,1007.353,2934.006,952.342,2927.42,901.552z M399.602,2081.662
		c-25.903,10.597-65.354-7.903-71.729-49.516c-1.282-8.367,0.728-11.171,8.022-10.977c28.839,2.728,56.089,15.582,67.901,41.401
		C408.504,2072.86,410.797,2077.083,399.602,2081.662z M1606.216,842.415c4.907-7.754,9.739-15.555,15.148-24.203
		c6.302,12.21,0.908,30.434,4.047,39.037c0.521,1.429-2.285,41.399-36.918,75.279c-12.834,12.556-25.85,24.959-40.231,35.792
		c-32.803,24.711-45.155,32.694-73.18,34.621c-63.072,4.336-133.067-21.876-153.765-85.904c-1.375-4.252-0.575-8.462-0.628-12.631
		c2.859-1.187,3.747,1.095,4.97,2.391c34.8,36.87,81.323,46.443,105.347,43.069c18.241-2.563,36.754-0.674,54.883-5.501
		C1573.679,920.986,1596.107,858.39,1606.216,842.415z M1444.397,438.035c-0.253,2.393,12.24,18.781,14.21,22.142
		c51.209,87.369,94.832,152.19,111.11,227.339c7.133,32.932,11.498,67.099,3.966,100.382c-9.463,41.816-38.635,85.828-80.355,100.14
		c-27.52,9.441-57.986,8.048-85.907-0.131c-80.141-23.476-76.453-94.116-49.979-64.313c17.194,19.357,44.717,26.387,70.606,26.229
		c44.952-0.273,69.723-18.827,86.428-57.338c12.947-29.846,17.465-63.218,13.376-95.467c-4.196-33.087-21.163-60.411-33.725-90.748
		c-10.693-25.822-19.431-54.137-34.313-77.916c-10.004-15.985-14.085-34.355-15.628-53.042
		C1443.215,463.537,1442.956,451.651,1444.397,438.035z M1395.14,505.57c9.081-25.057,13.247,8.887,77.077,129.729
		c12.588,23.832,22.291,55.107,25.265,81.869c4.208,37.858-16.982,84.12-53.667,93.294c-23.389,5.849-52.523-4.648-70.355-19.903
		c-30.18-25.818-28.03-54.411-21.862-90.098c0.226-1.305,1.202-2.499,2.676-2.635c1.538-0.141,2.134,1.285,2.893,2.296
		c3.627,4.828,0.585,10.432,4.555,32.285c3.232,17.796,25.416,39.135,47.693,35.654c10.445-1.632,19.211-6.201,25.44-15.508
		c21.273-31.788-0.039-65.84-34.117-153.602C1388.805,568.221,1389.527,521.063,1395.14,505.57z M1375.705,414.439
		c-2.765,8.404-6.514,15.738-10.459,22.988c-21.173,38.904-38.039,79.739-54.219,120.884
		c-12.409,31.554-11.945,63.217-18.377,102.975c-0.838,5.181-10.903,35.334-9.391,37.528
		C1210.873,592.109,1347.505,407.288,1375.705,414.439z M1119.319,1154.85c-1.815,4.218-10.129,12.693-9.797,17.028
		c-0.864-11.269,1.401-22.629-0.959-33.688c-4.572-21.423-18.399-42.438-44.279-58.302c-11.584-7.101-24.806-15.498-38.746-21.194
		c-2.626-1.073-13.704-3.037-15.003-5.036c-3.513-5.407,18.185-8.384,22.444-8.921c20.654-2.601,37.098,0.374,53.847,12.859
		C1117.025,1080.109,1134.288,1120.069,1119.319,1154.85z M936.356,1172.257c-12.416,13.669-23.432,28.519-36.514,42.124
		c10.634-47.618,9.38-65.606,24.192-90.83c15.343-26.128,49.583-40.609,79.047-38.164c38.478,3.193,68.907,30.841,68.912,70.311
		c0.007,45.126-21.667,89.843-65.05,98.013c-13.375,2.519-26.737,5.492-40.438,5.247c-3.375-0.06-6.1,2.501-10.387,1.488
		c30.316-24,59.238-48.525,85.346-76.379c-25.878,14.223-54.646,21.515-80.432,36.13c18.507-28.1,42.63-51.778,59.916-82.974
		c-26.033,16.661-47.185,36.478-70.13,54.286c4.459-22.27,16.715-41.78,19.181-64.534
		C958.864,1142.254,949.017,1158.319,936.356,1172.257z M870.916,1200.959c-16.665-22.613-25.086-49.824-44.055-70.515
		c4.666,20.687,12.018,40.545,13.816,61.772c-4.263,0.306-4.534-2.499-5.544-4.36c-30.471-56.149,2.734-0.468-38.356-68.826
		c-2.328-3.873-5.186-7.414-10.911-10.018c18.632,51.512,16.149,56.375,25.876,82.747c3.076,8.341,4.126,17.248,4.21,28.498
		c-25.694-21.119-47.059-44.286-72.422-63.109c18.558,29.088,39.718,56.604,53.143,89.544c-16.566,3.847-56.388-42.139-65.75-62.577
		c-13.368-29.181-9.303-65.227,15.528-87.106c29.686-26.156,77.651-20.427,104.267,7.456
		C859.496,1113.662,888.333,1178.449,870.916,1200.959z M885.588,1258.03c5.928,0.534,9.809,6.391,14.063,10.24
		c13.407,12.13,12.742,51.143-14.747,63.516c-7.76,3.493-15.674,5.228-24.04,1.786c-5.334-2.194-30.79-7.389-29.477-27.982
		c0.918-14.404,1.413-28.469,10.683-40.544c6.158-8.021,22.62-13.33,32.355-9.982
		C878.092,1256.326,881.455,1257.657,885.588,1258.03z M695.229,1132.996c-4.451,12.205-4.693,13.721-6.973,13.576
		c-4.845-0.309-20.166-58.288,17.269-90.089c20.503-17.417,49.752-19.799,73.193-6.905c2.568,1.412,5.179,2.747,9.311,4.933
		C749.14,1069.259,716.229,1075.415,695.229,1132.996z M693.502,1268.044c13.859-4.829,27.78-5.134,42.097-3.579
		c20.391,2.215,39.128,18.624,45.477,22.09c-23.228,2.479-45.602,7.576-67.814,13.43c0.007,0.762,0.014,1.524,0.021,2.287
		c18.014,3.594,36.028,7.188,55.092,10.992c-23.818,12.22-22.266,5.454-91.159,31.443c-6.689,2.523-11.391,7.716-19.279,12.602
		c9.764,0.297,16.878-2.08,23.892-3.546c22.764-4.759,45.827-7.394,68.792-10.729c7.76-1.127,15.625,2.638,23.601-0.802
		c-7.172,7.44-15.081,13.224-23.905,17.385c-21.982,10.366-39.992,26.259-58.657,41.262c-1.966,1.58-4.48,2.993-4.37,6.725
		c13.099-2.85,49.73-19.82,60.235-25.667c16.77-9.335,25.417-8.45,57.025-23.274c-4.156,19.18-47.742,80.302-117.386,71.479
		c-25.457-3.225-40.029-27.272-49.088-49.794c-6.304-15.673-7.374-32.886-3.062-50.014
		C644.787,1291.515,655.806,1281.18,693.502,1268.044z M795.248,1525.81c18.638,11.356,32.7,25.385,79.237,24.136
		c30.207-0.811,43.939-8.79,55.666-13.567c2.705-1.102,12.378-6.263,10.324,0.95c-1.446,5.079-2.295,10.852-5.347,14.839
		c-5.804,7.582-11.994,15.52-20.144,20.44C849.098,1612.38,769.12,1582.158,795.248,1525.81z M928.204,1508.393
		c-10.728,13.792-23.994,16.173-40.723,18.667c-69.933,10.424-116.478-67.621-73.357-127.448
		c17.406-24.149,18.411-23.755,21.734-24.4c-3.637,15.911-22.203,85.872-16.282,96.113c3.13-2.14,3.554-5.459,4.518-8.362
		c7.942-23.908,15.453-52.89,30.901-72.908c3.033,20.572,0.294,71.828,5.504,92.565c8.072-11.758,7.404-26.205,12.347-38.895
		c5.015-12.875,4.997-27.362,12.368-42.25c6.1,17.741,7.001,52.246,16.496,72.872c5.796-30.95,3.888-63.126,14.347-92.938
		c4.923-0.255,3.396-0.357,20.57,33.846c3.635,7.24,5.761,14.829,5.678,22.97C942.045,1463.746,945.102,1486.669,928.204,1508.393z
		 M1025.854,1415.749c-23.267-21.125-48.388-40.003-67.961-66.695c24.517,1.153,68.706,45.362,118.417,47.361
		c0.144-3.352,3.152,0.368-66.542-38.797c-14.281-8.025-26.639-18.619-38.53-29.787c-1.457-1.369-3.693-2.494-2.895-4.708
		c0.918-2.544,3.663-2.657,5.977-2.61c46.423,0.93,44.694,2.28,65.96,0.792c-25.135-11.307-52.289-17.563-76.675-31.102
		c47.775-15.333,57.943-3.927,72.086,0.176c65.506,19.004,89.007,64.227,78.773,104.053c-8.063,31.378-48.061,66.208-82.101,57.573
		c-28.213-7.157-50.535-22.84-66.853-47.13c-5.663-8.429-7.199-18.353-11.25-27.658
		C977.591,1391.185,1000.11,1406.35,1025.854,1415.749z M1025.642,839.983c0.555-15.826,28.357,18.491,35.782,32.114
		c21.917,40.212,9.87,82.554-16.799,103.014c-5.018,3.85-35.344,20.425-29.389,4.563
		C1047.081,894.842,1025.091,855.645,1025.642,839.983z M792.118,233.655c16.715-24.719,32.245-46.939,56.506-64.838
		c6.061-4.472,69.119-43.334,72.219-37.831c5.28,9.37,21.879,127.377,23.353,159.987c0.701,15.521,0.242,29.135-16.103,45.329
		c-1.172-31.138-14.912-40.674-36.618-142.68c-1.465-6.885-4.149-13.27-5.979-20.669c-5.919,2.168-9.231,5.46-12.136,9.09
		c-40.88,51.051-69.821,74.933-76.369,127.165c-0.601,4.796-0.946,9.625-1.534,15.738
		C766.578,304.887,775.404,258.372,792.118,233.655z M756.492,415.56c0.723-2.905,3.836-1.803,5.488,0.335
		c11.887,15.39,16.579,26.664,36.748,29.635c9.622,1.418,18.901-2.275,26.573-8.76c10.206-8.628,4.976-5.896,34.76,10.444
		c15.034,8.248,41.23-3.386,46.153-16.737c2.524-6.845,5.827-13.407,8.842-20.067c6.385-14.104,9.599-4.232,38.201,9.388
		c29.672,14.129,64.845-18.51,59.122-45.581c-5.478-25.913,51.039,12.867,28.736,53.24c-9.843,17.817-36.46,28.703-56.313,27.346
		c-24.776-1.806-27.737-3.676-31.631,3.249c-5.493,9.77-12.957,17.928-23.377,22.319c-21.1,8.892-42.865,14.861-65.785,7.935
		c-8.094-2.446-16.773-4.324-23.138-10.871c-2.604-2.678-5.824-2.604-9.275-1.455c-25.255,8.413-54.196,0.866-71.426-18.413
		c-5.508-6.163-7.638-13.974-8.44-21.908C751.019,428.629,754.828,422.246,756.492,415.56z M735.954,557.274
		c36.371-23.366,82.094-14.694,122.504,1.607c27.138,10.948,49.019,29.106,70.114,48.513c88.265,81.2,76.762,88.69,134.246,133.897
		c5.716,4.495,21.068,20.255,28.292,20.413c-129.045-2.809-185.031-194.641-302.486-175.327
		c-62.753,10.319-84.784,31.585-90.661,35.61c-1.335,0.914-12.582,6.796-12.694,7.197
		C693.156,600.97,711.034,573.284,735.954,557.274z M818.234,663.044c-17.113,4.45-30.574,9.525-38.656,25.345
		c-2.116,4.143-4.98,7.914-6.974,12.106c-2.689,5.655-1.787,8.455-73.157-1.296c-6.455-0.882-6.804-1.648-4.353-7.749
		c17.991-44.779,73.907-88.462,118.815-80.795c38.137,6.511,76.177,42.957,103.781,67.868
		c15.117,13.642,28.213,29.076,39.051,46.384c4.462,7.125,12.624,15.449,9.737,18.612c-4.793,5.251-37.769-6.769-53.576-9.619
		c-59.358-10.702-51.718-1.207-50.696-30.804C863.302,671.331,836.201,658.371,818.234,663.044z M694.007,811.3
		c3.534-6.493,4.265-3.954,20.099-22.973c-3.456,34.676-5.831,67.246-4.735,100.23c12.576-19.104,18.708-41.531,34.043-60.696
		c1.626,24.478-1.568,47.442-0.156,70.682c6.648-6.912,6.587-16.615,10.516-24.57c3.936-7.971,7.02-16.363,11.341-26.618
		c3.802,28.733,1.383,56.246,10.144,83.185c4.48-2.947,4.742-6.68,5.505-10.111c3.902-17.523,7.768-35.054,16.083-51.247
		c3.079,1.573,2.341-0.538-0.005,44.9c-0.601,11.641-0.58,23.26,1.583,36.105c8.476-14.9,5.034-24.545,12.847-60.318
		c0.78-3.572,1.054-7.414,2.614-10.621c2.587-5.319,1.584-11.699,6.016-18.735c2.793,32.865,2.993,63.924,9.941,94.519
		c10.342-29.64,11.969-61.887,31.095-90.059c4.395,31.069,4.379,61.611,14.523,90.971c4.431-2.328,4.118-5.964,4.364-8.959
		c0.978-11.86,3.072-23.597,3.157-35.574c0.1-14.015,3.86-27.901,2.261-31.485c-2.994-6.708-0.216-12.122,3.676-17.808
		c4.337,2.257,3.928,6.724,4.57,10.25c3.881,21.314,8.09,65.322,16.955,72.782c1.785-3.023,2.455-2.808,1.249-45.848
		c-0.497-17.735,6.228-20.046-0.315-23.988c-1.901-1.146-0.368-4.412,0.291-6.598c1.131-3.753,1.735-7.797,5.917-11.687
		c4.676,13.658,8.675,79.834,19.694,88.259c-0.275-33.249-2.953-65.332,9.494-95.807c7.072,23.524,8.977,48.163,19.375,70.846
		c4.88-15.163,3.313-31.179,7.185-46.33c3.846-15.054,5.671-30.606,10.786-46.671c6.953,9.277,6.435,16.834,13.233,39.291
		c10.182,33.637,4.765,65.166-13.83,94.503c-13.83,21.819-34.312,36.88-54.741,51.872c-9.553,7.01-11.672-2.585-23.908,1.878
		c-29.308,10.689-68.138,6.71-97.496-1.917c-26.076-7.662-46.064-22.283-68.791-36.211c-1.585-0.971-3.414-1.397-4.438,0.229
		c-4.173,6.63-6.989,1.863-9.703-1.16c-16.08-17.907-35.426-56.548-39.993-76.416C677.425,868.821,678.677,839.463,694.007,811.3z
		 M616.989,827.175c14.519-28.103,45.191-39.981,61.526-36.115c0.656,3.869-1.441,5.869-2.982,7.887
		c-25.06,32.811-23.92,94.272-10.201,135.736c2.41,7.285,5.189,15.055,4.319,23.902
		C629.689,952.618,587.513,884.224,616.989,827.175z M591.906,1336.202c4.661-4.891,8.265-11.191,15.894-15.12
		c0.417,2.976,0.983,4.63,0.821,6.209c-3.318,32.408,16.571,79.23,39.836,102.207c3.748,3.702,6.881,8.148,9.715,12.622
		c3.241,5.117,1.512,7.596-4.454,8.4c-27.049,3.643-66.298-18.159-73.787-78.108
		C578.231,1358.806,582.435,1346.139,591.906,1336.202z M529.792,638.713c-0.382-3.928,1.562-7.996,4.859-10.166
		c13.883-9.137,24.644,12.982,31.322,21.96c13.487,18.131,20.511,59.075-7.399,101.169c-9.66,14.569-25.925,35.9-41.488,44.122
		c-10.374,5.478-25.016-0.982-34.021-7.129c6.093-2.925,28.656-11.278,41.805-40.022c7.623-16.665,13.916-33.794,16.106-52.215
		C546.912,646.497,531.094,652.1,529.792,638.713z M480.617,689.766c-2.603-17.616,1.125-34.155-9.221-54.576
		c-3.344-6.6-2.457-12.524,1.493-18.902c1.487-2.398,24.427,21.532,26.671,23.843c8.53,8.786,17.663,18.083,19.558,30.75
		c6.421,42.948-13.633,66.209-45.778,95.315c-4.599,4.164-9.023,5.606-15.313,3.318c-6.592-2.397-12.551-5.406-18.358-9.882
		C458.466,749.749,485.56,723.223,480.617,689.766z M462.546,894.189c1.261,0.301,2.473,0.806,5.681,1.871
		c-10.475,6.271-19.891,9.758-29.768,10.316c-37.668,2.131-62.481-2.867-85.794-31.31c-1.622-1.979-2.771-4.541-3.496-7.022
		c-1.647-5.634-0.148-7.118,5.773-6.639c6.093,0.493,11.502,3.26,17.161,5.099C402.095,876.248,431.818,886.852,462.546,894.189z
		 M338.483,639.625c8.673-12.471,42.979-22.585,64.288-6.411c6.553,4.974,12.792,10.324,14.637,18.169
		c2.173,9.235,3.215,19.117-0.036,28.39c-21.101,60.185-73.794,44.465-84.325,20.794C326.032,684.8,331.026,650.347,338.483,639.625
		z M212.264,594.556c5.872-2.264,12.165-2.985,18.482-3.313c13.684-0.71,37.492-2.916,40.867,19.794
		c3.353,22.566-2.455,42.619-16.803,60.352c-8.975,11.093-47.798,13.076-60.312-27.191
		C188.71,625.574,191.974,602.38,212.264,594.556z M171.997,747.276c-0.717-2.395-1.118-4.717,0.548-6.554
		c2.003-2.208,4.558-0.71,6.374,0.367c10.314,6.12,21.436,10.377,32.379,15.163c32.718,14.311,61.066-2.14,67.745-0.549
		C277.467,805.322,190.401,808.72,171.997,747.276z M206.607,1007.011c-5.184-0.717-7.157-4.418-8.112-8.84
		c-0.962-4.453,0.278-7.913,5.266-9.046c7.761-1.764,15.363-4.016,23.475-4.301c34.804-1.221,69.729,5.206,104.624,5.188
		c64.25-0.032,91.689-8.183,143.499-12.251c4.638-0.364,8.838-2.301,13.875-2.481c-29.085,30.831-54.236,38.06-95.928,54.748
		c-29.382,11.761-67.039,7.109-96.713-1.239C254.12,1016.84,265.684,1015.18,206.607,1007.011z M332.396,1320.715
		c-20.435-17.266-27.789-50.748-29.994-76.096c-2.57-29.535,22.573-91.508,39.087-91.412c2.482,3.423,1.086,7.539,0.847,11.255
		c-3.738,57.954-2.037,67.945-0.038,94.419c4.44,0.114,4.339-2.834,4.681-4.792c7.284-41.732,1.908-26.585,13.633-65.31
		c0.262-0.866,1.168-1.538,2.141-2.763c5.6,5.796-0.929,6.723,11.609,77.326c1.509,8.497,3.885,16.842,5.925,25.241
		c0.391,1.611,1.084,3.431,3.102,3.211c2.047-0.223,2.24-2.22,2.385-3.849c1.79-20.031-0.395-41.584,13.736-82.268
		c7.43,8.145-0.889,9.683,13.007,71.83c0.833,3.727,1.067,7.885,4.286,11.265c3.681-2.484,3.903-0.768,5.897-58.739
		c0.499-14.491,2.327-28.593,10.653-41.389c-0.941,46.712,17.783,87.306,37.282,127.666c0.868-0.173,1.735-0.346,2.603-0.519
		c-10.324-66.187-22.317-118.365-20.795-133.045c5.234,0.678,5.648,3.759,6.39,6.011c9.347,28.404,25.738,53.207,40.161,79.014
		c0.994,1.779,2.35,3.931,4.394,3.525c11.889-2.362-33.291-98.82-23.124-136.078c28.659,22.228,18.857,17.92,40.178,44.756
		c19.046,23.971,24.647,51.958,23.36,81.479c-0.878,20.124-33.913,95.634-96.523,100.767
		C407.873,1365.453,362.083,1345.798,332.396,1320.715z M548.804,1911.851c-1.409,7.492-1.985,15.141-2.906,22.723
		c-3.528,29.032-17.817,44.334-33.495,64.328c-11.316,14.431-26.709,21.397-44.36,24.208c-1.959,0.312-3.969,0.615-5.983-1.289
		c1.15-7.095,5.063-13.355,8.46-19.666c9.569-17.781,2.661-15.031,19.691-49.941c2.273-4.659,11.107-16.649-4.129-28.564
		c-0.586,2.817-1.938,5.472-3.873,7.602c-4.632-12.816-12.505-33.021-7.972-46.718c6.013-18.167,34.739-24.041,50.594-18.12
		C543.548,1873.407,552.399,1892.733,548.804,1911.851z M654.751,1879.793c-2.697,1.396-4.61-0.357-6.427-1.579
		c-111.209-74.756-139.459-114.747-162.43-163.289c-12.645-26.72-61.267-120.85-18.017-142.682
		c6.335,15.308,6.09,58.523,14.221,86.809c6.71,23.344,13.227,46.753,25.912,67.808c3.657,6.071,3.203,4.985,4.639,5.269
		c1.57-2.904-0.01-5.62-0.87-8.229c-6.666-20.225-10.905-41.061-14.875-61.904c-3.606-18.934,0.679-43.823,3.038-62.54
		c0.282-2.234,0.478-4.707,2.913-6.16c4.414,2.53,4.128,7.386,5.068,11.362c12.594,53.254,10.032,56.09,15.638,56.28
		c4.95,0.169,6.215-5.974,8.125-10.154c3.417-7.475-1.494-40.154,10.31-42.609c8.175,38.414,17.259,76.582,26.388,116.132
		c5.645-3.927,4.738-7.741,4.877-11.166c1.124-27.765-3.685-47.781-0.922-69.825c0.706-5.63,1.482-11.114-0.173-16.803
		c-1.019-3.505-0.269-7.22,2.598-11.155c6.153,11.036,4.1,21.655,11.926,50.527c1.291,4.763,4.332,5.285,6.706,1.141
		c15.873-27.703,15.221-43.231,16.881-58.067c4.396,0.407,3.636,3.26,3.87,5.344c2.281,20.37-10.264,17.509,13.011,149.431
		c3.477,19.707,11.328,38.229,15.226,57.847c3.24,16.303,7.686,32.363,11.37,48.583
		C654.46,1873.272,656.157,1876.452,654.751,1879.793z M661.381,1752.161c-7.361-19.498-23.848-106.768-5.878-133.881
		c0.726-1.095,1.126-2.432,3.428-2.636c30.392,93.751,57.003,188.531,93.797,281.203
		C738.682,1894.115,695.328,1842.077,661.381,1752.161z M775.071,2026.195c-0.527-0.014-1.162,0.662-1.588,1.154
		c-15.355,17.725-28.01,23.735-24.674,37.399c2.582,10.577,3.218,21.732,10.254,30.893c3.466,4.512,1.86,12.58-1.998,11.244
		c-4.879-1.689-10.859-0.022-16.227-1.522c-9.245-2.584-27.424-13.305-37.402-33.011c-30.819-60.865,13.038-102.516,48.997-98.057
		C768.473,1976.283,794.886,2026.7,775.071,2026.195z M903.439,2182.59c-8.983-15.814-5.736-31.358,0.979-46.857
		c6.695-15.453,15.172-27.002,32.247-30.615C949.818,2138.016,935.948,2163.281,903.439,2182.59z M1075.373,1926.694
		c-1.882,6.724-3.392,13.574-5.667,20.162c-9.911,28.709-24.826,35.19-25.972,36.62c-13.743,17.16-33.406,17.765-52.709,18.006
		c-21.671,0.271-43.173-2.614-64.477-6.597c-11.556-2.161-22.558-6.692-32.721-12.033c-14.104-7.411-29.084-13.377-42.112-22.749
		c-43.62-31.378-75.463-71.887-94.254-122.395c-59.855-160.882-36.322-153.708-33.846-146.316
		c22.718,67.812,21.096,75.403,26.557,74.934c3.197-0.275,3.626-2.971,3.213-5.202c-1.503-8.12,2.107-15.73,2.032-23.686
		c-0.017-1.825-0.913-4.589,1.587-5.115c3.358-0.707,3.228,2.715,3.878,4.68c0.33,1,26.596,85.397,36.005,90.123
		c3.777-3.955,2.356-8.252,1.28-12.376c-3.997-15.329-2.639-31.114-4.094-46.656c-0.155-1.658-0.032-3.377,2.661-4.22
		c8.059,9.001,8.911,30.869,22.139,62.085c1.224,2.887,1.865,7.722,5.726,6.966c4.151-0.813,2.373-5.612,2.418-8.656
		c0.196-13.274,0.427-26.514,4.023-39.33c5.568-1.052,13.1,35.118,34.057,81.739c0.87,1.935,1.848,4.634,5.036,3.589
		c4.385-1.436,4.014-5.407,3.139-10.277c-2.828-15.741-1.443-31.858-4.428-47.629c-0.967-5.111,1.914-10.243,3.281-15.32
		c4.342,0.319,4.632,3.872,5.706,6.34c13.104,30.11,21.41,78.616,50.147,116.866c1.585,2.11,2.535,4.739,6.177,5.321
		c3.171-5.523,2.029-11.741,0.562-17.077c-5.794-21.076-8.723-42.857-15.817-63.59c-2.478-7.242-2.162-14.245,1.491-22.463
		c25.092,43.975,45.202,89.727,77.069,128.402c2.566-7.284-2.733-0.8-37.578-88.162c-2.533-6.352-6.595-21.698,0.725-23.944
		c5.564-1.708,34.281,44.819,55.584,69.321c4.731,5.442,9.591,10.689,16.023,14.66c-19.531-34.828-41.85-68.149-53.512-108.206
		c14.936,8.304,32.752,22.03,48.035,39.731c5.931,6.87,13.444,11.901,20.099,17.924c1.254,1.135,2.767,2.203,4.342,0.752
		c3.989-3.673-18.484-29.362-28.484-52.742c-2.551-5.965-6.355-11.636-12.71-14.834c-10.927-5.499-6.75-15.398-13.722-37.37
		c1.717-1.849,2.955-1.269,4.064-0.589c33.129,20.313,57.088,48.42,70.998,84.736c4.539,11.85,4.723,24.751,6.931,37.167
		C1080.52,1902.015,1078.81,1914.412,1075.373,1926.694z M1071.001,1473.473c21.873-14.573,42.372-30.134,56.424-52.26
		c14.068-22.151,23.149-46.147,25.225-72.951C1204.451,1393.349,1123.66,1497.214,1071.001,1473.473z M1242.055,450.402
		c29.51-27.856,35.52-32.64,45.542-36.55c0.73,8.293-3.602,13.084-7.177,17.402c-99.225,119.877-58.833,252.292-58.756,253.299
		c-7.696-3.215-11.893-8.982-16.156-14.476C1152.042,601.157,1185.432,503.851,1242.055,450.402z M1222.08,1621.207
		c-9.833-2.775-18.963-4.033-24.685-12.135c-5.236-7.414-6.439-14.335-14.078-20.495c11.387,1.483,21.954,1.618,32.377,3.62
		c16.411,3.153,33.229,1.426,49.721,4.028c19.804,3.124,37.274,2.5,39.757,2.088c5.998-0.996,4.302-7.853,0.029-8.923
		c-9.845-2.466-16.716-9.353-23.509-16.148c-1.884-1.884-4.657-2.066-7.328-5.315c16.68,3.594,32.263,1.937,47.775,2.495
		c13.453,0.484,14.955,0.042,15.775-2.771c1.272-4.363-3.37-3.985-5.545-5.589c-9.502-7.011-19.458-13.57-25.164-25.24
		c9.77-0.195,19.119,2.078,28.21,4.201c18.598,4.343,37.511,5.419,56.363,7.184c9.599,0.898,19.097,2.96,28.806,2.68
		c11.306-0.326,13.972,0.634,14.469-2.997c0.373-2.726-1.695-4.459-3.779-5.364c-9.769-4.244-17.409-12.157-27.605-15.685
		c-6.794-2.351-11.916-7.603-19.718-11.973c18.348-0.85,21.411-0.243,22.945-3.799c1.248-2.894-1.489-3.862-3.101-5.465
		c-2.768-2.75-4.58-6.368-8.911-7.549c-1.554-0.424-2.921-2.702-3.736-4.434c-1.958-4.163-3.906-8.298-9.399-13.102
		c13.64-0.367,24.727-0.964,35.809-0.895c18.623,0.116,37.099,3.959,55.801,2.396c4.47-0.374,10.782,0.531,11.304-5.225
		c0.418-4.616-5.811-4.853-9.38-5.556c-8.368-1.65-15.897-5.847-24.934-6.063c-6.017-0.144-11.832-4.914-18.32-6.721
		c-8.116-2.261-16.572-4.764-23.723-9.681c0.93-6.255,5.17,2.49,92.469-3.4c7.378-0.498,14.554-4.165,21.786-6.501
		c3.009-0.972,2.35-4.412-0.14-5.025c-31.835-7.837-65.579-11.78-85.199-23.92c-0.44-0.272-0.532-1.105-1.319-2.899
		c39.665-2.658,79.182,4.059,119.435-3.962c-72.177-16.499-88.179-14.106-109.807-27.974c27.222-3.019,54.668,0.152,82.798-4.211
		c-2.539-3.779-5.242-5.285-8.303-6.211c-15.625-4.725-30.528-12.019-46.101-16.098c-12.797-3.352-22.831-11.579-35.41-14.772
		c11.67-0.803,22.848-4.162,34.5-3.574c5.936,0.299,11.994,0.512,17.805-1.58c4.879-1.757,5.607-3.735,2.76-7.93
		c-0.958-1.411-2.012-2.835-3.694-3.175c-5.909-1.196-11.363-5.538-16.738-5.708c-9.054-0.286-14.462-5.797-22.872-11.022
		c33.687-8.196,67.048-9.379,99.444-16.655c-1.351-3.827-4.167-3.008-6.233-3.413c-66.857-13.106-40.657-4.131-76.58-13.091
		c-10.529-2.626-20.289-8.4-31.822-7.425c32.076-8.809,72.5-7.531,89.649-13.285c-26.882-7.354-54.304-12.488-79.552-24.84
		c1.294-1.94,2.965-2.464,4.576-2.427c15.293,0.359,30.379-2.087,45.557-3.264c3.859-0.299,6.839-0.218,6.942-5.078
		c0.084-4.005-5.472-4.419-6.743-4.051c-9.881,2.864-18.973-1.903-28.26-3.407c-7.077-1.146-14.693-0.118-21.366-3.761
		c-3.662-1.999-9.282-2.69-8.272-8.346c0.615-3.442-0.469-2.126,48.575-11.593c3.27-0.631,24.206-4.633,27.27-5.8
		c3.085-1.175,3.735-5.222-1.112-5.453c-110.4-5.267-104.789-4.725-138.928-14.604c13.5-3.004,27.266-1.22,40.797-2.725
		c24.441-2.718,59.891-8.846,82.747-17.986c-3.021-2.778-0.065-2.495-54.174-5.664c-31.69-1.856-42.413-12.758-64.609-11.021
		c-15.639,1.223-30.842-1.924-47.976-6.554c11.831-6.903,22.141-12.493,33.577-13.939c42.108-5.323,80.06-4.839,120.891,5.724
		c109.089,28.222,134.762,141.314,123.703,239.13c-14.248,126.018-106.283,228.267-228.119,277.956
		c-25.706,10.484-52.452,14.204-80.047,14.065C1273.882,1633.172,1247.382,1628.348,1222.08,1621.207z M1635.54,2029.718
		c-74.268,25.565-167.146,24.853-231.212-25.15c-35.619-27.801-58.051-67.43-70.908-110.128
		c-4.857-16.129-4.827-32.416-2.474-49.229c36.028,37.806,66.485,80.154,104.154,117.445c2.126-6.646-0.086-5.16-23.966-59.403
		c-3.288-7.468-5.238-15.489-8.728-23.18c12.987,11.17,22.694,25.129,34.178,37.448c11.542,12.381,22.975,24.864,35.127,38.029
		c2.697-4.715,1.581-8.899-0.479-11.73c-10.084-13.858-12.457-30.7-18.591-46.065c-0.484-1.211-1.203-2.404,0.223-4.852
		c20.364,18.472,35.815,41.439,57.532,59.624c1.232-6.758-12.126-24.413-15.588-45.352c-0.16-0.971-0.912-1.898-0.894-2.835
		c0.088-4.461-3.166-10.823,1.387-12.846c4.381-1.947,6.11,4.73,8.406,7.952c18.304,25.687,51.324,71.053,79.264,102.751
		c1.487,1.686,2.825,3.766,6.575,3.963c-18.613-38.28-38.082-75.762-45-117.769c0.787-0.479,1.574-0.959,2.362-1.438
		c28.337,35.235,43.672,68.053,75.619,104.959c2.98-3.763,0.579-6.377-0.537-8.69c-8.685-17.984-17.465-35.924-26.418-53.776
		c-2.976-5.935-4.08-13.112-8.995-17.704c-8.113-7.58-10.278-17.14-11.228-27.407c-0.172-1.864-1.904-3.661,0.429-6.498
		c35.615,28.497,63.261,64.95,97.116,95.482c-37.334-61.519-47.536-68.038-59.369-115.938c-0.324-1.312-0.4-2.583,1.672-4.59
		c22.012,21.1,41.156,45.191,64.575,66.9c2.903-12.652-9.02-17.364-25.942-65.442c-0.329-0.934-0.711-1.859,0.659-3.383
		c27.542,20.381,33.042,26.199,37.688,28.464c14.573,7.105,6.14-17.709-1.083-32.303c-2.327-4.701-5.022-9.17-4.92-15.307
		c13.615,7.313,22.429,19.907,36.333,26.402c2.013-4.004,0.29-6.732-2.669-8.259c-8.443-4.359-10.498-12.12-12.393-20.476
		c-2.01-8.863-7.07-17.127-4.126-27.304c30.736,12.501,16.515,12.885,71.544,61.067c2.024,1.772,3.753,4.802,7.322,4.157
		c3.165-5.214-5.352-4.857-32.335-57.707c-8.959-17.548-28.251-13.236-24.262-28.013c1.181-4.373-2.761-8.003-2.437-12.3
		c3.266-1.27,5.663,0.702,7.675,1.836c14.927,8.416,31.695,12.01,47.362,18.454c14.911,6.133,15.483,11.152,19.402,8.986
		c2.143-1.184,2.094-3.373,1.121-5.238c-1.069-2.05-0.427-6.247-4.493-5.116c-5.357,1.49-1.903-4.545-23.855-19.651
		c-9.224-6.347-19.226-12.296-26.98-24.119c32.528,4.773,62.839,12.267,94.012,13.143c0.034-3.177-2.526-3.271-4.088-4.056
		c-19.96-10.027-40.995-17.601-61.702-25.803c-8.04-3.184-15.415-7.384-23.15-10.954c-5.988-2.763-10.766-7.564-15.573-14.767
		c23.583,8.125,38.754-15.202,75.869,4.74C1899.056,1755.266,1868.424,1949.555,1635.54,2029.718z M1722.739,1647.881
		c-56.015,59.944-128.589,110.63-214.475,107.679c-31.215-1.073-60.557-7.748-86.725-25.921
		c-24.376-16.927-28.101-16.024-44.728-41.387c59.011,12.939,113.9,35.352,173.365,36.915c-14.444-7.135-29.325-13.521-43.207-21.62
		c-13.44-7.842-28.874-13.317-39.396-28.39c41.507,6.085,80.577,17.28,121.164,20.025c-0.037-4.447-3.102-4.065-4.98-4.84
		c-29.865-12.334-48.927-16.499-77.143-38.95c9.292-1.359,17.722,2.437,26.369,4.392c9.092,2.056,18.371,3.01,27.428,4.936
		c8.883,1.89,17.864,1.176,26.742,2.753c9.074,1.612,18.427,1.654,29.668,2.542c-9.593-8.714-48.888-20.051-65-36.552
		c34.672-0.251,40.253,9.254,134.144,4.24c-63.32-20.673-37.21-11.334-97.885-35.164c2.122-3.602,4.795-3.364,7.413-3.175
		c66.327,4.794,26.589,4.737,74.655,5.051c1.226,0.008,2.683,0.241,3.642-1.445c-0.737-2.889-3.667-3.326-5.862-4.278
		c-12.284-5.328-45.577-22.701-53.345-35.984c35.121,2.945,68.571,12.732,103.409,12.348
		c-23.286-10.711-46.339-21.384-69.385-35.482c32.062-4.876,32.923,1.221,103.889-1.404c4.549-0.168,8.941-0.88,14.425-3.194
		c-7.44-4.097-8.584-4.57-70.809-16.549c-9.265-1.784-16.754-7.959-27.3-9.479c5.803-6.583,18.732,0.119,101.619-7.044
		c2.23-0.193,4.382-1.283,8.588-2.584c-28.04-8.033-54.645-14.117-80.797-22.168c6.858-8.288,10.459-0.17,78.841-7.065
		c4.534-0.457,9.252-0.377,14.96-4.255c-27.149-11.181-55.305-14.852-80.819-27.083c19.749-4.761,59.107-4.568,88.045-11.433
		c-14.747-7.864-44.221-5.188-85.314-26.634c-4.616-2.409-9.701-1.606-15.346-2.879c40.061-4.426,79.332-7.485,118.327-15.368
		c-47.019-6.375-56.655-5.891-114.494-20.853c40.039-12.799,82.467-10.863,111.429-22.49c-1.519-3.566-4.349-3.29-6.809-3.873
		c-28.496-6.752-45.681-3.121-80.655-18.085c12.127-3.882,10.544-2.276,83.777-13.516c-1.001-5.033-4.484-4.478-7.121-4.906
		c-10.313-1.673-57.55-4.125-90.17-25.083c24.84-3.859,49.091-8.67,73.404-14.561c-26.29-7.567-54.245-9.622-78.783-28.511
		c20.14-1.892,38.352-0.535,55.801-3.385c0.71-1.851,0.292-2.955-0.635-3.201c-37.96-10.048-45.39-12.699-57.519-10.119
		c-4.978,1.059-9.354,0.266-13.37-4.22c-4.826-5.391-12.945-6.476-18.697-12.065c18.626-11.294,51.946-13.075,51.972-19.316
		c0.009-2.022-1.311-2.785-3.121-3.174c-2.921-0.627-5.813-2.026-8.713-2.016c-23.442,0.086-37.338-14.779-56.108-11.78
		c26.18-10.983,54.872-11.021,81.881-19.473c-17.439-7.152-36.424-7.526-54.362-12.422c-18.183-4.962-37.074-6.49-55.559-6.797
		c-0.974-4.063,1.383-4.654,2.983-5.513c13.813-7.414,28.378-13.526,43.353-17.519c70.276-18.737,132.156,45.826,169.47,107.667
		c20.103,33.316,33.303,68.531,35.502,107.363C1889.163,1465.825,1791.76,1574.019,1722.739,1647.881z M2548.164,1041.417
		c11.16,47.252-11.816,90.914-46.351,121.848c-8.095,7.252-15.31,15.567-25.477,22.718c-6.96-22.357-4.514-39.567-2.752-64.776
		c1.802-25.768,17.259-49.498,28.725-57.232c5.706-3.849,34.938-23.057,39.315-25.412
		C2544.997,1036.748,2547.198,1037.327,2548.164,1041.417z M2422.886,906.698c51.227-13.504,73.339,13.351,100.401,40.029
		c11.133,10.975,16.912,24.481,21.609,38.773c1.99,6.053,1.568,6.769-4.203,8.715c-15.606,5.262-31.741,7.182-51.483,7.472
		c-16.478-1.732-33.598-9.854-49.53-21.425c-20.032-14.549-27.16-35.39-29.82-58.583
		C2409.348,917.203,2417.342,908.159,2422.886,906.698z M2419.027,996.623c14.666,10.996,29.874,20.95,47.407,26.865
		c21.607,7.289,25.394,3.106,27.252,7.823c1.418,3.599-2.03,5.967-4.172,8.403c-3.071,3.492-6.114,7.033-9.454,10.257
		c-28.417,27.424-28.52,56.14-30.79,74.702c-12.779-7.434-25.509-11.144-38.165-15.054c-18.128-5.6-26.304-11.885-53.715-14.438
		c-5.942-0.553-6.659-1.999-2.939-6.61c22.103-27.399,37.365-58.861,53.74-89.674
		C2412.01,991.708,2412.255,991.545,2419.027,996.623z M2353.408,1122.034c43.245,0.536,83.778,14.771,99.059,55.693
		c8.046,21.547-70.473,8.755-82.436,6.028c-19.287-4.396-34.474-15.113-48.346-28.422c-7.838-7.52-16.699-14.121-21.539-25.164
		C2299.294,1128.213,2348.833,1121.978,2353.408,1122.034z M2323.317,961.513c12.244-12.77,28.011-18.256,42.398-28.244
		c5.572-3.868,6.571-3.116,8.444,3.531c2.431,8.627,5.34,17.164,5.962,26.164c1.796,25.988-8.047,50.141-24.49,69.911
		c-6.869,8.259-44.335,49.306-55.484,41.488C2290.759,1067.779,2283.226,1003.327,2323.317,961.513z M2326.302,829.912
		c21.395,8.885,36.955,25.19,52.128,41.834c5.631,6.177,4.767,8.647-3.391,11.909c-24.826,9.928-69.078,12.347-103.206-7.336
		c-13.264-7.65-13.954-9.582-35.906-29.837c-4.645-4.285-8.82-8.921-12.166-15.788
		C2235.427,829.4,2270.394,806.695,2326.302,829.912z M2220.88,884.888c4.992-28.2,6.119-6.175,63.263,23.886
		c28.914,15.21,43.272,9.423,33.527,19.599c-6.674,6.97-14.161,13.248-19.548,21.319c-21.67,32.46-30.121,55.587-37.117,75.956
		c-3.511-0.16-4.393-2.084-5.724-3.538c-13.399-14.641-29.169-24.955-49.255-28.124c-14.762-2.329-29.35-5.737-44.606-7.49
		c-0.656-4.274,2.17-6.827,4.294-9.539C2199.433,933.876,2214.59,920.406,2220.88,884.888z M2259.398,1092.591
		c-16.578,5.431-33.465,7.369-51.052,5.979c-54.044-4.271-109.908-65.859-110.021-75.054c22.533-9.614,28.566-13.148,41.078-13.166
		c54.708-0.075,93.73,29.279,123.219,72.195C2266.824,1088.662,2266.353,1090.312,2259.398,1092.591z M2113.722,859.862
		c5.063-7.989,12.925-12.722,20.739-17.984c12.762-8.594,27.136-11.955,41.188-16.68c3.576-1.203,6.696-1.337,8.317,2.66
		c11.612,28.636,14.192,33.34,1.697,69.553c-9.846,28.537-33.065,53.646-55.399,73.552c-6.146,5.478-14.694,17.83-23.879,16.974
		c-11.216-1.045-15.775-12.766-17.683-23.824C2082.249,926.697,2093.401,891.93,2113.722,859.862z M2048.211,1287.806
		c27.702-27.395,65.485-42.763,103.804-49.805c55.065-10.119,123.807-14.72,175.865,8.47c21.829,9.724,44.346,18.136,64.533,31.172
		c40.638,26.244,41.328,40.142,60.231,57.344c7.206,6.558,13.333,13.931,18.214,22.279c18.311,31.31,31.277,47.953,34.87,73.303
		c0.736,5.194-1.908,18.888,0.287,22.813c-71.773-128.327-246.421-241.768-452.089-155.791
		C2044.095,1301.701,2041.434,1294.508,2048.211,1287.806z M2153.574,1482.661c-8.62-2.427-15.33-8.547-22.735-13.229
		c-55.466-35.07-43.656-94.76-2.195-143.286c-0.39,0.457,52.214,34.155,56.015,37.183c12.263,9.769,22.858,22.2,28.001,37.011
		c6.598,19.002-1.081,33-9.159,49.768c-1.147,2.381-16.099,32.573-19.292,28.975c-3.054-3.487-19.705-42.117-26.389-75.471
		c-2.396-11.956-11.69-37.614-15.456-39.62C2132.574,1366.706,2161.846,1471.375,2153.574,1482.661z M2034.897,1483.343
		c19.712-7.831,46.639-21.747,61.688,1.461c7.629,11.765,14.012,24.05,17.107,37.866c0.916,4.088-0.3,5.837-4.561,6.879
		c-35.202,8.614-72.01,0.469-91.267,3.715c2.002,4.177,5.466,4.609,8.444,5.647c7.734,2.693,85.112,30.404,86.343,21.343
		c-1.059,7.792-5.118,13.271-8.886,18.934c-23.339,35.075-76.043,41.449-106.143-0.182c-10.048-13.898-22.145-25.97-30.964-41.066
		C1954.592,1517.285,1945.851,1518.72,2034.897,1483.343z M1979.207,2257.129c-23.045,0.421-43.936-3.601-66.123-14.84
		c-4.409-2.233-10.216-4.921-10.108-9.944c0.112-5.185,6.221-7.067,10.841-8.836c23.396-8.957,24.842-7.299,28.172-11.362
		c2.322-2.832,5.921-3.344,7.943,0.992c1.428,3.065,3.985,3.08,6.67,3.084c6.2,0.01,9.502,4.021,13.798,7.988
		c7.677,7.089,10.297,16.709,15.571,24.918C1988.928,2253.73,1989.044,2256.948,1979.207,2257.129z M2040.548,2085.509
		c-3.318,14.424-15.234,27.961-30.469,29.607c-5.323,0.321-9.876-1.904-14.6-3.477c-7.459-2.484-7.433-2.394-11.67,4.572
		c-8.148,13.395-6.538,20.122-13.351,49.766c-1.456,6.334-2.574,6.449-7.49,1.932c-12.905-11.854-18.466-27.297-21.415-43.986
		c-2.859-16.181-4.297-28.155,2.474-41.91c11.655-23.678,21.696-52.325,54.743-49.314
		C2024.78,2035.069,2046.79,2058.373,2040.548,2085.509z M2210.209,1921.167c-3.621,7.022-34.761,11.615-42.033,11.685
		c-52.909,0.504-99.239,0.194-145.67-29.831c-40.799-26.383-70.179-67.977-80.976-115.389c-2.46-10.802-1.459-21.871-2.254-32.804
		c-0.253-3.48,3.619-3.78,6.095-0.428c18.997,25.728,41.575,48.348,63.652,71.257c44.311,45.979,107.849,71.604,170.686,79.499
		C2186.106,1905.959,2215.038,1911.803,2210.209,1921.167z M2177.755,1738.919c-14.674,7.139-32.14,14.39-48.181,17.067
		c-3.584,0.598-23.344-52.809-24.674-58.171c-5.076-20.455-4.747-42.749,7.378-60.765c6.454-9.59,21.673-11.969,33.001-14.165
		c17.788-3.449,2.105,18.895-4.954,81.472c-0.62,5.501-0.992,11.054,1.238,17.922c7.878-8.131,12.897-16.86,16.779-25.671
		c9.273-21.046,22.301-40.172,30.694-61.598c1.346-3.437,3.533-5.274,6.797-6.676c3.543-1.522,5.761-1.231,8.573,1.882
		c13.514,14.957,20.593,32.359,20.938,52.459C2225.484,1690.908,2219.129,1718.79,2177.755,1738.919z M2222.518,1571.831
		c-10.607,10.322-22.248,17.806-37.79,17.188c-2.635-0.231-5.396-0.037-7.881-0.776c-6.569-1.955-14.356-2.165-18.359-8.778
		c-5.526-9.129-9.83-18.837-8.251-30.03c2.779-19.698,10.07-27.522,33.668-28.441c10.448-0.407,20.86,1.701,29.802,6.583
		c7.678,4.192,10.628,12.907,11.87,21.63c0.088,0.62-0.278,1.294-0.373,1.952
		C2224.218,1558.015,2229.141,1565.386,2222.518,1571.831z M2247.126,1490.269c-0.827-36.219,8.109-67.497,41.732-86.005
		c24.704-13.599,51.816-10.444,78.782-8.957c6.926,0.382,13.768,2.096,20.685,2.881c4.885,0.554,6.08,3.088,5.28,7.526
		c-5.157,28.612-27.392,72.518-41.425,95.778c-14.136,23.43-32.921,36.605-61.352,34.649c-10.674-0.734-18.301-7.204-26.167-13.329
		c-3.614-2.814-1.135-4.864,0.56-7.462c18.473-28.324,43.572-55.394,43.711-63.984c-10.902,5.697-35.862,23.512-58.115,46.021
		C2246.429,1495.768,2247.182,1492.701,2247.126,1490.269z M2311.716,1687.306c-44.289,1.946-64.931-24.717-62.387-67.891
		c0.5-8.48,1.759-8.736,9.847-6.23c30.59,9.479,59.562,22.743,88.08,37.119c2.251,1.135,4.296,3.263,8.624,1.914
		c-12.312-15.1-27.607-26.085-41.323-38.686c-13.685-12.572-27.56-24.899-44.39-33.923c20.759-12.888,50.304-13.015,73.556-8.839
		c18.393,3.303,22.767,14.024,28.324,31.17c2.844,8.773,7.203,16.665,9.569,25.399c2.987,11.029,4.081,22.623,6.47,33.795
		c2.225,10.402,6.642,14.894-0.205,16.269c-1.627,0.327-3.286,0.698-4.931,0.697
		C2358.808,1678.092,2335.739,1686.25,2311.716,1687.306z M2557.408,1981.538c-0.849,6.443-2.448,7.52-7.146,3.593
		c-12.553-10.493-41.12-24.269-57.15-19.005c-15.307,5.027-28.87,27.524-47.598,21.66c-13.452-4.218-23.932-17.448-26.746-30.82
		c-4.174-19.834,6.174-43.187,23.858-52.651c16.934-9.063,35.229-6.398,38.603-6.82c11.801-1.477,22.257,0.251,32.411,7.873
		c10.967,8.232,22.648,15.814,29.531,27.672C2551.75,1947.82,2559.811,1963.299,2557.408,1981.538z M2557.276,1703.434
		c-67.794,87.28-174.836,110.339-197.383,94.572c1.958-4.914,4.541-7.209,43.791-30.71c83.83-50.194,107.367-87.939,144.721-163.057
		c54.104-108.801,46.122-188.144,46.838-254.417c0.709-0.169,1.418-0.339,2.127-0.508c25.897,36.859,29.236,37.78,30.282,50.511
		C2635.417,1494.337,2616.078,1627.731,2557.276,1703.434z M2561.015,801.557c0.973-6.184,3.07-12.242,4.644-18.341
		c5.025-19.479,19.287-27.275,37.129-31.337c56.295-12.816,75.104,8.676,117.286,25.43c7.472,2.968,7.932,5.029,2.608,11.68
		c-31.915,39.871-38.848,62.797-68.25,74.219C2615.341,878.395,2551.73,860.604,2561.015,801.557z M2812.604,1036.564
		c-11.994,13.288-27.615,18.974-42.388,28.123c-13.311,8.244-25.307,15.356-40.857,19.433c-6.771,1.776-7.724,1.573-8.681-5.197
		c-4.272-30.212-15.585-58.46-23.946-87.531c-6.961-24.206-19.967-44.842-36.749-63.341c-1.96-2.161-4.532-3.999-5.462-8.228
		c5.043-3.016,9.885-6.012,15.349-7.407c27.051-6.905,47.326-23.291,63.907-45.025c29.606-38.81,27.646-38.236,32.951-29.259
		c17.055,28.862,44.222,42.406,55.922,82.606C2832.929,956.058,2839.493,1006.776,2812.604,1036.564z"/>
</g>
</svg>
