<svg preserveAspectRatio="none" width="100%" height="100%" overflow="visible" style="display: block;" viewBox="0 0 22 22" fill="none" xmlns="http://www.w3.org/2000/svg">
<g id="Icon">
<path id="Vector" d="M5.5 8.25C7.01878 8.25 8.25 7.01878 8.25 5.5C8.25 3.98122 7.01878 2.75 5.5 2.75C3.98122 2.75 2.75 3.98122 2.75 5.5C2.75 7.01878 3.98122 8.25 5.5 8.25Z" stroke="var(--stroke-0, #B91C1C)" stroke-width="1.83333" stroke-linecap="round" stroke-linejoin="round"/>
<path id="Vector_2" d="M7.44333 7.44333L11 11" stroke="var(--stroke-0, #B91C1C)" stroke-width="1.83333" stroke-linecap="round" stroke-linejoin="round"/>
<path id="Vector_3" d="M18.3333 3.66667L7.44333 14.5567" stroke="var(--stroke-0, #B91C1C)" stroke-width="1.83333" stroke-linecap="round" stroke-linejoin="round"/>
<path id="Vector_4" d="M5.5 19.25C7.01878 19.25 8.25 18.0188 8.25 16.5C8.25 14.9812 7.01878 13.75 5.5 13.75C3.98122 13.75 2.75 14.9812 2.75 16.5C2.75 18.0188 3.98122 19.25 5.5 19.25Z" stroke="var(--stroke-0, #B91C1C)" stroke-width="1.83333" stroke-linecap="round" stroke-linejoin="round"/>
<path id="Vector_5" d="M13.5667 13.5667L18.3333 18.3333" stroke="var(--stroke-0, #B91C1C)" stroke-width="1.83333" stroke-linecap="round" stroke-linejoin="round"/>
</g>
</svg>
