<svg preserveAspectRatio="none" width="100%" height="100%" overflow="visible" style="display: block;" viewBox="0 0 20 20" fill="none" xmlns="http://www.w3.org/2000/svg">
<g id="Icon">
<path id="Vector" d="M11.4417 3.33333C11.2952 3.08077 11.0849 2.87112 10.8319 2.72539C10.5788 2.57966 10.292 2.50295 10 2.50295C9.70802 2.50295 9.42116 2.57966 9.16814 2.72539C8.91513 2.87112 8.70484 3.08077 8.55833 3.33333L1.89167 15C1.74546 15.2532 1.66845 15.5405 1.66838 15.8329C1.6683 16.1253 1.74516 16.4126 1.89124 16.6659C2.03732 16.9192 2.24747 17.1297 2.5006 17.2761C2.75373 17.4225 3.04092 17.4997 3.33333 17.5H16.6667C16.9591 17.4997 17.2463 17.4225 17.4994 17.2761C17.7525 17.1297 17.9627 16.9192 18.1088 16.6659C18.2548 16.4126 18.3317 16.1253 18.3316 15.8329C18.3315 15.5405 18.2545 15.2532 18.1083 15L11.4417 3.33333Z" stroke="var(--stroke-0, #B91C1C)" stroke-width="1.66667" stroke-linecap="round" stroke-linejoin="round"/>
</g>
</svg>
