<svg width="22" height="22" viewBox="0 0 22 22" fill="none" xmlns="http://www.w3.org/2000/svg">
<g filter="url(#filter0_d_1_80)">
<g clip-path="url(#clip0_1_80)">
<path d="M17.6001 1.91998H3.52006C2.98987 1.91998 2.56006 2.34979 2.56006 2.87998V16.96C2.56006 17.4902 2.98987 17.92 3.52006 17.92H17.6001C18.1303 17.92 18.5601 17.4902 18.5601 16.96V2.87998C18.5601 2.34979 18.1303 1.91998 17.6001 1.91998Z" fill="url(#paint0_linear_1_80)"/>
<path opacity="0.72" d="M18.56 1.91998V5.43998L15.04 1.91998H18.56Z" fill="#D96B62"/>
<path d="M5.00438 10.919C4.98859 10.8322 4.95307 10.7177 4.89782 10.5757C4.85046 10.4257 4.79915 10.2718 4.7439 10.1139C4.68865 9.94814 4.63339 9.81001 4.57814 9.6995C4.73601 9.66793 4.88598 9.589 5.02806 9.4627C5.17803 9.33641 5.34774 9.16276 5.53718 8.94174C5.63979 8.83913 5.78582 8.66942 5.97526 8.43262C6.17259 8.18793 6.38571 7.89982 6.61462 7.5683C6.85142 7.23678 7.08822 6.87764 7.32502 6.49086C7.56971 6.10409 7.79073 5.70942 7.98806 5.30686L9.11286 6.01726C8.65505 6.79081 8.14198 7.54857 7.57366 8.29054C7.01323 9.03252 6.44491 9.68766 5.8687 10.256V10.2797C5.8687 10.2797 5.82529 10.3033 5.73846 10.3507C5.65163 10.3902 5.54902 10.4454 5.43062 10.5165C5.32011 10.5796 5.22145 10.6467 5.13462 10.7177C5.04779 10.7888 5.00438 10.8559 5.00438 10.919ZM4.99254 10.919L4.90966 9.8179L5.5135 9.39166L8.99446 8.8115C8.97078 8.99305 8.95499 9.19828 8.9471 9.42718C8.9471 9.65609 8.95105 9.84158 8.95894 9.98366C8.1775 10.1336 7.54209 10.2599 7.0527 10.3625C6.57121 10.4652 6.19233 10.548 5.91606 10.6112C5.64769 10.6743 5.44641 10.7296 5.31222 10.7769C5.17803 10.8243 5.07147 10.8717 4.99254 10.919ZM4.90966 8.03006C4.88598 7.93534 4.84651 7.813 4.79126 7.66302C4.7439 7.50516 4.68865 7.3394 4.6255 7.16574C4.56235 6.99209 4.50315 6.84606 4.4479 6.72766C4.57419 6.69609 4.69654 6.6211 4.81494 6.5027C4.93334 6.3843 5.05569 6.22644 5.18198 6.0291C5.24513 5.93438 5.33985 5.77652 5.46614 5.5555C5.59243 5.33449 5.73057 5.07796 5.88054 4.7859C6.03051 4.48596 6.18049 4.16233 6.33046 3.81502C6.48043 3.46772 6.60673 3.12041 6.70934 2.7731L8.02358 3.40062C7.82625 3.85844 7.59734 4.32414 7.33686 4.79774C7.08427 5.26345 6.81195 5.71337 6.5199 6.1475C6.23574 6.58164 5.94763 6.96841 5.65558 7.30782V7.35518C5.65558 7.35518 5.62006 7.37886 5.54902 7.42622C5.47798 7.47358 5.39115 7.53278 5.28854 7.60382C5.18593 7.66697 5.09515 7.73801 5.01622 7.81694C4.94518 7.89588 4.90966 7.96692 4.90966 8.03006ZM4.90966 8.03006L4.87414 7.04734L5.44246 6.66846L7.44342 6.51454C7.41185 6.6882 7.38422 6.88553 7.36054 7.10654C7.33686 7.31966 7.32107 7.49332 7.31318 7.6275C6.86326 7.68276 6.49227 7.73012 6.20022 7.76958C5.91606 7.80116 5.68715 7.83273 5.5135 7.8643C5.34774 7.88798 5.2175 7.91561 5.12278 7.94718C5.03595 7.97086 4.96491 7.99849 4.90966 8.03006ZM4.57814 12.1149C4.93334 12.0438 5.33985 11.9649 5.79766 11.8781C6.25547 11.7833 6.74091 11.6807 7.25398 11.5702C7.76705 11.4597 8.28011 11.3492 8.79318 11.2387L8.92342 12.4345C8.21302 12.624 7.49867 12.8095 6.78038 12.991C6.06209 13.1726 5.41089 13.3383 4.82678 13.4883L4.57814 12.1149ZM12.1202 4.40702H13.5292C13.5134 5.23582 13.5094 6.04489 13.5173 6.83422C13.5331 7.61566 13.5608 8.34974 13.6002 9.03646C13.6476 9.71529 13.7068 10.3112 13.7778 10.8243C13.8568 11.3374 13.9436 11.7399 14.0383 12.032C14.133 12.324 14.2396 12.4701 14.358 12.4701C14.4369 12.4701 14.4961 12.3201 14.5356 12.0201C14.575 11.7202 14.5987 11.2663 14.6066 10.6585C14.7566 10.8085 14.9342 10.9506 15.1394 11.0848C15.3525 11.219 15.5499 11.3216 15.7314 11.3926C15.6762 12.0478 15.5854 12.5529 15.4591 12.9081C15.3407 13.2633 15.1789 13.508 14.9737 13.6422C14.7763 13.7843 14.5237 13.8553 14.2159 13.8553C13.8449 13.8553 13.5331 13.6817 13.2805 13.3344C13.0358 12.9871 12.8385 12.5095 12.6885 11.9017C12.5386 11.294 12.4202 10.5914 12.3333 9.79422C12.2544 8.997 12.1992 8.14057 12.1676 7.22494C12.1439 6.30142 12.1281 5.36212 12.1202 4.40702ZM10.1785 7.36702H15.4473V8.68126H10.1785V7.36702ZM14.3698 2.96254L15.3525 4.12286C14.8079 4.28073 14.2159 4.42676 13.5765 4.56094C12.9372 4.68724 12.286 4.80169 11.6229 4.9043C10.9599 5.00692 10.3166 5.09374 9.69302 5.16478C9.66934 5.00692 9.61409 4.81748 9.52726 4.59646C9.44833 4.36756 9.37334 4.17812 9.3023 4.02814C9.90219 3.94921 10.51 3.85449 11.1257 3.74398C11.7413 3.62558 12.3294 3.49929 12.8898 3.3651C13.4502 3.23092 13.9436 3.09673 14.3698 2.96254ZM9.40886 14.0566L9.2431 12.8371L9.75222 12.399L12.3215 11.6294C12.3294 11.8189 12.3491 12.032 12.3807 12.2688C12.4123 12.5056 12.4438 12.699 12.4754 12.8489C11.8834 13.0542 11.4019 13.2199 11.0309 13.3462C10.66 13.4804 10.3679 13.5909 10.1548 13.6777C9.94166 13.7646 9.77985 13.8356 9.66934 13.8909C9.55883 13.954 9.47201 14.0093 9.40886 14.0566ZM9.40886 14.0566C9.37729 13.954 9.32598 13.8317 9.25494 13.6896C9.1839 13.5554 9.10497 13.4252 9.01814 13.2989C8.93921 13.1726 8.86817 13.0739 8.80502 13.0029C8.92342 12.916 9.03393 12.7897 9.13654 12.624C9.24705 12.4503 9.3023 12.2293 9.3023 11.9609V4.02814H10.6402V12.7779C10.6402 12.7779 10.5771 12.8213 10.4508 12.9081C10.3245 12.995 10.1824 13.1055 10.0245 13.2397C9.86667 13.3738 9.72459 13.512 9.5983 13.6541C9.47201 13.804 9.40886 13.9382 9.40886 14.0566Z" fill="white"/>
</g>
</g>
<defs>
<filter id="filter0_d_1_80" x="5.8651e-05" y="-1.70469e-05" width="21.12" height="21.12" filterUnits="userSpaceOnUse" color-interpolation-filters="sRGB">
<feFlood flood-opacity="0" result="BackgroundImageFix"/>
<feColorMatrix in="SourceAlpha" type="matrix" values="0 0 0 0 0 0 0 0 0 0 0 0 0 0 0 0 0 0 127 0" result="hardAlpha"/>
<feOffset dy="0.64"/>
<feGaussianBlur stdDeviation="1.28"/>
<feColorMatrix type="matrix" values="0 0 0 0 0 0 0 0 0 0 0 0 0 0 0 0 0 0 0.03 0"/>
<feBlend mode="normal" in2="BackgroundImageFix" result="effect1_dropShadow_1_80"/>
<feBlend mode="normal" in="SourceGraphic" in2="effect1_dropShadow_1_80" result="shape"/>
</filter>
<linearGradient id="paint0_linear_1_80" x1="2.56006" y1="1.91998" x2="18.5601" y2="17.92" gradientUnits="userSpaceOnUse">
<stop stop-color="#E23A28"/>
<stop offset="0.5" stop-color="#C91F1F"/>
<stop offset="1" stop-color="#A81717"/>
</linearGradient>
<clipPath id="clip0_1_80">
<rect width="16" height="16" fill="white" transform="translate(2.56006 1.91998)"/>
</clipPath>
</defs>
</svg>
