<svg width="32" height="32" viewBox="0 0 32 32" fill="none" xmlns="http://www.w3.org/2000/svg">
<g filter="url(#filter0_d_1_73)">
<g clip-path="url(#clip0_1_73)">
<path d="M26.4 2.88H5.27997C4.48468 2.88 3.83997 3.52471 3.83997 4.32V25.44C3.83997 26.2353 4.48468 26.88 5.27997 26.88H26.4C27.1953 26.88 27.84 26.2353 27.84 25.44V4.32C27.84 3.52471 27.1953 2.88 26.4 2.88Z" fill="url(#paint0_linear_1_73)"/>
<path opacity="0.72" d="M27.8399 2.88V8.16001L22.5599 2.88H27.8399Z" fill="#D96B62"/>
<path d="M9.16317 16.2408C9.14237 16.1576 9.10597 16.0536 9.05397 15.9288C9.01237 15.804 8.96557 15.674 8.91357 15.5388C8.87197 15.3932 8.83037 15.2736 8.78877 15.18C8.96557 15.1488 9.14757 15.0448 9.33477 14.868C9.53237 14.6912 9.75597 14.4624 10.0056 14.1816C10.1408 14.036 10.3332 13.802 10.5828 13.4796C10.8428 13.1572 11.134 12.7776 11.4564 12.3408C11.7788 11.8936 12.1012 11.4152 12.4236 10.9056C12.7564 10.396 13.0632 9.87602 13.344 9.34562L14.2956 9.93842C13.6612 10.9992 12.9644 12.0288 12.2052 13.0272C11.4564 14.0152 10.7024 14.8836 9.94317 15.6324V15.6636C9.94317 15.6636 9.90157 15.6844 9.81837 15.726C9.74557 15.7572 9.65717 15.804 9.55317 15.8664C9.44917 15.9184 9.35557 15.9808 9.27237 16.0536C9.19957 16.116 9.16317 16.1784 9.16317 16.2408ZM9.14757 16.2408L9.10077 15.2892L9.67797 14.8992L14.3112 14.0412C14.3008 14.1972 14.2956 14.3688 14.2956 14.556C14.2956 14.7432 14.3008 14.8992 14.3112 15.024C13.2504 15.2424 12.3924 15.4192 11.7372 15.5544C11.0924 15.6896 10.5984 15.7988 10.2552 15.882C9.91197 15.9652 9.66237 16.0328 9.50637 16.0848C9.35037 16.1368 9.23077 16.1888 9.14757 16.2408ZM9.03837 12.4812C9.02797 12.398 9.00197 12.294 8.96037 12.1692C8.91877 12.034 8.87197 11.8936 8.81997 11.748C8.76797 11.6024 8.71597 11.4828 8.66397 11.3892C8.80957 11.358 8.95517 11.254 9.10077 11.0772C9.24637 10.9004 9.40757 10.682 9.58437 10.422C9.67797 10.2868 9.81317 10.0684 9.98997 9.76682C10.1668 9.46522 10.3592 9.11162 10.5672 8.70602C10.7856 8.29002 11.004 7.84802 11.2224 7.38002C11.4408 6.90162 11.6332 6.42842 11.7996 5.96042L12.876 6.45962C12.5952 7.10442 12.2832 7.75442 11.94 8.40962C11.5968 9.05442 11.238 9.67322 10.8636 10.266C10.4996 10.8484 10.1304 11.3736 9.75597 11.8416V11.8728C9.75597 11.8728 9.71957 11.8936 9.64677 11.9352C9.57397 11.9768 9.49077 12.0288 9.39717 12.0912C9.30357 12.1536 9.22037 12.2212 9.14757 12.294C9.07477 12.3564 9.03837 12.4188 9.03837 12.4812ZM9.03837 12.4812L9.02277 11.6232L9.56877 11.2644L12.5484 10.9524C12.5172 11.1084 12.4964 11.2748 12.486 11.4516C12.4756 11.6284 12.4652 11.7792 12.4548 11.904C11.7788 11.9872 11.2276 12.06 10.8012 12.1224C10.3852 12.1848 10.0576 12.2368 9.81837 12.2784C9.58957 12.32 9.41797 12.3564 9.30357 12.3876C9.19957 12.4188 9.11117 12.45 9.03837 12.4812ZM8.74197 18.2532C9.20997 18.1596 9.73517 18.0504 10.3176 17.9256C10.9 17.7904 11.5188 17.65 12.174 17.5044C12.8396 17.3588 13.5104 17.208 14.1864 17.052L14.2956 18.066C13.3596 18.2948 12.4236 18.5288 11.4876 18.768C10.5516 18.9968 9.70917 19.2048 8.96037 19.392L8.74197 18.2532ZM18.6792 7.52042H19.8336C19.8232 8.84122 19.844 10.084 19.896 11.2488C19.948 12.4136 20.026 13.4744 20.13 14.4312C20.234 15.388 20.3588 16.2096 20.5044 16.896C20.6604 17.5824 20.8372 18.1128 21.0348 18.4872C21.2428 18.8616 21.4612 19.0488 21.69 19.0488C21.8356 19.0488 21.9396 18.8512 22.002 18.456C22.0748 18.0504 22.1268 17.4212 22.158 16.5684C22.2828 16.6828 22.4336 16.792 22.6104 16.896C22.7976 17 22.9588 17.0832 23.094 17.1456C23.042 17.9256 22.9588 18.5392 22.8444 18.9864C22.7404 19.4232 22.5844 19.73 22.3764 19.9068C22.1788 20.094 21.9136 20.1876 21.5808 20.1876C21.1336 20.1876 20.7488 19.9692 20.4264 19.5324C20.104 19.106 19.8284 18.5028 19.5996 17.7228C19.3812 16.9428 19.2044 16.0276 19.0692 14.9772C18.9444 13.9164 18.8508 12.7568 18.7884 11.4984C18.726 10.2296 18.6896 8.90362 18.6792 7.52042ZM15.6528 12.0288H22.6728V13.1208H15.6528V12.0288ZM21.5964 6.08522L22.4388 7.03682C21.794 7.22402 21.066 7.40082 20.2548 7.56722C19.454 7.73362 18.6272 7.88442 17.7744 8.01962C16.9216 8.14442 16.0948 8.25362 15.294 8.34722C15.2732 8.21202 15.2212 8.05082 15.138 7.86362C15.0652 7.67642 14.9976 7.52562 14.9352 7.41122C15.7256 7.29682 16.5316 7.17202 17.3532 7.03682C18.1748 6.90162 18.9548 6.75602 19.6932 6.60002C20.4316 6.43362 21.066 6.26202 21.5964 6.08522ZM14.8884 20.3592L14.7792 19.314L15.2784 18.8772L18.726 17.8164C18.7364 17.9724 18.752 18.1492 18.7728 18.3468C18.804 18.5444 18.8352 18.7056 18.8664 18.8304C18.0552 19.1008 17.4052 19.3244 16.9164 19.5012C16.4276 19.678 16.048 19.8184 15.7776 19.9224C15.5176 20.0368 15.32 20.1252 15.1848 20.1876C15.06 20.25 14.9612 20.3072 14.8884 20.3592ZM14.8884 20.3592C14.8572 20.2656 14.8104 20.1616 14.748 20.0472C14.696 19.9328 14.6336 19.8184 14.5608 19.704C14.4984 19.5896 14.436 19.496 14.3736 19.4232C14.488 19.3504 14.6076 19.2308 14.7324 19.0644C14.8676 18.898 14.9352 18.6536 14.9352 18.3312V7.41122H16.0428V19.236C16.0428 19.236 15.9856 19.2724 15.8712 19.3452C15.7568 19.4284 15.6216 19.5272 15.4656 19.6416C15.32 19.756 15.1848 19.8756 15.06 20.0004C14.9456 20.1356 14.8884 20.2552 14.8884 20.3592Z" fill="white"/>
</g>
</g>
<defs>
<filter id="filter0_d_1_73" x="-3.40939e-05" y="4.94719e-06" width="31.68" height="31.68" filterUnits="userSpaceOnUse" color-interpolation-filters="sRGB">
<feFlood flood-opacity="0" result="BackgroundImageFix"/>
<feColorMatrix in="SourceAlpha" type="matrix" values="0 0 0 0 0 0 0 0 0 0 0 0 0 0 0 0 0 0 127 0" result="hardAlpha"/>
<feOffset dy="0.96"/>
<feGaussianBlur stdDeviation="1.92"/>
<feColorMatrix type="matrix" values="0 0 0 0 0 0 0 0 0 0 0 0 0 0 0 0 0 0 0.03 0"/>
<feBlend mode="normal" in2="BackgroundImageFix" result="effect1_dropShadow_1_73"/>
<feBlend mode="normal" in="SourceGraphic" in2="effect1_dropShadow_1_73" result="shape"/>
</filter>
<linearGradient id="paint0_linear_1_73" x1="3.83997" y1="2.88" x2="27.84" y2="26.88" gradientUnits="userSpaceOnUse">
<stop stop-color="#E23A28"/>
<stop offset="0.5" stop-color="#C91F1F"/>
<stop offset="1" stop-color="#A81717"/>
</linearGradient>
<clipPath id="clip0_1_73">
<rect width="24" height="24" fill="white" transform="translate(3.83997 2.88)"/>
</clipPath>
</defs>
</svg>
