<svg width="64" height="64" viewBox="0 0 64 64" fill="none" xmlns="http://www.w3.org/2000/svg">
<g filter="url(#filter0_d_1_59)">
<g clip-path="url(#clip0_1_59)">
<path d="M52.8001 5.76001H10.5601C8.96947 5.76001 7.68005 7.04943 7.68005 8.64001V50.88C7.68005 52.4706 8.96947 53.76 10.5601 53.76H52.8001C54.3906 53.76 55.6801 52.4706 55.6801 50.88V8.64001C55.6801 7.04943 54.3906 5.76001 52.8001 5.76001Z" fill="url(#paint0_linear_1_59)"/>
<path opacity="0.72" d="M55.68 5.76001V16.32L45.12 5.76001H55.68Z" fill="#D96B62"/>
<path d="M18.3265 32.4816C18.2849 32.3152 18.2121 32.1072 18.1081 31.8576C18.0249 31.608 17.9313 31.348 17.8273 31.0776C17.7441 30.7864 17.6609 30.5472 17.5777 30.36C17.9313 30.2976 18.2953 30.0896 18.6697 29.736C19.0649 29.3824 19.5121 28.9248 20.0113 28.3632C20.2817 28.072 20.6665 27.604 21.1657 26.9592C21.6857 26.3144 22.2681 25.5552 22.9129 24.6816C23.5577 23.7872 24.2025 22.8304 24.8473 21.8112C25.5129 20.792 26.1265 19.752 26.6881 18.6912L28.5913 19.8768C27.3225 21.9984 25.9289 24.0576 24.4105 26.0544C22.9129 28.0304 21.4049 29.7672 19.8865 31.2648V31.3272C19.8865 31.3272 19.8033 31.3688 19.6369 31.452C19.4913 31.5144 19.3145 31.608 19.1065 31.7328C18.8985 31.8368 18.7113 31.9616 18.5449 32.1072C18.3993 32.232 18.3265 32.3568 18.3265 32.4816ZM18.2953 32.4816L18.2017 30.5784L19.3561 29.7984L28.6225 28.0824C28.6017 28.3944 28.5913 28.7376 28.5913 29.112C28.5913 29.4864 28.6017 29.7984 28.6225 30.048C26.5009 30.4848 24.7849 30.8384 23.4745 31.1088C22.1849 31.3792 21.1969 31.5976 20.5105 31.764C19.8241 31.9304 19.3249 32.0656 19.0129 32.1696C18.7009 32.2736 18.4617 32.3776 18.2953 32.4816ZM18.0769 24.9624C18.0561 24.796 18.0041 24.588 17.9209 24.3384C17.8377 24.068 17.7441 23.7872 17.6401 23.496C17.5361 23.2048 17.4321 22.9656 17.3281 22.7784C17.6193 22.716 17.9105 22.508 18.2017 22.1544C18.4929 21.8008 18.8153 21.364 19.1689 20.844C19.3561 20.5736 19.6265 20.1368 19.9801 19.5336C20.3337 18.9304 20.7185 18.2232 21.1345 17.412C21.5713 16.58 22.0081 15.696 22.4449 14.76C22.8817 13.8032 23.2665 12.8568 23.5993 11.9208L25.7521 12.9192C25.1905 14.2088 24.5665 15.5088 23.8801 16.8192C23.1937 18.1088 22.4761 19.3464 21.7273 20.532C20.9993 21.6968 20.2609 22.7472 19.5121 23.6832V23.7456C19.5121 23.7456 19.4393 23.7872 19.2937 23.8704C19.1481 23.9536 18.9817 24.0576 18.7945 24.1824C18.6073 24.3072 18.4409 24.4424 18.2953 24.588C18.1497 24.7128 18.0769 24.8376 18.0769 24.9624ZM18.0769 24.9624L18.0457 23.2464L19.1377 22.5288L25.0969 21.9048C25.0345 22.2168 24.9929 22.5496 24.9721 22.9032C24.9513 23.2568 24.9305 23.5584 24.9097 23.808C23.5577 23.9744 22.4553 24.12 21.6025 24.2448C20.7705 24.3696 20.1153 24.4736 19.6369 24.5568C19.1793 24.64 18.8361 24.7128 18.6073 24.7752C18.3993 24.8376 18.2225 24.9 18.0769 24.9624ZM17.4841 36.5064C18.4201 36.3192 19.4705 36.1008 20.6353 35.8512C21.8001 35.5808 23.0377 35.3 24.3481 35.0088C25.6793 34.7176 27.0209 34.416 28.3729 34.104L28.5913 36.132C26.7193 36.5896 24.8473 37.0576 22.9753 37.536C21.1033 37.9936 19.4185 38.4096 17.9209 38.784L17.4841 36.5064ZM37.3585 15.0408H39.6673C39.6465 17.6824 39.6881 20.168 39.7921 22.4976C39.8961 24.8272 40.0521 26.9488 40.2601 28.8624C40.4681 30.776 40.7177 32.4192 41.0089 33.792C41.3209 35.1648 41.6745 36.2256 42.0697 36.9744C42.4857 37.7232 42.9225 38.0976 43.3801 38.0976C43.6713 38.0976 43.8793 37.7024 44.0041 36.912C44.1497 36.1008 44.2537 34.8424 44.3161 33.1368C44.5657 33.3656 44.8673 33.584 45.2209 33.792C45.5953 34 45.9177 34.1664 46.1881 34.2912C46.0841 35.8512 45.9177 37.0784 45.6889 37.9728C45.4809 38.8464 45.1689 39.46 44.7529 39.8136C44.3577 40.188 43.8273 40.3752 43.1617 40.3752C42.2673 40.3752 41.4977 39.9384 40.8529 39.0648C40.2081 38.212 39.6569 37.0056 39.1993 35.4456C38.7625 33.8856 38.4089 32.0552 38.1385 29.9544C37.8889 27.8328 37.7017 25.5136 37.5769 22.9968C37.4521 20.4592 37.3793 17.8072 37.3585 15.0408ZM31.3057 24.0576H45.3457V26.2416H31.3057V24.0576ZM43.1929 12.1704L44.8777 14.0736C43.5881 14.448 42.1321 14.8016 40.5097 15.1344C38.9081 15.4672 37.2545 15.7688 35.5489 16.0392C33.8433 16.2888 32.1897 16.5072 30.5881 16.6944C30.5465 16.424 30.4425 16.1016 30.2761 15.7272C30.1305 15.3528 29.9953 15.0512 29.8705 14.8224C31.4513 14.5936 33.0633 14.344 34.7065 14.0736C36.3497 13.8032 37.9097 13.512 39.3865 13.2C40.8633 12.8672 42.1321 12.524 43.1929 12.1704ZM29.7769 40.7184L29.5585 38.628L30.5569 37.7544L37.4521 35.6328C37.4729 35.9448 37.5041 36.2984 37.5457 36.6936C37.6081 37.0888 37.6705 37.4112 37.7329 37.6608C36.1105 38.2016 34.8105 38.6488 33.8329 39.0024C32.8553 39.356 32.0961 39.6368 31.5553 39.8448C31.0353 40.0736 30.6401 40.2504 30.3697 40.3752C30.1201 40.5 29.9225 40.6144 29.7769 40.7184ZM29.7769 40.7184C29.7145 40.5312 29.6209 40.3232 29.4961 40.0944C29.3921 39.8656 29.2673 39.6368 29.1217 39.408C28.9969 39.1792 28.8721 38.992 28.7473 38.8464C28.9761 38.7008 29.2153 38.4616 29.4649 38.1288C29.7353 37.796 29.8705 37.3072 29.8705 36.6624V14.8224H32.0857V38.472C32.0857 38.472 31.9713 38.5448 31.7425 38.6904C31.5137 38.8568 31.2433 39.0544 30.9313 39.2832C30.6401 39.512 30.3697 39.7512 30.1201 40.0008C29.8913 40.2712 29.7769 40.5104 29.7769 40.7184Z" fill="white"/>
</g>
</g>
<defs>
<filter id="filter0_d_1_59" x="5.38826e-05" y="9.89437e-06" width="63.36" height="63.36" filterUnits="userSpaceOnUse" color-interpolation-filters="sRGB">
<feFlood flood-opacity="0" result="BackgroundImageFix"/>
<feColorMatrix in="SourceAlpha" type="matrix" values="0 0 0 0 0 0 0 0 0 0 0 0 0 0 0 0 0 0 127 0" result="hardAlpha"/>
<feOffset dy="1.92"/>
<feGaussianBlur stdDeviation="3.84"/>
<feColorMatrix type="matrix" values="0 0 0 0 0 0 0 0 0 0 0 0 0 0 0 0 0 0 0.08 0"/>
<feBlend mode="normal" in2="BackgroundImageFix" result="effect1_dropShadow_1_59"/>
<feBlend mode="normal" in="SourceGraphic" in2="effect1_dropShadow_1_59" result="shape"/>
</filter>
<linearGradient id="paint0_linear_1_59" x1="7.68005" y1="5.76001" x2="55.6801" y2="53.76" gradientUnits="userSpaceOnUse">
<stop stop-color="#E23A28"/>
<stop offset="0.5" stop-color="#C91F1F"/>
<stop offset="1" stop-color="#A81717"/>
</linearGradient>
<clipPath id="clip0_1_59">
<rect width="48" height="48" fill="white" transform="translate(7.68005 5.76001)"/>
</clipPath>
</defs>
</svg>
