<svg width="169" height="169" viewBox="0 0 169 169" fill="none" xmlns="http://www.w3.org/2000/svg">
<g filter="url(#filter0_d_1_27)">
<g clip-path="url(#clip0_1_27)">
<path d="M140.8 15.36H28.16C23.9184 15.36 20.48 18.7984 20.48 23.04V135.68C20.48 139.922 23.9184 143.36 28.16 143.36H140.8C145.042 143.36 148.48 139.922 148.48 135.68V23.04C148.48 18.7984 145.042 15.36 140.8 15.36Z" fill="url(#paint0_linear_1_27)"/>
<path d="M39.6799 124.16L129.28 34.56" stroke="url(#paint1_linear_1_27)" stroke-width="1.92"/>
<path d="M148.48 15.36V51.968L111.872 15.36H148.48Z" fill="url(#paint2_linear_1_27)"/>
<path opacity="0.92" d="M148.48 15.36V43.52L120.32 15.36H148.48Z" fill="#D96B62"/>
<path d="M120.32 15.36L148.48 43.52" stroke="white" stroke-opacity="0.4" stroke-width="0.64"/>
<path d="M51.6864 91.7408C51.584 91.1776 51.3536 90.4352 50.9952 89.5136C50.688 88.5408 50.3552 87.5424 49.9968 86.5184C49.6384 85.4432 49.28 84.5472 48.9216 83.8304C49.9456 83.6256 50.9184 83.1136 51.84 82.2944C52.8128 81.4752 53.9136 80.3488 55.1424 78.9152C55.808 78.2496 56.7552 77.1488 57.984 75.6128C59.264 74.0256 60.6464 72.1568 62.1312 70.0064C63.6672 67.856 65.2032 65.5264 66.7392 63.0176C68.3264 60.5088 69.76 57.9488 71.04 55.3376L78.336 59.9456C75.3664 64.9632 72.0384 69.8784 68.352 74.6912C64.7168 79.504 61.0304 83.7536 57.2928 87.44V87.5936C57.2928 87.5936 57.0112 87.7472 56.448 88.0544C55.8848 88.3104 55.2192 88.6688 54.4512 89.1296C53.7344 89.5392 53.0944 89.9744 52.5312 90.4352C51.968 90.896 51.6864 91.3312 51.6864 91.7408ZM51.6096 91.7408L51.072 84.5984L54.9888 81.8336L77.568 78.0704C77.4144 79.248 77.312 80.5792 77.2608 82.064C77.2608 83.5488 77.2864 84.752 77.3376 85.6736C72.2688 86.6464 68.1472 87.4656 64.9728 88.1312C61.8496 88.7968 59.392 89.3344 57.6 89.744C55.8592 90.1536 54.5536 90.512 53.6832 90.8192C52.8128 91.1264 52.1216 91.4336 51.6096 91.7408ZM51.072 73.0016C50.9184 72.3872 50.6624 71.5936 50.304 70.6208C49.9968 69.5968 49.6384 68.5216 49.2288 67.3952C48.8192 66.2688 48.4352 65.3216 48.0768 64.5536C48.896 64.3488 49.6896 63.8624 50.4576 63.0944C51.2256 62.3264 52.0192 61.3024 52.8384 60.0224C53.248 59.408 53.8624 58.384 54.6816 56.9504C55.5008 55.5168 56.3968 53.8528 57.3696 51.9584C58.3424 50.0128 59.3152 47.9136 60.288 45.6608C61.2608 43.408 62.08 41.1552 62.7456 38.9024L71.2704 42.9728C69.9904 45.9424 68.5056 48.9632 66.816 52.0352C65.1776 55.056 63.4112 57.9744 61.5168 60.7904C59.6736 63.6064 57.8048 66.1152 55.9104 68.3168V68.624C55.9104 68.624 55.68 68.7776 55.2192 69.0848C54.7584 69.392 54.1952 69.776 53.5296 70.2368C52.864 70.6464 52.2752 71.1072 51.7632 71.6192C51.3024 72.1312 51.072 72.592 51.072 73.0016ZM51.072 73.0016L50.8416 66.6272L54.528 64.1696L67.5072 63.1712C67.3024 64.2976 67.1232 65.5776 66.9696 67.0112C66.816 68.3936 66.7136 69.52 66.6624 70.3904C63.744 70.7488 61.3376 71.056 59.4432 71.312C57.6 71.5168 56.1152 71.7216 54.9888 71.9264C53.9136 72.08 53.0688 72.2592 52.4544 72.464C51.8912 72.6176 51.4304 72.7968 51.072 73.0016ZM48.9216 99.4976C51.2256 99.0368 53.8624 98.5248 56.832 97.9616C59.8016 97.3472 62.9504 96.6816 66.2784 95.9648C69.6064 95.248 72.9344 94.5312 76.2624 93.8144L77.1072 101.571C72.4992 102.8 67.8656 104.003 63.2064 105.181C58.5472 106.358 54.3232 107.434 50.5344 108.406L48.9216 99.4976ZM97.8432 49.5008H106.982C106.88 54.8768 106.854 60.1248 106.906 65.2448C107.008 70.3136 107.187 75.0752 107.443 79.5296C107.75 83.9328 108.134 87.7984 108.595 91.1264C109.107 94.4544 109.67 97.0656 110.285 98.96C110.899 100.854 111.59 101.802 112.358 101.802C112.87 101.802 113.254 100.829 113.51 98.8832C113.766 96.9376 113.92 93.9936 113.971 90.0512C114.944 91.024 116.096 91.9456 117.427 92.816C118.81 93.6864 120.09 94.352 121.267 94.8128C120.909 99.0624 120.32 102.339 119.501 104.643C118.733 106.947 117.683 108.534 116.352 109.405C115.072 110.326 113.434 110.787 111.437 110.787C109.03 110.787 107.008 109.661 105.37 107.408C103.782 105.155 102.502 102.058 101.53 98.1152C100.557 94.1728 99.7888 89.616 99.2256 84.4448C98.7136 79.2736 98.3552 73.7184 98.1504 67.7792C97.9968 61.7888 97.8944 55.696 97.8432 49.5008ZM85.248 68.7008H119.424V77.2256H85.248V68.7008ZM112.435 40.1312L118.81 47.6576C115.277 48.6816 111.437 49.6288 107.29 50.4992C103.142 51.3184 98.9184 52.0608 94.6176 52.7264C90.3168 53.392 86.144 53.9552 82.0992 54.416C81.9456 53.392 81.5872 52.1632 81.024 50.7296C80.512 49.2448 80.0256 48.016 79.5648 47.0432C83.456 46.5312 87.3984 45.9168 91.392 45.2C95.3856 44.432 99.2 43.6128 102.835 42.7424C106.47 41.872 109.67 41.0016 112.435 40.1312ZM80.256 112.093L79.1808 104.182L82.4832 101.341L99.1488 96.3488C99.2 97.5776 99.328 98.96 99.5328 100.496C99.7376 102.032 99.9424 103.286 100.147 104.259C96.3072 105.59 93.184 106.666 90.7776 107.485C88.3712 108.355 86.4768 109.072 85.0944 109.635C83.712 110.198 82.6624 110.659 81.9456 111.018C81.2288 111.427 80.6656 111.786 80.256 112.093ZM80.256 112.093C80.0512 111.427 79.7184 110.634 79.2576 109.712C78.7968 108.842 78.2848 107.997 77.7216 107.178C77.2096 106.358 76.7488 105.718 76.3392 105.258C77.1072 104.694 77.824 103.875 78.4896 102.8C79.2064 101.674 79.5648 100.24 79.5648 98.4992V47.0432H88.2432V103.798C88.2432 103.798 87.8336 104.08 87.0144 104.643C86.1952 105.206 85.2736 105.923 84.2496 106.794C83.2256 107.664 82.304 108.56 81.4848 109.482C80.6656 110.454 80.256 111.325 80.256 112.093Z" fill="white"/>
<path d="M51.6864 91.7408L51.1826 91.8324L52.1984 91.7408H51.6864ZM50.9952 89.5136L50.5069 89.6677L50.512 89.6836L50.518 89.6991L50.9952 89.5136ZM49.9968 86.5184L49.511 86.6803L49.5135 86.6875L49.9968 86.5184ZM48.9216 83.8304L48.8212 83.3283L48.1638 83.4598L48.4636 84.0593L48.9216 83.8304ZM51.84 82.2944L51.5101 81.9026L51.4998 81.9117L51.84 82.2944ZM55.1424 78.9152L54.7803 78.5531L54.7664 78.567L54.7536 78.582L55.1424 78.9152ZM57.984 75.6128L57.5854 75.2914L57.5842 75.2929L57.984 75.6128ZM62.1312 70.0064L61.7145 69.7087L61.7099 69.7155L62.1312 70.0064ZM66.7392 63.0176L66.3065 62.7438L66.3025 62.7502L66.7392 63.0176ZM71.04 55.3376L71.3134 54.9047L70.8312 54.6002L70.5802 55.1122L71.04 55.3376ZM78.336 59.9456L78.7766 60.2063L79.0299 59.7783L78.6094 59.5127L78.336 59.9456ZM68.352 74.6912L67.9455 74.3798L67.9434 74.3826L68.352 74.6912ZM57.2928 87.44L56.9332 87.0754L56.7808 87.2258V87.44H57.2928ZM57.2928 87.5936L57.538 88.0431L57.8048 87.8975V87.5936H57.2928ZM56.448 88.0544L56.6598 88.5205L56.6768 88.5128L56.6932 88.5039L56.448 88.0544ZM54.4512 89.1296L54.7053 89.5742L54.7146 89.5686L54.4512 89.1296ZM51.6096 91.7408L51.099 91.7792L51.1613 92.6068L51.873 92.1798L51.6096 91.7408ZM51.072 84.5984L50.7767 84.1801L50.5396 84.3474L50.5614 84.6368L51.072 84.5984ZM54.9888 81.8336L54.9046 81.3285L54.7891 81.3478L54.6935 81.4153L54.9888 81.8336ZM77.568 78.0704L78.0757 78.1366L78.165 77.4518L77.4838 77.5653L77.568 78.0704ZM77.2608 82.064L76.7491 82.0463L76.7488 82.0551V82.064H77.2608ZM77.3376 85.6736L77.4341 86.1764L77.8736 86.092L77.8488 85.6452L77.3376 85.6736ZM64.9728 88.1312L64.8677 87.6301L64.8661 87.6304L64.9728 88.1312ZM57.6 89.744L57.4859 89.2448L57.4827 89.2456L57.6 89.744ZM53.6832 90.8192L53.8536 91.302H53.8536L53.6832 90.8192ZM51.072 73.0016L50.5753 73.1257L51.584 73.0016H51.072ZM50.304 70.6208L49.8136 70.7679L49.8181 70.783L49.8235 70.7978L50.304 70.6208ZM49.2288 67.3952L49.71 67.2202H49.71L49.2288 67.3952ZM48.0768 64.5536L47.9526 64.0569L47.3502 64.2074L47.6128 64.7701L48.0768 64.5536ZM50.4576 63.0944L50.0955 62.7323H50.0955L50.4576 63.0944ZM52.8384 60.0224L52.4123 59.7383L52.4071 59.7464L52.8384 60.0224ZM57.3696 51.9584L57.8251 52.1923L57.8275 52.1873L57.3696 51.9584ZM60.288 45.6608L59.8179 45.4578V45.4578L60.288 45.6608ZM62.7456 38.9024L62.9662 38.4403L62.4246 38.1817L62.2546 38.7573L62.7456 38.9024ZM71.2704 42.9728L71.7406 43.1754L71.9356 42.723L71.491 42.5107L71.2704 42.9728ZM66.816 52.0352L66.3673 51.7884L66.3659 51.7911L66.816 52.0352ZM61.5168 60.7904L61.0919 60.5046L61.0884 60.51L61.5168 60.7904ZM55.9104 68.3168L55.5223 67.9828L55.3984 68.1268V68.3168H55.9104ZM55.9104 68.624L56.1944 69.05L56.4224 68.898V68.624H55.9104ZM55.2192 69.0848L55.5032 69.5108H55.5032L55.2192 69.0848ZM53.5296 70.2368L53.7979 70.6728L53.8097 70.6656L53.821 70.6577L53.5296 70.2368ZM51.7632 71.6192L51.4011 71.2571L51.3916 71.2667L51.3826 71.2767L51.7632 71.6192ZM51.072 73.0016L50.5603 73.0201L50.5909 73.8662L51.326 73.4461L51.072 73.0016ZM50.8416 66.6272L50.5576 66.2012L50.3196 66.3598L50.3299 66.6457L50.8416 66.6272ZM54.528 64.1696L54.4887 63.6591L54.3553 63.6693L54.244 63.7436L54.528 64.1696ZM67.5072 63.1712L68.0109 63.2628L68.1296 62.6098L67.4679 62.6607L67.5072 63.1712ZM66.9696 67.0112L67.4785 67.0677L67.4787 67.0657L66.9696 67.0112ZM66.6624 70.3904L66.7248 70.8985L67.1484 70.8465L67.1735 70.4204L66.6624 70.3904ZM59.4432 71.312L59.4997 71.821L59.5117 71.8194L59.4432 71.312ZM54.9888 71.9264L55.0612 72.4332L55.0708 72.4318L55.0804 72.4301L54.9888 71.9264ZM52.4544 72.464L52.5891 72.9579L52.6028 72.9542L52.6163 72.9497L52.4544 72.464ZM48.9216 99.4976L48.8212 98.9955L48.3282 99.0941L48.4178 99.5888L48.9216 99.4976ZM56.832 97.9616L56.9274 98.4647L56.9357 98.463L56.832 97.9616ZM66.2784 95.9648L66.1706 95.4642V95.4642L66.2784 95.9648ZM76.2624 93.8144L76.7714 93.7589L76.7099 93.1942L76.1546 93.3138L76.2624 93.8144ZM77.1072 101.571L77.2391 102.066L77.6638 101.953L77.6162 101.516L77.1072 101.571ZM50.5344 108.406L50.0306 108.498L50.1286 109.039L50.6617 108.902L50.5344 108.406ZM97.8432 49.5008V48.9888H97.3269L97.3312 49.505L97.8432 49.5008ZM106.982 49.5008L107.494 49.5105L107.504 48.9888H106.982V49.5008ZM106.906 65.2448L106.394 65.2499L106.394 65.2551L106.906 65.2448ZM107.443 79.5296L106.932 79.5589L106.932 79.5652L107.443 79.5296ZM108.595 91.1264L108.088 91.1966L108.089 91.2042L108.595 91.1264ZM110.285 98.96L109.798 99.1179V99.1179L110.285 98.96ZM113.971 90.0512L114.333 89.6891L113.475 88.8309L113.459 90.0445L113.971 90.0512ZM117.427 92.816L117.147 93.2446L117.154 93.2492L117.427 92.816ZM121.267 94.8128L121.777 94.8558L121.809 94.4752L121.454 94.336L121.267 94.8128ZM119.501 104.643L119.018 104.472L119.015 104.481L119.501 104.643ZM116.352 109.405L116.072 108.976L116.062 108.983L116.053 108.989L116.352 109.405ZM105.37 107.408L104.951 107.703L104.956 107.709L105.37 107.408ZM101.53 98.1152L102.027 97.9925V97.9925L101.53 98.1152ZM99.2256 84.4448L98.716 84.4952L98.7166 84.5002L99.2256 84.4448ZM98.1504 67.7792L97.6385 67.7923L97.6387 67.7968L98.1504 67.7792ZM85.248 68.7008V68.1888H84.736V68.7008H85.248ZM119.424 68.7008H119.936V68.1888H119.424V68.7008ZM119.424 77.2256V77.7376H119.936V77.2256H119.424ZM85.248 77.2256H84.736V77.7376H85.248V77.2256ZM112.435 40.1312L112.826 39.8003L112.606 39.5406L112.281 39.6428L112.435 40.1312ZM118.81 47.6576L118.952 48.1493L119.711 47.9294L119.2 47.3267L118.81 47.6576ZM107.29 50.4992L107.389 51.0015L107.395 51.0002L107.29 50.4992ZM82.0992 54.416L81.5928 54.4919L81.6661 54.9806L82.1571 54.9247L82.0992 54.416ZM81.024 50.7296L80.54 50.8965L80.5435 50.9067L80.5474 50.9168L81.024 50.7296ZM79.5648 47.0432L79.498 46.5355L78.8012 46.6272L79.1021 47.2623L79.5648 47.0432ZM91.392 45.2L91.4824 45.704L91.4887 45.7028L91.392 45.2ZM102.835 42.7424L102.716 42.2444V42.2444L102.835 42.7424ZM80.256 112.093L79.7486 112.162L79.866 113.025L80.5632 112.502L80.256 112.093ZM79.1808 104.182L78.8468 103.794L78.636 103.976L78.6734 104.251L79.1808 104.182ZM82.4832 101.341L82.3363 100.85L82.2319 100.882L82.1492 100.953L82.4832 101.341ZM99.1488 96.3488L99.6603 96.3275L99.6329 95.6693L99.0019 95.8583L99.1488 96.3488ZM99.5328 100.496L100.04 100.428V100.428L99.5328 100.496ZM100.147 104.259L100.315 104.743L100.741 104.595L100.648 104.154L100.147 104.259ZM90.7776 107.485L90.6126 107L90.6034 107.003L90.7776 107.485ZM85.0944 109.635L84.9012 109.161V109.161L85.0944 109.635ZM81.9456 111.018L81.7166 110.56L81.7039 110.566L81.6916 110.573L81.9456 111.018ZM80.256 112.093L79.7666 112.243L80.768 112.093H80.256ZM79.2576 109.712L79.7157 109.483L79.7101 109.472L79.2576 109.712ZM77.7216 107.178L77.2874 107.449L77.2933 107.458L77.2997 107.468L77.7216 107.178ZM76.3392 105.258L76.0364 104.845L75.5828 105.177L75.9565 105.598L76.3392 105.258ZM78.4896 102.8L78.0576 102.525L78.0542 102.53L78.4896 102.8ZM79.5648 47.0432V46.5312H79.0528V47.0432H79.5648ZM88.2432 47.0432H88.7552V46.5312H88.2432V47.0432ZM88.2432 103.798L88.5332 104.22L88.7552 104.068V103.798H88.2432ZM87.0144 104.643L87.3044 105.065V105.065L87.0144 104.643ZM84.2496 106.794L83.918 106.403V106.403L84.2496 106.794ZM81.4848 109.482L81.102 109.141L81.0931 109.152L81.4848 109.482ZM51.6864 91.7408L52.1901 91.6492C52.0792 91.0389 51.8354 90.2615 51.4724 89.328L50.9952 89.5136L50.518 89.6991C50.8718 90.6088 51.0888 91.3162 51.1826 91.8324L51.6864 91.7408ZM50.9952 89.5136L51.4834 89.3594C51.1745 88.3813 50.8401 87.3779 50.48 86.3492L49.9968 86.5184L49.5135 86.6875C49.8703 87.7069 50.2014 88.7003 50.5069 89.6677L50.9952 89.5136ZM49.9968 86.5184L50.4825 86.3565C50.1193 85.2669 49.7522 84.3467 49.3795 83.6014L48.9216 83.8304L48.4636 84.0593C48.8078 84.7477 49.1574 85.6195 49.5111 86.6803L49.9968 86.5184ZM48.9216 83.8304L49.022 84.3324C50.15 84.1068 51.203 83.5456 52.1801 82.677L51.84 82.2944L51.4998 81.9117C50.6338 82.6815 49.7411 83.1443 48.8212 83.3283L48.9216 83.8304ZM51.84 82.2944L52.1698 82.686C53.1713 81.8426 54.292 80.694 55.5311 79.2484L55.1424 78.9152L54.7536 78.582C53.5351 80.0036 52.4543 81.1077 51.5102 81.9027L51.84 82.2944ZM55.1424 78.9152L55.5044 79.2772C56.1912 78.5905 57.153 77.4711 58.3838 75.9326L57.984 75.6128L57.5842 75.2929C56.3574 76.8264 55.4248 77.9087 54.7803 78.5531L55.1424 78.9152ZM57.984 75.6128L58.3825 75.9342C59.6723 74.3348 61.0624 72.4554 62.5525 70.2973L62.1312 70.0064L61.7099 69.7155C60.2304 71.8582 58.8556 73.7163 57.5854 75.2914L57.984 75.6128ZM62.1312 70.0064L62.5478 70.304C64.0916 68.1427 65.6342 65.8029 67.1758 63.2849L66.7392 63.0176L66.3025 62.7502C64.7721 65.2498 63.2428 67.5692 61.7145 69.7088L62.1312 70.0064ZM66.7392 63.0176L67.1719 63.2913C68.7687 60.7672 70.2114 58.1911 71.4997 55.5629L71.04 55.3376L70.5802 55.1122C69.3086 57.7065 67.884 60.2503 66.3065 62.7438L66.7392 63.0176ZM71.04 55.3376L70.7666 55.7705L78.0626 60.3785L78.336 59.9456L78.6094 59.5127L71.3134 54.9047L71.04 55.3376ZM78.336 59.9456L77.8954 59.6848C74.9365 64.6842 71.62 69.5826 67.9455 74.3798L68.352 74.6912L68.7584 75.0025C72.4567 70.1742 75.7962 65.2421 78.7766 60.2063L78.336 59.9456ZM68.352 74.6912L67.9434 74.3826C64.321 79.1784 60.6508 83.4088 56.9332 87.0754L57.2928 87.44L57.6523 87.8045C61.41 84.0983 65.1125 79.8295 68.7605 74.9998L68.352 74.6912ZM57.2928 87.44H56.7808V87.5936H57.2928H57.8048V87.44H57.2928ZM57.2928 87.5936C57.0476 87.1441 57.0476 87.1441 57.0476 87.1441C57.0476 87.1441 57.0476 87.1441 57.0476 87.1441C57.0476 87.1441 57.0476 87.1441 57.0476 87.1441C57.0476 87.1441 57.0476 87.1441 57.0476 87.1441C57.0475 87.1442 57.0475 87.1441 57.0474 87.1442C57.0473 87.1443 57.0474 87.1442 57.0473 87.1443C57.0469 87.1445 57.0476 87.1441 57.0471 87.1443C57.0464 87.1447 57.0476 87.1441 57.0468 87.1445C57.0445 87.1458 57.0471 87.1444 57.0443 87.1459C57.0337 87.1517 57.0514 87.142 57.0402 87.1481C57.0202 87.159 57.0549 87.1401 57.0344 87.1513C57.0298 87.1538 57.0247 87.1566 57.0179 87.1603C57.0163 87.1612 57.0145 87.1621 57.0128 87.1631C57.0121 87.1635 57.008 87.1657 57.0072 87.1661C56.9999 87.1701 57.0026 87.1686 56.9948 87.1729C56.9777 87.1822 56.9844 87.1785 56.9651 87.1891C56.9601 87.1918 56.936 87.205 56.9288 87.2089C56.9267 87.21 56.921 87.2132 56.9187 87.2144C56.9158 87.216 56.919 87.2142 56.9161 87.2158C56.9157 87.216 56.9152 87.2163 56.9148 87.2165C56.9144 87.2168 56.9139 87.217 56.9135 87.2172C56.9095 87.2194 56.9122 87.218 56.9082 87.2201C56.9058 87.2214 56.8998 87.2247 56.8973 87.2261C56.8851 87.2327 56.8982 87.2256 56.8859 87.2323C56.8854 87.2326 56.8849 87.2328 56.8845 87.2331C56.884 87.2333 56.8835 87.2336 56.883 87.2339C56.8776 87.2368 56.8855 87.2325 56.8801 87.2355C56.8796 87.2357 56.8791 87.236 56.8786 87.2363C56.8781 87.2365 56.8776 87.2368 56.8771 87.2371C56.8763 87.2375 56.875 87.2383 56.8742 87.2387C56.8623 87.2452 56.874 87.2388 56.862 87.2453C56.8512 87.2512 56.8477 87.2531 56.8364 87.2593C56.8264 87.2648 56.7926 87.2832 56.7803 87.2899C56.7741 87.2933 56.7791 87.2906 56.7728 87.294C56.7413 87.3112 56.8006 87.2788 56.7691 87.296C56.7684 87.2964 56.7678 87.2967 56.7672 87.2971C56.7665 87.2974 56.7659 87.2978 56.7653 87.2981C56.763 87.2993 56.7599 87.301 56.7576 87.3023C56.7455 87.3089 56.7618 87.3 56.7498 87.3065C56.7494 87.3068 56.7423 87.3106 56.7419 87.3108C56.7412 87.3112 56.7406 87.3116 56.7399 87.3119C56.7392 87.3123 56.7386 87.3126 56.7379 87.313C56.7203 87.3226 56.7515 87.3056 56.7339 87.3152C56.7335 87.3154 56.7182 87.3238 56.7176 87.3241C56.7176 87.3241 56.6505 87.3607 56.6483 87.3619C56.6424 87.3651 56.636 87.3686 56.63 87.3719C56.6134 87.3809 56.6279 87.373 56.6112 87.3821C56.607 87.3844 56.5963 87.3902 56.592 87.3926C56.5892 87.3941 56.5754 87.4017 56.5724 87.4033C56.5532 87.4138 56.4289 87.4816 56.4008 87.4969C56.3362 87.5322 56.372 87.5126 56.3051 87.5491C56.2825 87.5614 56.2779 87.5639 56.2548 87.5765C56.2393 87.585 56.2638 87.5716 56.2484 87.58C56.2413 87.5839 56.2491 87.5797 56.2419 87.5835C56.2224 87.5942 56.2486 87.5799 56.229 87.5906C56.2014 87.6056 56.2501 87.5791 56.2225 87.5942C56.2214 87.5947 56.2203 87.5953 56.2192 87.5959C56.2181 87.5965 56.217 87.5971 56.216 87.5977C56.2023 87.6052 56.2165 87.5974 56.2028 87.6049L56.448 88.0544L56.6932 88.5039C56.699 88.5006 56.7005 88.4999 56.7063 88.4967C56.7107 88.4943 56.715 88.4919 56.7193 88.4896C56.7204 88.489 56.7215 88.4884 56.7226 88.4878C56.7237 88.4872 56.7248 88.4866 56.7258 88.486C56.7269 88.4854 56.728 88.4849 56.7291 88.4843C56.7301 88.4837 56.7312 88.4831 56.7323 88.4825C56.7437 88.4763 56.7337 88.4817 56.7451 88.4755C56.7461 88.475 56.7569 88.4691 56.7579 88.4686C56.7825 88.4551 56.7459 88.4751 56.7705 88.4617C56.7831 88.4548 56.7829 88.4549 56.7955 88.4481C56.8343 88.4269 56.8545 88.4158 56.8912 88.3959C56.9192 88.3806 57.0435 88.3127 57.0628 88.3023C57.0889 88.288 57.076 88.2951 57.1015 88.2811C57.1048 88.2793 57.1077 88.2777 57.111 88.276C57.1117 88.2755 57.1125 88.2751 57.1133 88.2747C57.1141 88.2743 57.1149 88.2738 57.1156 88.2734C57.1167 88.2728 57.1193 88.2714 57.1203 88.2709C57.1274 88.267 57.1316 88.2647 57.1387 88.2609C57.1623 88.248 57.151 88.2541 57.1741 88.2415C57.1948 88.2302 57.1621 88.2481 57.1827 88.2368C57.1908 88.2324 57.1832 88.2366 57.1912 88.2322C57.2017 88.2265 57.1892 88.2333 57.1997 88.2276C57.217 88.2181 57.1906 88.2325 57.208 88.2231C57.2359 88.2078 57.2127 88.2205 57.2401 88.2055C57.2408 88.2051 57.2414 88.2048 57.2421 88.2044C57.2427 88.2041 57.2434 88.2037 57.244 88.2034C57.2447 88.203 57.2453 88.2027 57.246 88.2023C57.2466 88.202 57.2473 88.2016 57.2479 88.2013C57.2671 88.1908 57.2365 88.2075 57.2556 88.1971C57.2872 88.1798 57.2392 88.206 57.2707 88.1889C57.2772 88.1853 57.2789 88.1843 57.2853 88.1809C57.2948 88.1757 57.2794 88.1841 57.2889 88.1789C57.2921 88.1772 57.2893 88.1787 57.2925 88.177C57.2966 88.1747 57.2954 88.1754 57.2995 88.1731C57.3062 88.1695 57.3068 88.1691 57.3133 88.1656C57.3274 88.1579 57.3027 88.1714 57.3167 88.1637C57.3173 88.1634 57.3179 88.1631 57.3184 88.1628C57.319 88.1625 57.3195 88.1622 57.3201 88.1619C57.3231 88.1603 57.3238 88.1599 57.3268 88.1583C57.397 88.1199 57.3577 88.1414 57.4192 88.1079C57.4312 88.1013 57.482 88.0736 57.4852 88.0719C57.5102 88.0582 57.4854 88.0717 57.5083 88.0592C57.5215 88.0521 57.5138 88.0563 57.5248 88.0503C57.5258 88.0497 57.5246 88.0504 57.5256 88.0498C57.5257 88.0497 57.5258 88.0497 57.526 88.0496C57.5261 88.0495 57.5262 88.0494 57.5264 88.0494C57.5281 88.0484 57.5254 88.0499 57.5271 88.049C57.5274 88.0488 57.5276 88.0487 57.5278 88.0486C57.5307 88.047 57.5278 88.0486 57.5305 88.0471C57.5358 88.0442 57.5299 88.0475 57.5347 88.0449C57.5347 88.0448 57.535 88.0446 57.5351 88.0446C57.5352 88.0445 57.5353 88.0445 57.5354 88.0444C57.5361 88.0441 57.5355 88.0444 57.5361 88.0441C57.5369 88.0436 57.5365 88.0438 57.5371 88.0435C57.5376 88.0433 57.5374 88.0433 57.5377 88.0432C57.5378 88.0431 57.5379 88.0431 57.5379 88.0431C57.5379 88.0431 57.5379 88.0431 57.5379 88.0431C57.5379 88.0431 57.5379 88.0431 57.5379 88.0431C57.538 88.0431 57.538 88.0431 57.2928 87.5936ZM56.448 88.0544L56.2361 87.5883C55.6493 87.855 54.9657 88.2237 54.1878 88.6905L54.4512 89.1296L54.7146 89.5686C55.4726 89.1138 56.1202 88.7658 56.6598 88.5205L56.448 88.0544ZM54.4512 89.1296L54.1972 88.685C53.4589 89.1069 52.7949 89.5579 52.207 90.0389L52.5312 90.4352L52.8554 90.8314C53.3939 90.3909 54.0099 89.9714 54.7052 89.5741L54.4512 89.1296ZM52.5312 90.4352L52.207 90.0389C51.6124 90.5253 51.1744 91.0922 51.1744 91.7408H51.6864H52.1984C52.1984 91.5702 52.3235 91.2666 52.8554 90.8314L52.5312 90.4352ZM51.6096 91.7408L52.1201 91.7023L51.5825 84.5599L51.072 84.5984L50.5614 84.6368L51.099 91.7792L51.6096 91.7408ZM51.072 84.5984L51.3672 85.0167L55.284 82.2519L54.9888 81.8336L54.6935 81.4153L50.7767 84.1801L51.072 84.5984ZM54.9888 81.8336L55.073 82.3386L77.6522 78.5754L77.568 78.0704L77.4838 77.5653L54.9046 81.3285L54.9888 81.8336ZM77.568 78.0704L77.0603 78.0041C76.9041 79.2013 76.8007 80.5491 76.7491 82.0463L77.2608 82.064L77.7725 82.0816C77.8232 80.6092 77.9246 79.2947 78.0757 78.1366L77.568 78.0704ZM77.2608 82.064H76.7488C76.7488 83.5533 76.7744 84.767 76.8264 85.702L77.3376 85.6736L77.8488 85.6452C77.7983 84.7369 77.7728 83.5442 77.7728 82.064H77.2608ZM77.3376 85.6736L77.2411 85.1707C72.1709 86.1438 68.0461 86.9636 64.8677 87.6301L64.9728 88.1312L65.0779 88.6323C68.2482 87.9675 72.3667 87.1489 77.4341 86.1764L77.3376 85.6736ZM64.9728 88.1312L64.8661 87.6304C61.7419 88.2962 59.2815 88.8344 57.4859 89.2448L57.6 89.744L57.7141 90.2431C59.5025 89.8343 61.9573 89.2973 65.0795 88.6319L64.9728 88.1312ZM57.6 89.744L57.4827 89.2456C55.7373 89.6563 54.41 90.0197 53.5128 90.3364L53.6832 90.8192L53.8536 91.302C54.6972 91.0042 55.9811 90.6509 57.7172 90.2424L57.6 89.744ZM53.6832 90.8192L53.5128 90.3364C52.6255 90.6495 51.899 90.97 51.3462 91.3017L51.6096 91.7408L51.873 92.1798C52.3442 91.8971 53.0001 91.6032 53.8536 91.302L53.6832 90.8192ZM51.072 73.0016L51.5687 72.8774C51.4087 72.2375 51.1457 71.4245 50.7844 70.4438L50.304 70.6208L49.8235 70.7978C50.179 71.7627 50.428 72.5368 50.5753 73.1257L51.072 73.0016ZM50.304 70.6208L50.7944 70.4736C50.4841 69.4392 50.1225 68.3547 49.71 67.2202L49.2288 67.3952L48.7476 67.5701C49.1543 68.6884 49.5095 69.7543 49.8136 70.7679L50.304 70.6208ZM49.2288 67.3952L49.71 67.2202C49.2971 66.085 48.9075 65.1229 48.5407 64.3371L48.0768 64.5536L47.6128 64.7701C47.9629 65.5202 48.3412 66.4526 48.7476 67.5701L49.2288 67.3952ZM48.0768 64.5536L48.201 65.0503C49.1325 64.8174 50.0044 64.2716 50.8196 63.4564L50.4576 63.0944L50.0955 62.7323C49.3747 63.4532 48.6594 63.8801 47.9526 64.0569L48.0768 64.5536ZM50.4576 63.0944L50.8196 63.4564C51.6218 62.6543 52.4378 61.5981 53.2696 60.2984L52.8384 60.0224L52.4071 59.7464C51.6006 61.0066 50.8294 61.9985 50.0955 62.7323L50.4576 63.0944ZM52.8384 60.0224L53.2644 60.3064C53.6845 59.6761 54.3064 58.6389 55.1261 57.2044L54.6816 56.9504L54.237 56.6963C53.4184 58.129 52.8114 59.1398 52.4124 59.7384L52.8384 60.0224ZM54.6816 56.9504L55.1261 57.2044C55.95 55.7626 56.8497 54.0916 57.825 52.1922L57.3696 51.9584L56.9141 51.7245C55.9439 53.6139 55.0516 55.2709 54.237 56.6963L54.6816 56.9504ZM57.3696 51.9584L57.8275 52.1873C58.8051 50.2322 59.7819 48.1242 60.758 45.8637L60.288 45.6608L59.8179 45.4578C58.8485 47.7029 57.8797 49.7933 56.9116 51.7294L57.3696 51.9584ZM60.288 45.6608L60.758 45.8637C61.7386 43.5929 62.5649 41.3208 63.2366 39.0474L62.7456 38.9024L62.2546 38.7573C61.595 40.9895 60.7829 43.223 59.8179 45.4578L60.288 45.6608ZM62.7456 38.9024L62.525 39.3644L71.0498 43.4348L71.2704 42.9728L71.491 42.5107L62.9662 38.4403L62.7456 38.9024ZM71.2704 42.9728L70.8002 42.7701C69.5272 45.7235 68.0497 48.7296 66.3674 51.7884L66.816 52.0352L67.2646 52.2819C68.9614 49.1968 70.4536 46.1613 71.7406 43.1754L71.2704 42.9728ZM66.816 52.0352L66.3659 51.7911C64.7352 54.7978 62.9772 57.7022 61.092 60.5046L61.5168 60.7904L61.9416 61.0762C63.8452 58.2465 65.62 55.3142 67.266 52.2793L66.816 52.0352ZM61.5168 60.7904L61.0884 60.51C59.2556 63.3101 57.4 65.8006 55.5223 67.9828L55.9104 68.3168L56.2985 68.6507C58.2095 66.4298 60.0916 63.9026 61.9452 61.0708L61.5168 60.7904ZM55.9104 68.3168H55.3984V68.624H55.9104H56.4224V68.3168H55.9104ZM55.9104 68.624C55.6264 68.198 55.6264 68.198 55.6264 68.198C55.6264 68.198 55.6264 68.198 55.6264 68.198C55.6264 68.198 55.6264 68.198 55.6263 68.198C55.6263 68.198 55.6263 68.198 55.6263 68.198C55.6263 68.198 55.6263 68.198 55.6262 68.1981C55.6262 68.1981 55.6262 68.1981 55.6261 68.1981C55.6261 68.1982 55.626 68.1982 55.626 68.1982C55.626 68.1982 55.6259 68.1983 55.6259 68.1983C55.6258 68.1984 55.6258 68.1983 55.6257 68.1984C55.6207 68.2017 55.6291 68.1962 55.6237 68.1998C55.6086 68.2098 55.6373 68.1906 55.6222 68.2008C55.6197 68.2024 55.6229 68.2003 55.6203 68.202C55.6186 68.2031 55.6177 68.2037 55.6156 68.2052C55.6039 68.213 55.6156 68.2052 55.6021 68.2142C55.5874 68.2239 55.5996 68.2158 55.5832 68.2268C55.568 68.2369 55.5759 68.2316 55.5589 68.243C55.5578 68.2437 55.5565 68.2445 55.5555 68.2452C55.5545 68.2459 55.5547 68.2457 55.5537 68.2464C55.5516 68.2478 55.554 68.2462 55.552 68.2476C55.547 68.2509 55.5498 68.249 55.5447 68.2524C55.5426 68.2538 55.5431 68.2535 55.5409 68.2549C55.5363 68.258 55.5417 68.2544 55.5371 68.2575C55.5361 68.2581 55.5342 68.2594 55.5332 68.2601C55.5323 68.2606 55.53 68.2622 55.5292 68.2628C55.4978 68.2837 55.5273 68.264 55.4941 68.2862C55.4838 68.293 55.4657 68.3051 55.4536 68.3132C55.4531 68.3135 55.4527 68.3138 55.4522 68.3141C55.4518 68.3144 55.4513 68.3147 55.4509 68.315C55.4504 68.3153 55.45 68.3156 55.4495 68.3159C55.449 68.3162 55.4486 68.3165 55.4481 68.3168C55.4397 68.3224 55.451 68.3149 55.4426 68.3205C55.4088 68.343 55.4652 68.3054 55.4313 68.328C55.429 68.3295 55.4307 68.3284 55.4284 68.3299C55.4279 68.3302 55.4275 68.3306 55.427 68.3309C55.4265 68.3312 55.426 68.3315 55.4255 68.3319C55.422 68.3342 55.4232 68.3334 55.4197 68.3358C55.4115 68.3412 55.4219 68.3343 55.4137 68.3397C55.3933 68.3534 55.4281 68.3301 55.4077 68.3438C55.388 68.3569 55.4029 68.347 55.3827 68.3604C55.3517 68.3811 55.3878 68.357 55.3564 68.378C55.3553 68.3787 55.354 68.3795 55.353 68.3802C55.3424 68.3873 55.3602 68.3754 55.3496 68.3825C55.3356 68.3918 55.3602 68.3754 55.3462 68.3848C55.345 68.3856 55.3439 68.3863 55.3427 68.3871C55.3386 68.3898 55.3433 68.3867 55.3392 68.3894C55.3383 68.39 55.3367 68.3911 55.3357 68.3917C55.3312 68.3947 55.3332 68.3934 55.3287 68.3964C55.3206 68.4018 55.3083 68.41 55.2997 68.4158C55.2645 68.4392 55.3049 68.4122 55.2693 68.436C55.2676 68.4371 55.2632 68.4401 55.2615 68.4412C55.2545 68.4459 55.2607 68.4418 55.2536 68.4465C55.2473 68.4507 55.252 68.4476 55.2456 68.4518C55.2411 68.4548 55.2462 68.4514 55.2416 68.4545C55.2404 68.4553 55.2388 68.4563 55.2376 68.4572C55.2372 68.4574 55.1722 68.5007 55.1701 68.5022C55.16 68.5089 55.1449 68.519 55.1343 68.526C55.1313 68.528 55.1282 68.5301 55.1251 68.5321C55.1232 68.5334 55.1179 68.537 55.1159 68.5383C55.1151 68.5388 55.1144 68.5393 55.1136 68.5398C55.1128 68.5403 55.112 68.5409 55.1113 68.5414C55.1105 68.5419 55.1097 68.5424 55.1089 68.5429C55.1081 68.5434 55.1074 68.544 55.1066 68.5445C55.1027 68.5471 55.1011 68.5482 55.0972 68.5508C55.0855 68.5585 55.0708 68.5683 55.0587 68.5764C55.0236 68.5998 55.0544 68.5792 55.0189 68.603C55.0168 68.6043 55.0159 68.605 55.0138 68.6063C55.013 68.6069 55.0121 68.6075 55.0113 68.608C55.0104 68.6086 55.0096 68.6092 55.0087 68.6097C55.0079 68.6103 55.007 68.6109 55.0062 68.6114C55.0053 68.612 55.0044 68.6126 55.0036 68.6131C55.0027 68.6137 55.0019 68.6143 55.001 68.6149C55.0002 68.6154 54.9993 68.616 54.9985 68.6166C54.9953 68.6187 54.9913 68.6213 54.9881 68.6235C54.9873 68.624 54.9864 68.6246 54.9855 68.6252C54.9847 68.6258 54.9838 68.6264 54.9829 68.6269C54.9634 68.6399 54.9972 68.6174 54.9777 68.6304C54.9684 68.6366 54.9766 68.6312 54.9672 68.6374C54.9568 68.6444 54.9671 68.6375 54.9566 68.6445C54.9557 68.6451 54.9548 68.6457 54.9539 68.6462C54.9531 68.6468 54.9522 68.6474 54.9513 68.648C54.9485 68.6499 54.9487 68.6497 54.9459 68.6516C54.945 68.6522 54.9441 68.6528 54.9432 68.6534C54.9424 68.654 54.9415 68.6546 54.9406 68.6552C54.9373 68.6573 54.9384 68.6566 54.9352 68.6588L55.2192 69.0848L55.5032 69.5108C55.5162 69.5021 55.501 69.5122 55.5139 69.5036C55.54 69.4862 55.4986 69.5139 55.5246 69.4965C55.5377 69.4878 55.5169 69.5017 55.5299 69.493C55.5308 69.4924 55.5317 69.4918 55.5326 69.4912C55.5334 69.4906 55.5343 69.49 55.5352 69.4894C55.5446 69.4832 55.5364 69.4887 55.5457 69.4824C55.5648 69.4697 55.5371 69.4882 55.5561 69.4755C55.5613 69.472 55.5613 69.472 55.5665 69.4686C55.5792 69.4601 55.5589 69.4737 55.5716 69.4652C55.578 69.4609 55.5703 69.466 55.5767 69.4618C55.5972 69.4481 55.5665 69.4686 55.5869 69.455C55.5918 69.4517 55.6223 69.4314 55.6267 69.4284C55.6537 69.4104 55.6386 69.4205 55.6652 69.4028C55.669 69.4003 55.7361 69.3555 55.7381 69.3542C55.7731 69.3308 55.7118 69.3717 55.7468 69.3484C55.7487 69.3471 55.7536 69.3438 55.7555 69.3426C55.7577 69.3411 55.7619 69.3383 55.764 69.3369C55.7707 69.3324 55.7658 69.3357 55.7725 69.3312C55.775 69.3295 55.7868 69.3217 55.7892 69.3201C55.7986 69.3138 55.7963 69.3154 55.8056 69.3092C55.8164 69.302 55.8587 69.2738 55.8677 69.2678C55.8798 69.2597 55.8851 69.2562 55.8967 69.2484C55.9082 69.2407 55.9133 69.2374 55.9244 69.23C55.93 69.2262 55.9322 69.2248 55.9377 69.2211C55.9449 69.2163 55.9338 69.2237 55.941 69.2189C55.948 69.2142 55.9373 69.2214 55.9443 69.2167C55.9499 69.2129 55.9451 69.2162 55.9507 69.2124C55.9855 69.1892 55.9413 69.2187 55.9757 69.1958C56.0063 69.1754 55.9928 69.1844 56.0216 69.1652C56.0337 69.1571 56.0518 69.145 56.0621 69.1382C56.0662 69.1354 56.0766 69.1285 56.0803 69.126C56.0834 69.124 56.0816 69.1251 56.0847 69.1231C56.0851 69.1228 56.0863 69.122 56.0868 69.1217C56.0879 69.121 56.0879 69.121 56.0889 69.1203C56.095 69.1162 56.0912 69.1188 56.0972 69.1148C56.1293 69.0934 56.0966 69.1152 56.1269 69.095C56.127 69.0949 56.1334 69.0906 56.1335 69.0906C56.1346 69.0898 56.1387 69.0871 56.1397 69.0864C56.1717 69.0651 56.1197 69.0998 56.1512 69.0788C56.1718 69.0651 56.1513 69.0787 56.1701 69.0662C56.1872 69.0548 56.1683 69.0674 56.1836 69.0572C56.1896 69.0532 56.1875 69.0546 56.1917 69.0518C56.2019 69.045 56.184 69.0569 56.1937 69.0504C56.1938 69.0504 56.1939 69.0503 56.194 69.0502C56.1943 69.0501 56.194 69.0502 56.1942 69.0501C56.1942 69.0501 56.1943 69.05 56.1943 69.05C56.1944 69.05 56.1944 69.05 56.1944 69.05C56.1944 69.05 56.1944 69.05 56.1944 69.05C56.1944 69.05 56.1944 69.05 55.9104 68.624ZM55.2192 69.0848L54.9352 68.6588C54.471 68.9682 53.9052 69.354 53.2381 69.8158L53.5296 70.2368L53.821 70.6577C54.4852 70.1979 55.0457 69.8158 55.5032 69.5108L55.2192 69.0848ZM53.5296 70.2368L53.2612 69.8007C52.5643 70.2296 51.9435 70.7148 51.4011 71.2571L51.7632 71.6192L52.1252 71.9812C52.6068 71.4996 53.1637 71.0631 53.7979 70.6728L53.5296 70.2368ZM51.7632 71.6192L51.3826 71.2767C50.8907 71.8232 50.56 72.4035 50.56 73.0016H51.072H51.584C51.584 72.7804 51.714 72.4391 52.1437 71.9617L51.7632 71.6192ZM51.072 73.0016L51.5836 72.9831L51.3532 66.6087L50.8416 66.6272L50.3299 66.6457L50.5603 73.0201L51.072 73.0016ZM50.8416 66.6272L51.1256 67.0532L54.812 64.5956L54.528 64.1696L54.244 63.7436L50.5576 66.2012L50.8416 66.6272ZM54.528 64.1696L54.5672 64.6801L67.5464 63.6817L67.5072 63.1712L67.4679 62.6607L54.4887 63.6591L54.528 64.1696ZM67.5072 63.1712L67.0034 63.0796C66.7959 64.2209 66.6151 65.5136 66.4605 66.9566L66.9696 67.0112L67.4787 67.0657C67.6313 65.6415 67.8088 64.3742 68.0109 63.2628L67.5072 63.1712ZM66.9696 67.0112L66.4607 66.9546C66.3066 68.3413 66.2032 69.4775 66.1513 70.3603L66.6624 70.3904L67.1735 70.4204C67.224 69.5625 67.3253 68.4458 67.4784 67.0677L66.9696 67.0112ZM66.6624 70.3904L66.6 69.8822C63.6805 70.2407 61.2718 70.5482 59.3746 70.8046L59.4432 71.312L59.5117 71.8194C61.4033 71.5637 63.8075 71.2568 66.7248 70.8985L66.6624 70.3904ZM59.4432 71.312L59.3866 70.8031C57.5379 71.0085 56.0401 71.2148 54.8972 71.4226L54.9888 71.9264L55.0804 72.4301C56.1903 72.2283 57.662 72.025 59.4997 71.8208L59.4432 71.312ZM54.9888 71.9264L54.9164 71.4195C53.8282 71.575 52.949 71.7594 52.2925 71.9782L52.4544 72.464L52.6163 72.9497C53.1886 72.7589 53.999 72.585 55.0612 72.4332L54.9888 71.9264ZM52.4544 72.464L52.3197 71.97C51.7305 72.1307 51.2258 72.324 50.818 72.557L51.072 73.0016L51.326 73.4461C51.635 73.2696 52.0519 73.1044 52.5891 72.9579L52.4544 72.464ZM48.9216 99.4976L49.022 99.9996C51.3239 99.5392 53.959 99.0276 56.9274 98.4646L56.832 97.9616L56.7366 97.4585C53.7658 98.022 51.1272 98.5343 48.8212 98.9955L48.9216 99.4976ZM56.832 97.9616L56.9357 98.463C59.9068 97.8482 63.057 97.1824 66.3862 96.4653L66.2784 95.9648L66.1706 95.4642C62.8438 96.1808 59.6963 96.8461 56.7282 97.4602L56.832 97.9616ZM66.2784 95.9648L66.3862 96.4653C66.3933 96.4638 66.4571 96.45 66.4642 96.4485C66.4713 96.447 66.5351 96.4332 66.5422 96.4317C66.5493 96.4302 66.6131 96.4164 66.6202 96.4149C66.6273 96.4134 66.6911 96.3996 66.6982 96.3981C66.7053 96.3966 66.7691 96.3828 66.7762 96.3813C66.7833 96.3798 66.8471 96.366 66.8542 96.3645C66.8613 96.363 66.9251 96.3492 66.9322 96.3477C66.9393 96.3462 67.0031 96.3324 67.0102 96.3309C67.0173 96.3294 67.0811 96.3156 67.0882 96.3141C67.0953 96.3126 67.1591 96.2988 67.1662 96.2973C67.1733 96.2958 67.2371 96.282 67.2442 96.2805C67.2513 96.279 67.3151 96.2652 67.3222 96.2637C67.3293 96.2622 67.3931 96.2484 67.4002 96.2469C67.4073 96.2454 67.4711 96.2316 67.4782 96.2301C67.4853 96.2286 67.5491 96.2148 67.5562 96.2133C67.5633 96.2118 67.6271 96.198 67.6342 96.1965C67.6413 96.195 67.7051 96.1812 67.7122 96.1797C67.7401 96.1737 67.7622 96.1689 67.7902 96.1629C67.7973 96.1614 67.8611 96.1476 67.8682 96.1461C67.8753 96.1446 67.9391 96.1308 67.9462 96.1293C67.9533 96.1278 68.0171 96.114 68.0242 96.1125C68.0521 96.1065 68.0742 96.1017 68.1022 96.0957C68.1093 96.0942 68.1731 96.0804 68.1802 96.0789C68.1873 96.0774 68.2511 96.0636 68.2582 96.0621C68.2653 96.0606 68.3291 96.0468 68.3362 96.0453C68.3641 96.0393 68.3862 96.0345 68.4142 96.0285C68.4213 96.027 68.4851 96.0132 68.4922 96.0117C68.4993 96.0102 68.5631 95.9964 68.5702 95.9949C68.5773 95.9934 68.6411 95.9796 68.6482 95.9781C68.6761 95.9721 68.6982 95.9673 68.7262 95.9613C68.7333 95.9598 68.7971 95.946 68.8042 95.9445C68.8113 95.943 68.8751 95.9292 68.8822 95.9277C68.8893 95.9262 68.9531 95.9124 68.9602 95.9109C68.9881 95.9049 69.0102 95.9001 69.0382 95.8941C69.0453 95.8926 69.1091 95.8788 69.1162 95.8773C69.1233 95.8758 69.1871 95.862 69.1942 95.8605C69.2013 95.859 69.2651 95.8452 69.2722 95.8437C69.3001 95.8377 69.3222 95.8329 69.3502 95.8269C69.3573 95.8254 69.4211 95.8116 69.4282 95.8101C69.4353 95.8086 69.4991 95.7948 69.5062 95.7933C69.5133 95.7918 69.5771 95.778 69.5842 95.7765C69.6121 95.7705 69.6342 95.7657 69.6622 95.7597C69.6693 95.7582 69.7331 95.7444 69.7402 95.7429C69.7473 95.7414 69.8111 95.7276 69.8182 95.7261C69.8253 95.7246 69.8891 95.7108 69.8962 95.7093C69.9241 95.7033 69.9462 95.6985 69.9742 95.6925C69.9813 95.691 70.0451 95.6772 70.0522 95.6757C70.0593 95.6742 70.1231 95.6604 70.1302 95.6589C70.1373 95.6574 70.2011 95.6436 70.2082 95.6421C70.2361 95.6361 70.2582 95.6313 70.2862 95.6253C70.2933 95.6238 70.3571 95.61 70.3642 95.6085C70.3713 95.607 70.4351 95.5932 70.4422 95.5917C70.4493 95.5902 70.5131 95.5764 70.5202 95.5749C70.5481 95.5689 70.5702 95.5641 70.5982 95.5581C70.6053 95.5566 70.6691 95.5428 70.6762 95.5413C70.6833 95.5398 70.7471 95.526 70.7542 95.5245C70.7613 95.523 70.8251 95.5092 70.8322 95.5077C70.8601 95.5017 70.8822 95.4969 70.9102 95.4909C70.9173 95.4894 70.9811 95.4756 70.9882 95.4741C70.9953 95.4726 71.0591 95.4588 71.0662 95.4573C71.0733 95.4558 71.1371 95.442 71.1442 95.4405C71.1721 95.4345 71.1942 95.4297 71.2222 95.4237C71.2293 95.4222 71.2931 95.4084 71.3002 95.4069C71.3073 95.4054 71.3711 95.3916 71.3782 95.3901C71.7992 95.2994 72.2052 95.212 72.6262 95.1213C73.0472 95.0306 73.4532 94.9432 73.8742 94.8525C74.2952 94.7618 74.7012 94.6744 75.1222 94.5837C75.5432 94.493 75.9492 94.4056 76.3702 94.3149L76.2624 93.8144L76.1546 93.3138C76.0155 93.3438 75.9816 93.3511 75.8426 93.3811C75.7035 93.411 75.6696 93.4183 75.5306 93.4482C75.3915 93.4782 75.3576 93.4855 75.2186 93.5154C75.0795 93.5454 75.0456 93.5527 74.9066 93.5826C74.7675 93.6126 74.7336 93.6199 74.5946 93.6498C74.4555 93.6798 74.4216 93.6871 74.2826 93.717C74.1435 93.747 74.1096 93.7543 73.9706 93.7842C73.8315 93.8142 73.7976 93.8215 73.6586 93.8514C73.5195 93.8814 73.4856 93.8887 73.3466 93.9186C73.2075 93.9486 73.1736 93.9559 73.0346 93.9858C72.8955 94.0158 72.8616 94.0231 72.7226 94.053C72.5835 94.083 72.5496 94.0903 72.4106 94.1202C72.2715 94.1502 72.2376 94.1575 72.0986 94.1874C71.9595 94.2174 71.9256 94.2247 71.7866 94.2546C71.6475 94.2846 71.6136 94.2919 71.4746 94.3218C71.3355 94.3518 71.3016 94.3591 71.1626 94.389C71.1208 94.398 71.0483 94.4137 71.0066 94.4226C70.9648 94.4316 70.8923 94.4473 70.8506 94.4562C70.8088 94.4652 70.7363 94.4809 70.6946 94.4898C70.6528 94.4988 70.5803 94.5145 70.5386 94.5234C70.4968 94.5324 70.4243 94.5481 70.3826 94.557C70.3408 94.566 70.2683 94.5817 70.2266 94.5906C70.1848 94.5996 70.1123 94.6153 70.0706 94.6242C70.0288 94.6332 69.9563 94.6489 69.9146 94.6578C69.8728 94.6668 69.8003 94.6825 69.7586 94.6914C69.7168 94.7004 69.6443 94.7161 69.6026 94.7251C69.5608 94.734 69.4883 94.7497 69.4466 94.7587C69.4048 94.7676 69.3323 94.7833 69.2906 94.7923C69.2488 94.8012 69.1763 94.8169 69.1346 94.8259C69.0928 94.8348 69.0203 94.8505 68.9786 94.8595C68.9368 94.8684 68.8643 94.8841 68.8226 94.8931C68.7808 94.902 68.7083 94.9177 68.6666 94.9267C68.6248 94.9356 68.5523 94.9513 68.5106 94.9603C68.4688 94.9692 68.3963 94.9849 68.3546 94.9939C68.3128 95.0028 68.2403 95.0185 68.1986 95.0275C68.1568 95.0364 68.0843 95.0521 68.0426 95.0611C68.0008 95.07 67.9283 95.0857 67.8866 95.0947C67.8448 95.1036 67.7723 95.1193 67.7306 95.1283C67.6888 95.1372 67.6163 95.1529 67.5746 95.1618C67.5328 95.1708 67.4603 95.1865 67.4186 95.1954C67.3768 95.2044 67.3043 95.2201 67.2626 95.229C67.2208 95.238 67.1483 95.2537 67.1066 95.2626C67.0648 95.2716 66.9923 95.2873 66.9506 95.2962C66.9088 95.3052 66.8363 95.3209 66.7946 95.3298C66.7528 95.3388 66.6803 95.3545 66.6386 95.3634C66.5968 95.3724 66.5243 95.3881 66.4826 95.397C66.4408 95.406 66.3683 95.4217 66.3266 95.4306C66.2848 95.4396 66.2123 95.4553 66.1706 95.4642L66.2784 95.9648ZM76.2624 93.8144L75.7534 93.8698L76.5982 101.627L77.1072 101.571L77.6162 101.516L76.7714 93.7589L76.2624 93.8144ZM77.1072 101.571L76.9753 101.076C72.3694 102.305 67.738 103.507 63.0809 104.684L63.2064 105.181L63.3318 105.677C67.9932 104.499 72.6289 103.295 77.2391 102.066L77.1072 101.571ZM63.2064 105.181L63.0809 104.684C58.4212 105.862 54.1966 106.937 50.407 107.91L50.5344 108.406L50.6617 108.902C54.4498 107.93 58.6731 106.855 63.3318 105.677L63.2064 105.181ZM50.5344 108.406L51.0382 108.315L49.4254 99.4064L48.9216 99.4976L48.4178 99.5888L50.0306 108.498L50.5344 108.406ZM97.8432 49.5008V50.0128H106.982V49.5008V48.9888H97.8432V49.5008ZM106.982 49.5008L106.47 49.491C106.368 54.8717 106.342 60.1247 106.394 65.2499L106.906 65.2448L107.418 65.2397C107.366 60.1248 107.392 54.8818 107.494 49.5105L106.982 49.5008ZM106.906 65.2448L106.394 65.2551C106.496 70.3294 106.676 75.0974 106.932 79.5589L107.443 79.5296L107.954 79.5002C107.699 75.0529 107.52 70.2977 107.417 65.2344L106.906 65.2448ZM107.443 79.5296L106.932 79.5652C107.24 83.9766 107.625 87.8542 108.088 91.1966L108.595 91.1264L109.102 91.0561C108.644 87.7425 108.261 83.8889 107.954 79.4939L107.443 79.5296ZM108.595 91.1264L108.089 91.2042C108.603 94.5436 109.171 97.1856 109.798 99.1179L110.285 98.96L110.772 98.802C110.17 96.9455 109.611 94.3652 109.101 91.0485L108.595 91.1264ZM110.285 98.96L109.798 99.1179C110.112 100.086 110.458 100.856 110.85 101.393C111.24 101.927 111.739 102.314 112.358 102.314V101.802V101.29C112.21 101.29 111.979 101.203 111.678 100.789C111.379 100.38 111.072 99.7284 110.772 98.802L110.285 98.96ZM112.358 101.802V102.314C112.668 102.314 112.916 102.16 113.095 101.966C113.267 101.779 113.399 101.532 113.507 101.26C113.722 100.714 113.888 99.9348 114.018 98.95L113.51 98.8832L113.003 98.8164C112.876 99.7771 112.723 100.457 112.554 100.884C112.469 101.099 112.394 101.216 112.342 101.272C112.297 101.321 112.304 101.29 112.358 101.29V101.802ZM113.51 98.8832L114.018 98.95C114.278 96.9733 114.432 94.0045 114.483 90.0578L113.971 90.0512L113.459 90.0445C113.408 93.9826 113.255 96.9019 113.003 98.8164L113.51 98.8832ZM113.971 90.0512L113.609 90.4132C114.61 91.4144 115.791 92.3577 117.147 93.2445L117.427 92.816L117.707 92.3874C116.401 91.5334 115.278 90.6335 114.333 89.6891L113.971 90.0512ZM117.427 92.816L117.154 93.2492C118.557 94.1321 119.866 94.8142 121.081 95.2896L121.267 94.8128L121.454 94.336C120.313 93.8898 119.063 93.2406 117.7 92.3827L117.427 92.816ZM121.267 94.8128L120.757 94.7697C120.4 99.0028 119.816 102.229 119.018 104.472L119.501 104.643L119.983 104.815C120.824 102.45 121.418 99.1219 121.777 94.8558L121.267 94.8128ZM119.501 104.643L119.015 104.481C118.265 106.731 117.267 108.195 116.072 108.976L116.352 109.405L116.632 109.833C118.099 108.874 119.2 107.164 119.987 104.805L119.501 104.643ZM116.352 109.405L116.053 108.989C114.881 109.833 113.355 110.275 111.437 110.275V110.787V111.299C113.512 111.299 115.263 110.82 116.651 109.82L116.352 109.405ZM111.437 110.787V110.275C109.222 110.275 107.343 109.251 105.784 107.107L105.37 107.408L104.956 107.709C106.673 110.071 108.839 111.299 111.437 111.299V110.787ZM105.37 107.408L105.788 107.113C104.251 104.931 102.991 101.9 102.027 97.9925L101.53 98.1152L101.032 98.2378C102.014 102.215 103.314 105.38 104.951 107.703L105.37 107.408ZM101.53 98.1152L102.027 97.9925C101.061 94.0774 100.296 89.5438 99.7346 84.3893L99.2256 84.4448L98.7166 84.5002C99.2816 89.6881 100.053 94.2682 101.032 98.2378L101.53 98.1152ZM99.2256 84.4448L99.7351 84.3943C99.2243 79.2354 98.8666 73.6913 98.6621 67.7615L98.1504 67.7792L97.6387 67.7968C97.8438 73.7454 98.2029 79.3117 98.7161 84.4952L99.2256 84.4448ZM98.1504 67.7792L98.6622 67.766C98.5087 61.7787 98.4063 55.6889 98.3552 49.4965L97.8432 49.5008L97.3312 49.505C97.3824 55.7031 97.4849 61.7988 97.6386 67.7923L98.1504 67.7792ZM85.248 68.7008V69.2128H119.424V68.7008V68.1888H85.248V68.7008ZM119.424 68.7008H118.912V77.2256H119.424H119.936V68.7008H119.424ZM119.424 77.2256V76.7136H85.248V77.2256V77.7376H119.424V77.2256ZM85.248 77.2256H85.76V68.7008H85.248H84.736V77.2256H85.248ZM112.435 40.1312L112.044 40.4621L118.419 47.9885L118.81 47.6576L119.2 47.3267L112.826 39.8003L112.435 40.1312ZM118.81 47.6576L118.667 47.1658C115.148 48.1857 111.321 49.1299 107.184 49.9981L107.29 50.4992L107.395 51.0002C111.553 50.1276 115.405 49.1774 118.952 48.1493L118.81 47.6576ZM107.29 50.4992L107.19 49.9969C103.05 50.8147 98.8333 51.5558 94.5393 52.2204L94.6176 52.7264L94.6959 53.2323C99.0035 52.5657 103.234 51.8221 107.389 51.0015L107.29 50.4992ZM94.6176 52.7264L94.5393 52.2204C90.2448 52.885 86.0788 53.4473 82.0412 53.9073L82.0992 54.416L82.1571 54.9247C86.2092 54.4631 90.3888 53.8989 94.6959 53.2323L94.6176 52.7264ZM82.0992 54.416L82.6055 54.34C82.4442 53.2643 82.0717 51.9962 81.5005 50.5424L81.024 50.7296L80.5474 50.9168C81.1027 52.3301 81.447 53.5196 81.5928 54.4919L82.0992 54.416ZM81.024 50.7296L81.508 50.5627C80.9924 49.0673 80.4991 47.8196 80.0275 46.824L79.5648 47.0432L79.1021 47.2623C79.5521 48.2124 80.0316 49.4222 80.54 50.8965L81.024 50.7296ZM79.5648 47.0432L79.6316 47.5508C83.5309 47.0377 87.4812 46.4221 91.4824 45.7039L91.392 45.2L91.3015 44.696C87.3155 45.4115 83.381 46.0246 79.498 46.5355L79.5648 47.0432ZM91.392 45.2L91.4887 45.7028C95.4892 44.9334 99.3111 44.1126 102.954 43.2403L102.835 42.7424L102.716 42.2444C99.0889 43.1129 95.282 43.9305 91.2953 44.6972L91.392 45.2ZM102.835 42.7424L102.954 43.2403C106.598 42.3679 109.81 41.4944 112.589 40.6195L112.435 40.1312L112.281 39.6428C109.531 40.5088 106.343 41.3761 102.716 42.2444L102.835 42.7424ZM80.256 112.093L80.7633 112.024L79.6881 104.113L79.1808 104.182L78.6734 104.251L79.7486 112.162L80.256 112.093ZM79.1808 104.182L79.5147 104.57L82.8171 101.729L82.4832 101.341L82.1492 100.953L78.8468 103.794L79.1808 104.182ZM82.4832 101.341L82.6301 101.831L99.2957 96.8392L99.1488 96.3488L99.0019 95.8583L82.3363 100.85L82.4832 101.341ZM99.1488 96.3488L98.6372 96.3701C98.6892 97.6178 98.8189 99.016 99.0253 100.564L99.5328 100.496L100.04 100.428C99.837 98.9039 99.7108 97.5374 99.6603 96.3275L99.1488 96.3488ZM99.5328 100.496L99.0253 100.564C99.2309 102.106 99.4377 103.374 99.6462 104.365L100.147 104.259L100.648 104.154C100.447 103.198 100.244 101.958 100.04 100.428L99.5328 100.496ZM100.147 104.259L99.9795 103.775C96.1399 105.106 93.0177 106.181 90.6126 107L90.7776 107.485L90.9426 107.969C93.3503 107.15 96.4744 106.074 100.315 104.743L100.147 104.259ZM90.7776 107.485L90.6034 107.003C88.1945 107.875 86.2928 108.594 84.9012 109.161L85.0944 109.635L85.2876 110.109C86.6608 109.55 88.5479 108.836 90.9517 107.966L90.7776 107.485ZM85.0944 109.635L84.9012 109.161C83.5151 109.726 82.4511 110.192 81.7166 110.56L81.9456 111.018L82.1746 111.476C82.8736 111.126 83.9089 110.671 85.2876 110.109L85.0944 109.635ZM81.9456 111.018L81.6916 110.573C80.966 110.988 80.3824 111.358 79.9488 111.683L80.256 112.093L80.5632 112.502C80.9487 112.213 81.4916 111.867 82.1996 111.462L81.9456 111.018ZM80.256 112.093L80.7453 111.942C80.5293 111.24 80.1836 110.419 79.7155 109.483L79.2576 109.712L78.7996 109.941C79.2532 110.848 79.573 111.614 79.7666 112.243L80.256 112.093ZM79.2576 109.712L79.7101 109.472C79.24 108.584 78.7177 107.723 78.1435 106.888L77.7216 107.178L77.2997 107.468C77.8518 108.271 78.3536 109.099 78.8051 109.952L79.2576 109.712ZM77.7216 107.178L78.1558 106.906C77.636 106.075 77.158 105.408 76.7219 104.917L76.3392 105.258L75.9565 105.598C76.3395 106.029 76.7831 106.642 77.2874 107.449L77.7216 107.178ZM76.3392 105.258L76.642 105.67C77.4772 105.058 78.2355 104.183 78.9249 103.069L78.4896 102.8L78.0542 102.53C77.4125 103.567 76.7372 104.331 76.0364 104.845L76.3392 105.258ZM78.4896 102.8L78.9215 103.075C79.7043 101.845 80.0768 100.308 80.0768 98.4992H79.5648H79.0528C79.0528 100.172 78.7085 101.502 78.0576 102.525L78.4896 102.8ZM79.5648 98.4992H80.0768V47.0432H79.5648H79.0528V98.4992H79.5648ZM79.5648 47.0432V47.5552H88.2432V47.0432V46.5312H79.5648V47.0432ZM88.2432 47.0432H87.7312V103.798H88.2432H88.7552V47.0432H88.2432ZM88.2432 103.798C87.9531 103.376 87.9531 103.376 87.9531 103.376C87.9531 103.376 87.9531 103.376 87.9531 103.376C87.9531 103.376 87.9531 103.376 87.9531 103.376C87.9531 103.376 87.9531 103.377 87.953 103.377C87.953 103.377 87.953 103.377 87.953 103.377C87.953 103.377 87.953 103.377 87.9529 103.377C87.9529 103.377 87.9529 103.377 87.9529 103.377C87.9529 103.377 87.9528 103.377 87.9528 103.377C87.9496 103.379 87.9559 103.375 87.9527 103.377C87.9524 103.377 87.9527 103.377 87.9524 103.377C87.9518 103.377 87.9526 103.377 87.9519 103.377C87.9497 103.379 87.9528 103.377 87.9504 103.378C87.9486 103.38 87.9503 103.378 87.9483 103.38C87.9476 103.38 87.9439 103.383 87.9423 103.384C87.9367 103.388 87.9442 103.383 87.9384 103.387C87.9376 103.387 87.935 103.389 87.9339 103.39C87.9257 103.395 87.8974 103.415 87.8763 103.429C87.8346 103.458 87.8348 103.458 87.7803 103.495C87.7632 103.507 87.783 103.493 87.7656 103.505C87.7626 103.507 87.7535 103.514 87.7503 103.516C87.7421 103.522 87.7429 103.521 87.7344 103.527C87.7307 103.529 87.7341 103.527 87.7304 103.53C87.7297 103.53 87.729 103.531 87.7283 103.531C87.7276 103.531 87.7269 103.532 87.7262 103.532C87.7259 103.533 87.7183 103.538 87.7179 103.538C87.7104 103.543 87.717 103.539 87.7094 103.544C87.7087 103.544 87.708 103.545 87.7073 103.545C87.7066 103.546 87.7059 103.546 87.7052 103.547C87.7044 103.547 87.7037 103.548 87.703 103.548C87.7023 103.549 87.7015 103.549 87.7008 103.55C87.689 103.558 87.6952 103.554 87.6831 103.562C87.6818 103.563 87.6664 103.574 87.6648 103.575C87.6605 103.578 87.6505 103.585 87.6459 103.588C87.5692 103.64 87.5626 103.645 87.4731 103.706C87.4525 103.721 87.3962 103.759 87.3723 103.776C87.3586 103.785 87.2789 103.84 87.2619 103.852C87.2569 103.855 87.2381 103.868 87.2328 103.872C87.2265 103.876 87.2244 103.877 87.218 103.882C87.2168 103.883 87.2156 103.884 87.2143 103.884C87.2131 103.885 87.2118 103.886 87.2106 103.887C87.2094 103.888 87.2081 103.889 87.2069 103.89C87.2056 103.89 87.2044 103.891 87.2031 103.892C87.1803 103.908 87.1958 103.897 87.1728 103.913C87.1513 103.928 87.1636 103.919 87.1419 103.934C87.1206 103.949 87.1319 103.941 87.1104 103.956C87.1048 103.96 87.1081 103.957 87.1025 103.961C87.1019 103.962 87.095 103.966 87.0944 103.967C87.0678 103.985 87.105 103.96 87.0783 103.978C87.0744 103.981 87.0497 103.998 87.0456 104C87.0442 104.001 87.0429 104.002 87.0415 104.003C87.0401 104.004 87.0387 104.005 87.0374 104.006C87.036 104.007 87.0346 104.008 87.0332 104.009C87.0318 104.01 87.0304 104.011 87.029 104.012C87.0257 104.014 87.024 104.015 87.0207 104.018C86.9928 104.037 87.0402 104.004 87.0123 104.023C86.9669 104.055 86.9218 104.086 86.8731 104.119C86.8299 104.149 86.8439 104.139 86.7999 104.169C86.7787 104.184 86.7838 104.18 86.7624 104.195C86.7586 104.198 86.7473 104.205 86.7434 104.208C86.7276 104.219 86.7402 104.21 86.7243 104.221L87.0144 104.643L87.3044 105.065C87.3174 105.056 87.3298 105.048 87.3425 105.039C87.3462 105.036 87.3765 105.016 87.38 105.013C87.391 105.006 87.4062 104.995 87.4169 104.988C87.4234 104.983 87.4287 104.98 87.4352 104.975C87.4424 104.97 87.4461 104.968 87.4532 104.963C87.4547 104.962 87.4562 104.961 87.4577 104.96C87.4592 104.959 87.4607 104.958 87.4622 104.957C87.4734 104.949 87.46 104.958 87.4712 104.95C87.4849 104.941 87.4753 104.948 87.4889 104.938C87.4935 104.935 87.5021 104.929 87.5066 104.926C87.5113 104.923 87.5193 104.917 87.524 104.914C87.5571 104.891 87.4996 104.931 87.5327 104.908C87.5342 104.907 87.5356 104.906 87.5371 104.905C87.5385 104.904 87.5399 104.903 87.5414 104.902C87.5649 104.886 87.5351 104.907 87.5585 104.89C87.5852 104.872 87.5489 104.897 87.5756 104.879C87.6108 104.854 87.5573 104.891 87.5924 104.867C87.6091 104.856 87.5926 104.867 87.6092 104.856C87.6318 104.84 87.6031 104.86 87.6257 104.844C87.6473 104.829 87.6206 104.848 87.6422 104.833C87.6637 104.818 87.637 104.836 87.6584 104.822C87.6888 104.801 87.6925 104.798 87.722 104.778C87.7244 104.776 87.7352 104.769 87.7376 104.767C87.7389 104.766 87.7401 104.766 87.7414 104.765C87.7427 104.764 87.744 104.763 87.7453 104.762C87.7601 104.752 87.7382 104.767 87.7529 104.757C87.7542 104.756 87.7555 104.755 87.7568 104.754C87.758 104.753 87.7593 104.752 87.7606 104.751C87.7618 104.751 87.7631 104.75 87.7644 104.749C87.7656 104.748 87.7669 104.747 87.7682 104.746C87.789 104.732 87.7624 104.75 87.7832 104.736C87.7957 104.727 87.7857 104.734 87.7982 104.726C87.7994 104.725 87.8006 104.724 87.8019 104.723C87.8031 104.722 87.8043 104.721 87.8056 104.721C87.8075 104.719 87.811 104.717 87.8129 104.715C87.8142 104.715 87.8154 104.714 87.8166 104.713C87.8178 104.712 87.8191 104.711 87.8203 104.71C87.8215 104.71 87.8227 104.709 87.8239 104.708C87.8251 104.707 87.8264 104.706 87.8276 104.705C87.8594 104.684 87.8102 104.717 87.842 104.695C87.8964 104.658 87.9013 104.655 87.9524 104.62C87.9706 104.607 87.9867 104.596 88.004 104.584C88.0135 104.578 88.0196 104.573 88.0289 104.567C88.0529 104.551 88.0295 104.567 88.0532 104.55C88.0629 104.544 88.0556 104.549 88.0652 104.542C88.0868 104.527 88.0495 104.553 88.0711 104.538C88.08 104.532 88.068 104.54 88.0769 104.534C88.0993 104.519 88.0779 104.533 88.1 104.518C88.1228 104.502 88.083 104.53 88.1057 104.514C88.1151 104.508 88.102 104.517 88.1114 104.51C88.1225 104.503 88.1115 104.51 88.1225 104.503C88.1333 104.495 88.1229 104.502 88.1336 104.495C88.1345 104.494 88.1354 104.494 88.1363 104.493C88.1372 104.493 88.1381 104.492 88.139 104.491C88.1395 104.491 88.144 104.488 88.1444 104.488C88.1637 104.474 88.168 104.471 88.1864 104.459C88.1934 104.454 88.1998 104.45 88.2065 104.445C88.231 104.428 88.2017 104.448 88.226 104.431C88.3407 104.353 88.393 104.317 88.4564 104.273C88.4781 104.258 88.4372 104.286 88.4588 104.271C88.4592 104.271 88.4596 104.271 88.46 104.271C88.4604 104.27 88.4608 104.27 88.4612 104.27C88.4633 104.268 88.4636 104.268 88.4657 104.267C88.4671 104.266 88.4733 104.262 88.4744 104.261C88.482 104.256 88.4833 104.255 88.49 104.25C88.5133 104.234 88.494 104.247 88.514 104.233C88.5445 104.213 88.4928 104.248 88.5224 104.228C88.5308 104.222 88.5209 104.229 88.5284 104.224C88.5304 104.222 88.5288 104.223 88.5305 104.222C88.5306 104.222 88.5307 104.222 88.5308 104.222C88.5308 104.222 88.5309 104.222 88.531 104.222C88.531 104.222 88.5311 104.222 88.5312 104.222C88.5312 104.222 88.5313 104.222 88.5314 104.222C88.5319 104.221 88.5316 104.221 88.532 104.221C88.533 104.22 88.5322 104.221 88.5329 104.22C88.5331 104.22 88.5331 104.22 88.5332 104.22C88.5332 104.22 88.5332 104.22 88.5332 104.22C88.5332 104.22 88.5332 104.22 88.5332 104.22C88.5332 104.22 88.5332 104.22 88.5332 104.22C88.5332 104.22 88.5332 104.22 88.2432 103.798ZM87.0144 104.643L86.7243 104.221C85.8868 104.797 84.951 105.525 83.918 106.403L84.2496 106.794L84.5812 107.184C85.5962 106.321 86.5036 105.616 87.3044 105.065L87.0144 104.643ZM84.2496 106.794L83.918 106.403C82.8774 107.288 81.9385 108.2 81.1021 109.141L81.4848 109.482L81.8675 109.822C82.6695 108.919 83.5737 108.04 84.5812 107.184L84.2496 106.794ZM81.4848 109.482L81.0931 109.152C80.2434 110.161 79.744 111.147 79.744 112.093H80.256H80.768C80.768 111.503 81.0877 110.748 81.8764 109.811L81.4848 109.482Z" fill="black" fill-opacity="0.08"/>
<path d="M140.8 15.36H28.16C23.9184 15.36 20.48 18.7984 20.48 23.04V30.72C20.48 34.9615 23.9184 38.4 28.16 38.4H140.8C145.042 38.4 148.48 34.9615 148.48 30.72V23.04C148.48 18.7984 145.042 15.36 140.8 15.36Z" fill="url(#paint3_linear_1_27)"/>
</g>
</g>
<defs>
<filter id="filter0_d_1_27" x="-1.90735e-05" y="-1.43051e-05" width="168.96" height="168.96" filterUnits="userSpaceOnUse" color-interpolation-filters="sRGB">
<feFlood flood-opacity="0" result="BackgroundImageFix"/>
<feColorMatrix in="SourceAlpha" type="matrix" values="0 0 0 0 0 0 0 0 0 0 0 0 0 0 0 0 0 0 127 0" result="hardAlpha"/>
<feOffset dy="5.12"/>
<feGaussianBlur stdDeviation="10.24"/>
<feColorMatrix type="matrix" values="0 0 0 0 0 0 0 0 0 0 0 0 0 0 0 0 0 0 0.15 0"/>
<feBlend mode="normal" in2="BackgroundImageFix" result="effect1_dropShadow_1_27"/>
<feBlend mode="normal" in="SourceGraphic" in2="effect1_dropShadow_1_27" result="shape"/>
</filter>
<linearGradient id="paint0_linear_1_27" x1="20.48" y1="15.36" x2="148.48" y2="143.36" gradientUnits="userSpaceOnUse">
<stop stop-color="#E23A28"/>
<stop offset="0.5" stop-color="#C91F1F"/>
<stop offset="1" stop-color="#A81717"/>
</linearGradient>
<linearGradient id="paint1_linear_1_27" x1="39.6799" y1="34.56" x2="129.28" y2="124.16" gradientUnits="userSpaceOnUse">
<stop stop-color="#8B0000" stop-opacity="0"/>
<stop offset="0.5" stop-color="#8B0000" stop-opacity="0.12"/>
<stop offset="1" stop-color="#8B0000" stop-opacity="0"/>
</linearGradient>
<linearGradient id="paint2_linear_1_27" x1="111.872" y1="15.36" x2="148.48" y2="51.968" gradientUnits="userSpaceOnUse">
<stop stop-color="#A91D1D" stop-opacity="0.6"/>
<stop offset="1" stop-color="#A91D1D" stop-opacity="0"/>
</linearGradient>
<linearGradient id="paint3_linear_1_27" x1="20.48" y1="15.36" x2="20.48" y2="38.4" gradientUnits="userSpaceOnUse">
<stop stop-color="white" stop-opacity="0.055"/>
<stop offset="1" stop-color="white" stop-opacity="0"/>
</linearGradient>
<clipPath id="clip0_1_27">
<rect width="128" height="128" fill="white" transform="translate(20.48 15.36)"/>
</clipPath>
</defs>
</svg>
