<svg width="85" height="85" viewBox="0 0 85 85" fill="none" xmlns="http://www.w3.org/2000/svg">
<g filter="url(#filter0_d_1_52)">
<g clip-path="url(#clip0_1_52)">
<path d="M70.4 7.67999H14.08C11.9592 7.67999 10.24 9.39922 10.24 11.52V67.84C10.24 69.9608 11.9592 71.68 14.08 71.68H70.4C72.5208 71.68 74.24 69.9608 74.24 67.84V11.52C74.24 9.39922 72.5208 7.67999 70.4 7.67999Z" fill="url(#paint0_linear_1_52)"/>
<path opacity="0.72" d="M74.24 7.67999V21.76L60.16 7.67999H74.24Z" fill="#D96B62"/>
<path d="M24.4352 43.3088C24.3797 43.0869 24.2827 42.8096 24.144 42.4768C24.0331 42.144 23.9083 41.7973 23.7696 41.4368C23.6587 41.0485 23.5477 40.7296 23.4368 40.48C23.9083 40.3968 24.3936 40.1195 24.8928 39.648C25.4197 39.1765 26.016 38.5664 26.6816 37.8176C27.0421 37.4293 27.5552 36.8053 28.2208 35.9456C28.9141 35.0859 29.6907 34.0736 30.5504 32.9088C31.4101 31.7163 32.2699 30.4405 33.1296 29.0816C34.0171 27.7227 34.8352 26.336 35.584 24.9216L38.1216 26.5024C36.4299 29.3312 34.5717 32.0768 32.5472 34.7392C30.5504 37.3739 28.5397 39.6896 26.5152 41.6864V41.7696C26.5152 41.7696 26.4043 41.8251 26.1824 41.936C25.9883 42.0192 25.7525 42.144 25.4752 42.3104C25.1979 42.4491 24.9483 42.6155 24.7264 42.8096C24.5323 42.976 24.4352 43.1424 24.4352 43.3088ZM24.3936 43.3088L24.2688 40.7712L25.808 39.7312L38.1632 37.4432C38.1355 37.8592 38.1216 38.3168 38.1216 38.816C38.1216 39.3152 38.1355 39.7312 38.1632 40.064C35.3344 40.6464 33.0464 41.1179 31.2992 41.4784C29.5797 41.8389 28.2624 42.1301 27.3472 42.352C26.432 42.5739 25.7664 42.7541 25.3504 42.8928C24.9344 43.0315 24.6155 43.1701 24.3936 43.3088ZM24.1024 33.2832C24.0747 33.0613 24.0053 32.784 23.8944 32.4512C23.7835 32.0907 23.6587 31.7163 23.52 31.328C23.3813 30.9397 23.2427 30.6208 23.104 30.3712C23.4923 30.288 23.8805 30.0107 24.2688 29.5392C24.6571 29.0677 25.0869 28.4853 25.5584 27.792C25.808 27.4315 26.1685 26.8491 26.64 26.0448C27.1115 25.2405 27.6245 24.2976 28.1792 23.216C28.7616 22.1067 29.344 20.928 29.9264 19.68C30.5088 18.4043 31.0219 17.1424 31.4656 15.8944L34.336 17.2256C33.5872 18.9451 32.7552 20.6784 31.84 22.4256C30.9248 24.1451 29.968 25.7952 28.9696 27.376C27.9989 28.9291 27.0144 30.3296 26.016 31.5776V31.6608C26.016 31.6608 25.9189 31.7163 25.7248 31.8272C25.5307 31.9381 25.3088 32.0768 25.0592 32.2432C24.8096 32.4096 24.5877 32.5899 24.3936 32.784C24.1995 32.9504 24.1024 33.1168 24.1024 33.2832ZM24.1024 33.2832L24.0608 30.9952L25.5168 30.0384L33.4624 29.2064C33.3792 29.6224 33.3237 30.0661 33.296 30.5376C33.2683 31.0091 33.2405 31.4112 33.2128 31.744C31.4101 31.9659 29.9403 32.16 28.8032 32.3264C27.6939 32.4928 26.8203 32.6315 26.1824 32.7424C25.5723 32.8533 25.1147 32.9504 24.8096 33.0336C24.5323 33.1168 24.2965 33.2 24.1024 33.2832ZM23.312 48.6752C24.56 48.4256 25.9605 48.1344 27.5136 47.8016C29.0667 47.4411 30.7168 47.0667 32.464 46.6784C34.2389 46.2901 36.0277 45.888 37.8304 45.472L38.1216 48.176C35.6256 48.7861 33.1296 49.4101 30.6336 50.048C28.1376 50.6581 25.8912 51.2128 23.8944 51.712L23.312 48.6752ZM49.8112 20.0544H52.8896C52.8619 23.5765 52.9173 26.8907 53.056 29.9968C53.1947 33.1029 53.4027 35.9317 53.68 38.4832C53.9573 41.0347 54.2901 43.2256 54.6784 45.056C55.0944 46.8864 55.5659 48.3008 56.0928 49.2992C56.6475 50.2976 57.2299 50.7968 57.84 50.7968C58.2283 50.7968 58.5056 50.2699 58.672 49.216C58.8661 48.1344 59.0048 46.4565 59.088 44.1824C59.4208 44.4875 59.8229 44.7787 60.2944 45.056C60.7936 45.3333 61.2235 45.5552 61.584 45.7216C61.4453 47.8016 61.2235 49.4379 60.9184 50.6304C60.6411 51.7952 60.2251 52.6133 59.6704 53.0848C59.1435 53.584 58.4363 53.8336 57.5488 53.8336C56.3563 53.8336 55.3301 53.2512 54.4704 52.0864C53.6107 50.9493 52.8757 49.3408 52.2656 47.2608C51.6832 45.1808 51.2117 42.7403 50.8512 39.9392C50.5184 37.1104 50.2688 34.0181 50.1024 30.6624C49.936 27.2789 49.8389 23.7429 49.8112 20.0544ZM41.7408 32.0768H60.4608V34.9888H41.7408V32.0768ZM57.5904 16.2272L59.8368 18.7648C58.1173 19.264 56.176 19.7355 54.0128 20.1792C51.8773 20.6229 49.6725 21.0251 47.3984 21.3856C45.1243 21.7184 42.9195 22.0096 40.784 22.2592C40.7285 21.8987 40.5899 21.4688 40.368 20.9696C40.1739 20.4704 39.9936 20.0683 39.8272 19.7632C41.9349 19.4581 44.0843 19.1253 46.2752 18.7648C48.4661 18.4043 50.5461 18.016 52.5152 17.6C54.4843 17.1563 56.176 16.6987 57.5904 16.2272ZM39.7024 54.2912L39.4112 51.504L40.7424 50.3392L49.936 47.5104C49.9637 47.9264 50.0053 48.3979 50.0608 48.9248C50.144 49.4517 50.2272 49.8816 50.3104 50.2144C48.1472 50.9355 46.4139 51.5317 45.1104 52.0032C43.8069 52.4747 42.7947 52.8491 42.0736 53.1264C41.3803 53.4315 40.8533 53.6672 40.4928 53.8336C40.16 54 39.8965 54.1525 39.7024 54.2912ZM39.7024 54.2912C39.6192 54.0416 39.4944 53.7643 39.328 53.4592C39.1893 53.1541 39.0229 52.8491 38.8288 52.544C38.6624 52.2389 38.496 51.9893 38.3296 51.7952C38.6347 51.6011 38.9536 51.2821 39.2864 50.8384C39.6469 50.3947 39.8272 49.7429 39.8272 48.8832V19.7632H42.7808V51.296C42.7808 51.296 42.6283 51.3931 42.3232 51.5872C42.0181 51.8091 41.6576 52.0725 41.2416 52.3776C40.8533 52.6827 40.4928 53.0016 40.16 53.3344C39.8549 53.6949 39.7024 54.0139 39.7024 54.2912Z" fill="white"/>
</g>
</g>
<defs>
<filter id="filter0_d_1_52" x="-9.53674e-06" y="-7.15256e-06" width="84.48" height="84.48" filterUnits="userSpaceOnUse" color-interpolation-filters="sRGB">
<feFlood flood-opacity="0" result="BackgroundImageFix"/>
<feColorMatrix in="SourceAlpha" type="matrix" values="0 0 0 0 0 0 0 0 0 0 0 0 0 0 0 0 0 0 127 0" result="hardAlpha"/>
<feOffset dy="2.56"/>
<feGaussianBlur stdDeviation="5.12"/>
<feColorMatrix type="matrix" values="0 0 0 0 0 0 0 0 0 0 0 0 0 0 0 0 0 0 0.08 0"/>
<feBlend mode="normal" in2="BackgroundImageFix" result="effect1_dropShadow_1_52"/>
<feBlend mode="normal" in="SourceGraphic" in2="effect1_dropShadow_1_52" result="shape"/>
</filter>
<linearGradient id="paint0_linear_1_52" x1="10.24" y1="7.67999" x2="74.24" y2="71.68" gradientUnits="userSpaceOnUse">
<stop stop-color="#E23A28"/>
<stop offset="0.5" stop-color="#C91F1F"/>
<stop offset="1" stop-color="#A81717"/>
</linearGradient>
<clipPath id="clip0_1_52">
<rect width="64" height="64" fill="white" transform="translate(10.24 7.67999)"/>
</clipPath>
</defs>
</svg>
