<svg width="127" height="127" viewBox="0 0 127 127" fill="none" xmlns="http://www.w3.org/2000/svg">
<g filter="url(#filter0_d_1_39)">
<g clip-path="url(#clip0_1_39)">
<path d="M105.6 11.52H21.12C17.9388 11.52 15.36 14.0989 15.36 17.28V101.76C15.36 104.941 17.9388 107.52 21.12 107.52H105.6C108.781 107.52 111.36 104.941 111.36 101.76V17.28C111.36 14.0989 108.781 11.52 105.6 11.52Z" fill="url(#paint0_linear_1_39)"/>
<path d="M29.76 93.12L96.96 25.92" stroke="url(#paint1_linear_1_39)" stroke-width="1.44"/>
<path d="M111.36 11.52V38.976L83.9039 11.52H111.36Z" fill="url(#paint2_linear_1_39)"/>
<path opacity="0.92" d="M111.36 11.52V32.64L90.24 11.52H111.36Z" fill="#D96B62"/>
<path d="M90.24 11.52L111.36 32.64" stroke="white" stroke-opacity="0.4" stroke-width="0.48"/>
<path d="M38.2648 69.3056C38.188 68.8832 38.0152 68.3264 37.7464 67.6352C37.516 66.9056 37.2664 66.1568 36.9976 65.3888C36.7288 64.5824 36.46 63.9104 36.1912 63.3728C36.9592 63.2192 37.6888 62.8352 38.38 62.2208C39.1096 61.6064 39.9352 60.7616 40.8568 59.6864C41.356 59.1872 42.0664 58.3616 42.988 57.2096C43.948 56.0192 44.9848 54.6176 46.0984 53.0048C47.2504 51.392 48.4024 49.6448 49.5544 47.7632C50.7448 45.8816 51.82 43.9616 52.78 42.0032L58.252 45.4592C56.0248 49.2224 53.5288 52.9088 50.764 56.5184C48.0376 60.128 45.2728 63.3152 42.4696 66.08V66.1952C42.4696 66.1952 42.2584 66.3104 41.836 66.5408C41.4136 66.7328 40.9144 67.0016 40.3384 67.3472C39.8008 67.6544 39.3208 67.9808 38.8984 68.3264C38.476 68.672 38.2648 68.9984 38.2648 69.3056ZM38.2072 69.3056L37.804 63.9488L40.7416 61.8752L57.676 59.0528C57.5608 59.936 57.484 60.9344 57.4456 62.048C57.4456 63.1616 57.4648 64.064 57.5032 64.7552C53.7016 65.4848 50.6104 66.0992 48.2296 66.5984C45.8872 67.0976 44.044 67.5008 42.7 67.808C41.3944 68.1152 40.4152 68.384 39.7624 68.6144C39.1096 68.8448 38.5912 69.0752 38.2072 69.3056ZM37.804 55.2512C37.6888 54.7904 37.4968 54.1952 37.228 53.4656C36.9976 52.6976 36.7288 51.8912 36.4216 51.0464C36.1144 50.2016 35.8264 49.4912 35.5576 48.9152C36.172 48.7616 36.7672 48.3968 37.3432 47.8208C37.9192 47.2448 38.5144 46.4768 39.1288 45.5168C39.436 45.056 39.8968 44.288 40.5112 43.2128C41.1256 42.1376 41.7976 40.8896 42.5272 39.4688C43.2568 38.0096 43.9864 36.4352 44.716 34.7456C45.4456 33.056 46.06 31.3664 46.5592 29.6768L52.9528 32.7296C51.9928 34.9568 50.8792 37.2224 49.612 39.5264C48.3832 41.792 47.0584 43.9808 45.6376 46.0928C44.2552 48.2048 42.8536 50.0864 41.4328 51.7376V51.968C41.4328 51.968 41.26 52.0832 40.9144 52.3136C40.5688 52.544 40.1464 52.832 39.6472 53.1776C39.148 53.4848 38.7064 53.8304 38.3224 54.2144C37.9768 54.5984 37.804 54.944 37.804 55.2512ZM37.804 55.2512L37.6312 50.4704L40.396 48.6272L50.1304 47.8784C49.9768 48.7232 49.8424 49.6832 49.7272 50.7584C49.612 51.7952 49.5352 52.64 49.4968 53.2928C47.308 53.5616 45.5032 53.792 44.0824 53.984C42.7 54.1376 41.5864 54.2912 40.7416 54.4448C39.9352 54.56 39.3016 54.6944 38.8408 54.848C38.4184 54.9632 38.0728 55.0976 37.804 55.2512ZM36.1912 75.1232C37.9192 74.7776 39.8968 74.3936 42.124 73.9712C44.3512 73.5104 46.7128 73.0112 49.2088 72.4736C51.7048 71.936 54.2008 71.3984 56.6968 70.8608L57.3304 76.6784C53.8744 77.6 50.3992 78.5024 46.9048 79.3856C43.4104 80.2688 40.2424 81.0752 37.4008 81.8048L36.1912 75.1232ZM72.8824 37.6256H79.7368C79.66 41.6576 79.6408 45.5936 79.6792 49.4336C79.756 53.2352 79.8904 56.8064 80.0824 60.1472C80.3128 63.4496 80.6008 66.3488 80.9464 68.8448C81.3304 71.3408 81.7528 73.2992 82.2136 74.72C82.6744 76.1408 83.1928 76.8512 83.7688 76.8512C84.1528 76.8512 84.4408 76.1216 84.6328 74.6624C84.8248 73.2032 84.94 70.9952 84.9784 68.0384C85.708 68.768 86.572 69.4592 87.5704 70.112C88.6072 70.7648 89.5672 71.264 90.4504 71.6096C90.1816 74.7968 89.74 77.2544 89.1256 78.9824C88.5496 80.7104 87.7624 81.9008 86.764 82.5536C85.804 83.2448 84.5752 83.5904 83.0776 83.5904C81.2728 83.5904 79.756 82.7456 78.5272 81.056C77.3368 79.3664 76.3768 77.0432 75.6472 74.0864C74.9176 71.1296 74.3416 67.712 73.9192 63.8336C73.5352 59.9552 73.2664 55.7888 73.1128 51.3344C72.9976 46.8416 72.9208 42.272 72.8824 37.6256ZM63.436 52.0256H89.068V58.4192H63.436V52.0256ZM83.8264 30.5984L88.6072 36.2432C85.9576 37.0112 83.0776 37.7216 79.9672 38.3744C76.8568 38.9888 73.6888 39.5456 70.4632 40.0448C67.2376 40.544 64.108 40.9664 61.0744 41.312C60.9592 40.544 60.6904 39.6224 60.268 38.5472C59.884 37.4336 59.5192 36.512 59.1736 35.7824C62.092 35.3984 65.0488 34.9376 68.044 34.4C71.0392 33.824 73.9 33.2096 76.6264 32.5568C79.3528 31.904 81.7528 31.2512 83.8264 30.5984ZM59.692 84.5696L58.8856 78.6368L61.3624 76.5056L73.8616 72.7616C73.9 73.6832 73.996 74.72 74.1496 75.872C74.3032 77.024 74.4568 77.9648 74.6104 78.6944C71.7304 79.6928 69.388 80.4992 67.5832 81.1136C65.7784 81.7664 64.3576 82.304 63.3208 82.7264C62.284 83.1488 61.4968 83.4944 60.9592 83.7632C60.4216 84.0704 59.9992 84.3392 59.692 84.5696ZM59.692 84.5696C59.5384 84.0704 59.2888 83.4752 58.9432 82.784C58.5976 82.1312 58.2136 81.4976 57.7912 80.8832C57.4072 80.2688 57.0616 79.7888 56.7544 79.4432C57.3304 79.0208 57.868 78.4064 58.3672 77.6C58.9048 76.7552 59.1736 75.68 59.1736 74.3744V35.7824H65.6824V78.3488C65.6824 78.3488 65.3752 78.56 64.7608 78.9824C64.1464 79.4048 63.4552 79.9424 62.6872 80.5952C61.9192 81.248 61.228 81.92 60.6136 82.6112C59.9992 83.3408 59.692 83.9936 59.692 84.5696Z" fill="white"/>
<path d="M38.2648 69.3056L37.887 69.3743L38.6488 69.3056H38.2648ZM37.7464 67.6352L37.3802 67.7509L37.384 67.7628L37.3885 67.7744L37.7464 67.6352ZM36.9976 65.3888L36.6333 65.5103L36.6351 65.5157L36.9976 65.3888ZM36.1912 63.3728L36.1159 62.9963L35.6229 63.0949L35.8477 63.5446L36.1912 63.3728ZM38.38 62.2208L38.1325 61.927L38.1249 61.9338L38.38 62.2208ZM40.8568 59.6864L40.5853 59.4149L40.5748 59.4253L40.5652 59.4365L40.8568 59.6864ZM42.988 57.2096L42.6891 56.9686L42.6881 56.9698L42.988 57.2096ZM46.0984 53.0048L45.7859 52.7816L45.7824 52.7867L46.0984 53.0048ZM49.5544 47.7632L49.2298 47.5579L49.2269 47.5627L49.5544 47.7632ZM52.78 42.0032L52.985 41.6786L52.6234 41.4502L52.4352 41.8342L52.78 42.0032ZM58.252 45.4592L58.5824 45.6548L58.7725 45.3338L58.457 45.1346L58.252 45.4592ZM50.764 56.5184L50.4591 56.2849L50.4576 56.287L50.764 56.5184ZM42.4696 66.08L42.1999 65.8066L42.0856 65.9194V66.08H42.4696ZM42.4696 66.1952L42.6535 66.5324L42.8536 66.4232V66.1952H42.4696ZM41.836 66.5408L41.9949 66.8904L42.0076 66.8846L42.0199 66.878L41.836 66.5408ZM40.3384 67.3472L40.5289 67.6807L40.536 67.6765L40.3384 67.3472ZM38.2072 69.3056L37.8243 69.3345L37.871 69.9552L38.4048 69.6349L38.2072 69.3056ZM37.804 63.9488L37.5825 63.6351L37.4047 63.7606L37.4211 63.9777L37.804 63.9488ZM40.7416 61.8752L40.6785 61.4965L40.5919 61.5109L40.5201 61.5615L40.7416 61.8752ZM57.676 59.0528L58.0568 59.1025L58.1238 58.5889L57.6129 58.6741L57.676 59.0528ZM57.4456 62.048L57.0616 62.0348V62.048H57.4456ZM57.5032 64.7552L57.5756 65.1324L57.9052 65.0691L57.8866 64.7339L57.5032 64.7552ZM48.2296 66.5984L48.1508 66.2226L48.1495 66.2229L48.2296 66.5984ZM42.7 67.808L42.6144 67.4337L42.612 67.4342L42.7 67.808ZM39.7624 68.6144L39.8902 68.9765V68.9765L39.7624 68.6144ZM37.804 55.2512L37.4315 55.3444L38.188 55.2512H37.804ZM37.228 53.4656L36.8602 53.576L36.8636 53.5873L36.8677 53.5984L37.228 53.4656ZM36.4216 51.0464L36.7825 50.9152H36.7825L36.4216 51.0464ZM35.5576 48.9152L35.4645 48.5427L35.0127 48.6556L35.2096 49.0776L35.5576 48.9152ZM37.3432 47.8208L37.0717 47.5493L37.0717 47.5493L37.3432 47.8208ZM39.1288 45.5168L38.8092 45.3038L38.8054 45.3098L39.1288 45.5168ZM42.5272 39.4688L42.8688 39.6443L42.8706 39.6406L42.5272 39.4688ZM44.716 34.7456L44.3635 34.5934V34.5934L44.716 34.7456ZM46.5592 29.6768L46.7246 29.3303L46.3185 29.1364L46.1909 29.568L46.5592 29.6768ZM52.9528 32.7296L53.3054 32.8816L53.4517 32.5423L53.1182 32.3831L52.9528 32.7296ZM49.612 39.5264L49.2755 39.3414L49.2744 39.3434L49.612 39.5264ZM45.6376 46.0928L45.3189 45.8785L45.3163 45.8825L45.6376 46.0928ZM41.4328 51.7376L41.1417 51.4872L41.0488 51.5952V51.7376H41.4328ZM41.4328 51.968L41.6458 52.2875L41.8168 52.1735V51.968H41.4328ZM40.9144 52.3136L41.1274 52.6331H41.1274L40.9144 52.3136ZM39.6472 53.1776L39.8484 53.5047L39.8573 53.4993L39.8658 53.4934L39.6472 53.1776ZM38.3224 54.2144L38.0509 53.9429L38.0437 53.9501L38.037 53.9576L38.3224 54.2144ZM37.804 55.2512L37.4202 55.2651L37.4432 55.8997L37.9945 55.5846L37.804 55.2512ZM37.6312 50.4704L37.4182 50.1509L37.2397 50.2699L37.2474 50.4843L37.6312 50.4704ZM40.396 48.6272L40.3665 48.2444L40.2665 48.2521L40.183 48.3077L40.396 48.6272ZM50.1304 47.8784L50.5082 47.9471L50.5972 47.4574L50.1009 47.4956L50.1304 47.8784ZM49.7272 50.7584L50.1088 50.8008L50.109 50.7993L49.7272 50.7584ZM49.4968 53.2928L49.5436 53.674L49.8613 53.635L49.8801 53.3154L49.4968 53.2928ZM44.0824 53.984L44.1248 54.3658L44.1338 54.3646L44.0824 53.984ZM40.7416 54.4448L40.7959 54.825L40.8031 54.8239L40.8103 54.8226L40.7416 54.4448ZM38.8408 54.848L38.9418 55.2185L38.9521 55.2157L38.9622 55.2123L38.8408 54.848ZM36.1912 75.1232L36.1159 74.7467L35.7462 74.8206L35.8133 75.1916L36.1912 75.1232ZM42.124 73.9712L42.1955 74.3486L42.2018 74.3473L42.124 73.9712ZM49.2088 72.4736L49.1279 72.0982V72.0982L49.2088 72.4736ZM56.6968 70.8608L57.0785 70.8193L57.0324 70.3957L56.6159 70.4854L56.6968 70.8608ZM57.3304 76.6784L57.4293 77.0495L57.7478 76.9645L57.7121 76.6369L57.3304 76.6784ZM37.4008 81.8048L37.0229 81.8732L37.0965 82.2794L37.4963 82.1768L37.4008 81.8048ZM72.8824 37.6256V37.2416H72.4952L72.4984 37.6288L72.8824 37.6256ZM79.7368 37.6256L80.1207 37.6329L80.1282 37.2416H79.7368V37.6256ZM79.6792 49.4336L79.2952 49.4375L79.2953 49.4414L79.6792 49.4336ZM80.0824 60.1472L79.699 60.1693L79.6993 60.174L80.0824 60.1472ZM80.9464 68.8448L80.566 68.8975L80.5669 68.9032L80.9464 68.8448ZM82.2136 74.72L81.8483 74.8385V74.8385L82.2136 74.72ZM84.9784 68.0384L85.2499 67.7669L84.6062 67.1232L84.5944 68.0335L84.9784 68.0384ZM87.5704 70.112L87.3602 70.4335L87.3658 70.437L87.5704 70.112ZM90.4504 71.6096L90.833 71.6419L90.8571 71.3564L90.5903 71.252L90.4504 71.6096ZM89.1256 78.9824L88.7637 78.8538L88.7613 78.861L89.1256 78.9824ZM86.764 82.5536L86.5538 82.2322L86.5466 82.237L86.5396 82.242L86.764 82.5536ZM78.5272 81.056L78.2132 81.2772L78.2166 81.2819L78.5272 81.056ZM75.6472 74.0864L76.02 73.9944V73.9944L75.6472 74.0864ZM73.9192 63.8336L73.537 63.8715L73.5374 63.8752L73.9192 63.8336ZM73.1128 51.3344L72.7289 51.3443L72.729 51.3477L73.1128 51.3344ZM63.436 52.0256V51.6416H63.052V52.0256H63.436ZM89.068 52.0256H89.452V51.6416H89.068V52.0256ZM89.068 58.4192V58.8032H89.452V58.4192H89.068ZM63.436 58.4192H63.052V58.8032H63.436V58.4192ZM83.8264 30.5984L84.1194 30.3503L83.9545 30.1555L83.7111 30.2322L83.8264 30.5984ZM88.6072 36.2432L88.7141 36.6121L89.2831 36.4471L88.9002 35.9951L88.6072 36.2432ZM79.9672 38.3744L80.0416 38.7512L80.0461 38.7503L79.9672 38.3744ZM61.0744 41.312L60.6946 41.369L60.7496 41.7355L61.1179 41.6936L61.0744 41.312ZM60.268 38.5472L59.905 38.6724L59.9076 38.6801L59.9106 38.6876L60.268 38.5472ZM59.1736 35.7824L59.1235 35.4017L58.6009 35.4705L58.8266 35.9468L59.1736 35.7824ZM68.044 34.4L68.1118 34.778L68.1165 34.7771L68.044 34.4ZM76.6264 32.5568L76.537 32.1834V32.1834L76.6264 32.5568ZM59.692 84.5696L59.3115 84.6214L59.3995 85.269L59.9224 84.8768L59.692 84.5696ZM58.8856 78.6368L58.6351 78.3458L58.477 78.4818L58.5051 78.6886L58.8856 78.6368ZM61.3624 76.5056L61.2522 76.1378L61.1739 76.1612L61.1119 76.2146L61.3624 76.5056ZM73.8616 72.7616L74.2453 72.7457L74.2247 72.252L73.7514 72.3938L73.8616 72.7616ZM74.1496 75.872L74.5302 75.8213V75.8213L74.1496 75.872ZM74.6104 78.6944L74.7362 79.0573L75.0559 78.9464L74.9862 78.6153L74.6104 78.6944ZM67.5832 81.1136L67.4594 80.7501L67.4526 80.7525L67.5832 81.1136ZM63.3208 82.7264L63.1759 82.3708H63.1759L63.3208 82.7264ZM60.9592 83.7632L60.7875 83.4198L60.7779 83.4245L60.7687 83.4298L60.9592 83.7632ZM59.692 84.5696L59.325 84.6826L60.076 84.5696H59.692ZM58.9432 82.784L59.2867 82.6123L59.2826 82.6044L58.9432 82.784ZM57.7912 80.8832L57.4656 81.0868L57.47 81.0939L57.4748 81.1008L57.7912 80.8832ZM56.7544 79.4432L56.5273 79.1336L56.1871 79.3831L56.4674 79.6984L56.7544 79.4432ZM58.3672 77.6L58.0432 77.3939L58.0407 77.3979L58.3672 77.6ZM59.1736 35.7824V35.3984H58.7896V35.7824H59.1736ZM65.6824 35.7824H66.0664V35.3984H65.6824V35.7824ZM65.6824 78.3488L65.8999 78.6653L66.0664 78.5508V78.3488H65.6824ZM64.7608 78.9824L64.9783 79.2989H64.9783L64.7608 78.9824ZM62.6872 80.5952L62.4385 80.3027V80.3027L62.6872 80.5952ZM60.6136 82.6112L60.3265 82.356L60.3199 82.3639L60.6136 82.6112ZM38.2648 69.3056L38.6426 69.2369C38.5594 68.7793 38.3765 68.1962 38.1043 67.4961L37.7464 67.6352L37.3885 67.7744C37.6538 68.4567 37.8166 68.9872 37.887 69.3743L38.2648 69.3056ZM37.7464 67.6352L38.1126 67.5196C37.8809 66.786 37.63 66.0335 37.36 65.262L36.9976 65.3888L36.6351 65.5157C36.9027 66.2802 37.1511 67.0253 37.3802 67.7509L37.7464 67.6352ZM36.9976 65.3888L37.3619 65.2674C37.0895 64.4502 36.8141 63.7601 36.5346 63.2011L36.1912 63.3728L35.8477 63.5446C36.1058 64.0608 36.3681 64.7147 36.6333 65.5103L36.9976 65.3888ZM36.1912 63.3728L36.2665 63.7494C37.1125 63.5802 37.9022 63.1593 38.6351 62.5078L38.38 62.2208L38.1249 61.9338C37.4753 62.5112 36.8059 62.8583 36.1159 62.9963L36.1912 63.3728ZM38.38 62.2208L38.6273 62.5146C39.3785 61.882 40.219 61.0205 41.1483 59.9363L40.8568 59.6864L40.5652 59.4365C39.6513 60.5027 38.8407 61.3308 38.1326 61.9271L38.38 62.2208ZM40.8568 59.6864L41.1283 59.958C41.6434 59.4429 42.3647 58.6034 43.2878 57.4495L42.988 57.2096L42.6881 56.9698C41.768 58.1199 41.0686 58.9316 40.5853 59.4149L40.8568 59.6864ZM42.988 57.2096L43.2869 57.4507C44.2543 56.2512 45.2968 54.8416 46.4144 53.223L46.0984 53.0048L45.7824 52.7867C44.6728 54.3937 43.6417 55.7873 42.6891 56.9686L42.988 57.2096ZM46.0984 53.0048L46.4109 53.228C47.5687 51.6071 48.7257 49.8522 49.8819 47.9637L49.5544 47.7632L49.2269 47.5627C48.0791 49.4374 46.9321 51.177 45.7859 52.7816L46.0984 53.0048ZM49.5544 47.7632L49.8789 47.9685C51.0766 46.0755 52.1586 44.1434 53.1248 42.1723L52.78 42.0032L52.4352 41.8342C51.4814 43.7799 50.413 45.6878 49.2299 47.5579L49.5544 47.7632ZM52.78 42.0032L52.5749 42.3279L58.0469 45.7839L58.252 45.4592L58.457 45.1346L52.985 41.6786L52.78 42.0032ZM58.252 45.4592L57.9215 45.2637C55.7024 49.0132 53.215 52.687 50.4591 56.2849L50.764 56.5184L51.0688 56.7519C53.8426 53.1307 56.3472 49.4317 58.5824 45.6548L58.252 45.4592ZM50.764 56.5184L50.4576 56.287C47.7408 59.8839 44.9881 63.0567 42.1999 65.8066L42.4696 66.08L42.7392 66.3534C45.5575 63.5738 48.3344 60.3722 51.0704 56.7499L50.764 56.5184ZM42.4696 66.08H42.0856V66.1952H42.4696H42.8536V66.08H42.4696ZM42.4696 66.1952C42.2857 65.8581 42.2857 65.8581 42.2857 65.8581C42.2857 65.8581 42.2857 65.8581 42.2857 65.8581C42.2857 65.8581 42.2857 65.8581 42.2857 65.8581C42.2857 65.8581 42.2857 65.8581 42.2857 65.8581C42.2856 65.8582 42.2857 65.8582 42.2856 65.8582C42.2855 65.8582 42.2852 65.8584 42.2851 65.8585C42.2826 65.8598 42.2861 65.8579 42.2832 65.8595C42.2832 65.8595 42.2806 65.8609 42.2801 65.8612C42.2792 65.8617 42.2771 65.8628 42.2758 65.8635C42.274 65.8645 42.2669 65.8684 42.2634 65.8703C42.2634 65.8703 42.2616 65.8713 42.2615 65.8713C42.2614 65.8714 42.2597 65.8723 42.2596 65.8724C42.2568 65.8739 42.2583 65.8731 42.2554 65.8747C42.2547 65.8751 42.255 65.8749 42.2543 65.8753C42.2512 65.877 42.2563 65.8742 42.2532 65.8759C42.2526 65.8762 42.2515 65.8768 42.2509 65.8771C42.2507 65.8772 42.2505 65.8773 42.2503 65.8774C42.2501 65.8775 42.2499 65.8776 42.2497 65.8778C42.2489 65.8782 42.2493 65.878 42.2485 65.8784C42.2388 65.8837 42.2559 65.8744 42.2461 65.8797C42.2166 65.8958 42.1833 65.914 42.1273 65.9445C42.1218 65.9476 42.1279 65.9442 42.1223 65.9473C42.1038 65.9574 42.1358 65.9399 42.1173 65.95C42.1059 65.9562 42.1235 65.9466 42.1121 65.9528C42.1071 65.9555 42.1119 65.9529 42.1069 65.9557C42.1011 65.9588 42.0914 65.9641 42.0852 65.9675C42.0847 65.9678 42.0404 65.9919 42.0382 65.9931C42.0098 66.0086 42.0416 65.9913 42.0128 66.007C42.0067 66.0103 42.0125 66.0072 42.0063 66.0105C42.0058 66.0108 42.0052 66.0111 42.0047 66.0114C42.0041 66.0117 42.0036 66.012 42.003 66.0123C41.9998 66.0141 42.0029 66.0124 41.9997 66.0141C41.9929 66.0179 41.9998 66.0141 41.993 66.0178C41.9885 66.0202 41.9908 66.019 41.9862 66.0215C41.9519 66.0402 41.9931 66.0177 41.9584 66.0367C41.957 66.0374 41.9527 66.0398 41.9512 66.0406C41.9425 66.0453 41.9527 66.0397 41.944 66.0445C41.9402 66.0466 41.9332 66.0504 41.9293 66.0525C41.9287 66.0529 41.9281 66.0532 41.9274 66.0535C41.9268 66.0539 41.9262 66.0542 41.9256 66.0546C41.925 66.0549 41.9243 66.0552 41.9237 66.0556C41.9231 66.0559 41.9225 66.0563 41.9218 66.0566C41.9128 66.0615 41.9234 66.0558 41.9143 66.0607C41.9083 66.064 41.9127 66.0616 41.9067 66.0649C41.903 66.0669 41.9027 66.0671 41.899 66.0691C41.8732 66.0831 41.9092 66.0635 41.8834 66.0776C41.8827 66.0779 41.882 66.0783 41.8814 66.0787C41.8807 66.079 41.8801 66.0794 41.8794 66.0797C41.8586 66.0911 41.8963 66.0705 41.8754 66.0819C41.8727 66.0834 41.8702 66.0848 41.8674 66.0863C41.8536 66.0938 41.8651 66.0875 41.8512 66.0951C41.8488 66.0965 41.8454 66.0983 41.843 66.0996C41.8423 66.1 41.8416 66.1004 41.8409 66.1008C41.8402 66.1011 41.8395 66.1015 41.8388 66.1019C41.8355 66.1037 41.838 66.1023 41.8346 66.1042C41.8094 66.1179 41.8263 66.1087 41.8006 66.1227C41.7868 66.1303 41.7443 66.1534 41.7288 66.1619C41.7061 66.1743 41.6765 66.1904 41.6521 66.2037L41.836 66.5408L42.0199 66.878C42.0629 66.8545 42.0552 66.8587 42.0966 66.8361C42.1038 66.8322 42.0987 66.835 42.1058 66.8311C42.1084 66.8297 42.1079 66.8299 42.1104 66.8286C42.1112 66.8281 42.112 66.8277 42.1127 66.8273C42.1135 66.8269 42.1142 66.8265 42.115 66.8261C42.117 66.825 42.1312 66.8172 42.1331 66.8162C42.1505 66.8067 42.1247 66.8208 42.142 66.8113C42.1428 66.8109 42.1435 66.8105 42.1443 66.8101C42.145 66.8097 42.1457 66.8093 42.1465 66.8089C42.1472 66.8085 42.1479 66.8081 42.1487 66.8077C42.1494 66.8073 42.1502 66.8069 42.1509 66.8065C42.154 66.8048 42.1653 66.7986 42.1684 66.797C42.1939 66.783 42.2113 66.7735 42.2352 66.7605C42.2527 66.751 42.2338 66.7613 42.2511 66.7518C42.2681 66.7426 42.2499 66.7525 42.2667 66.7433C42.2674 66.7429 42.268 66.7426 42.2687 66.7422C42.2693 66.7419 42.27 66.7415 42.2706 66.7412C42.2965 66.7271 42.2486 66.7532 42.2744 66.7391C42.2984 66.726 42.2543 66.7501 42.2783 66.737C42.2789 66.7367 42.2795 66.7363 42.2802 66.736C42.2808 66.7356 42.2814 66.7353 42.2821 66.7349C42.2831 66.7344 42.2848 66.7334 42.2858 66.7329C42.2871 66.7322 42.2884 66.7315 42.2896 66.7308C42.3078 66.7209 42.2752 66.7387 42.2933 66.7288C42.294 66.7284 42.2946 66.7281 42.2952 66.7278C42.2958 66.7274 42.2964 66.7271 42.2971 66.7268C42.2987 66.7259 42.2991 66.7256 42.3008 66.7247C42.3011 66.7246 42.3041 66.7229 42.3045 66.7227C42.3098 66.7198 42.3064 66.7217 42.3118 66.7187C42.3396 66.7036 42.2984 66.726 42.3261 66.7109C42.3289 66.7094 42.3376 66.7046 42.3402 66.7032C42.3593 66.6928 42.335 66.706 42.354 66.6957C42.3712 66.6863 42.3503 66.6977 42.3674 66.6884C42.371 66.6864 42.3771 66.6831 42.3806 66.6812C42.3898 66.6762 42.3971 66.6722 42.406 66.6674C42.4147 66.6626 42.4459 66.6456 42.453 66.6417C42.4768 66.6287 42.4729 66.6309 42.4951 66.6188C42.5021 66.6149 42.5076 66.6119 42.5142 66.6083C42.5253 66.6023 42.5125 66.6093 42.5234 66.6033C42.5237 66.6031 42.5241 66.6029 42.5245 66.6027C42.5249 66.6025 42.5252 66.6023 42.5256 66.6021C42.5269 66.6014 42.5265 66.6016 42.5278 66.6009C42.5292 66.6001 42.5308 66.5993 42.5322 66.5985C42.5542 66.5865 42.5273 66.6012 42.5489 66.5894C42.5492 66.5892 42.5496 66.589 42.5499 66.5888C42.5502 66.5887 42.5506 66.5885 42.5509 66.5883C42.5512 66.5881 42.5516 66.5879 42.5519 66.5878C42.5522 66.5876 42.5526 66.5874 42.5529 66.5872C42.5604 66.5831 42.5493 66.5892 42.5568 66.5851C42.5687 66.5786 42.5526 66.5874 42.5644 66.581C42.5754 66.575 42.568 66.579 42.5786 66.5732C42.6016 66.5607 42.5624 66.582 42.5852 66.5696C42.5935 66.5651 42.5835 66.5705 42.5916 66.5661C42.6202 66.5505 42.5751 66.5751 42.6033 66.5597C42.6049 66.5588 42.6032 66.5598 42.6047 66.5589C42.605 66.5588 42.6052 66.5587 42.6054 66.5586C42.6056 66.5584 42.6059 66.5583 42.6061 66.5582C42.6063 66.5581 42.6065 66.5579 42.6068 66.5578C42.607 66.5577 42.6072 66.5576 42.6074 66.5575C42.6087 66.5568 42.6075 66.5574 42.6088 66.5567C42.6108 66.5556 42.6093 66.5564 42.6114 66.5553C42.6182 66.5516 42.607 66.5577 42.6139 66.554C42.6303 66.545 42.6338 66.5431 42.6436 66.5378C42.6469 66.5359 42.645 66.537 42.6479 66.5354C42.6491 66.5347 42.6502 66.5341 42.651 66.5337C42.6538 66.5322 42.6494 66.5346 42.6521 66.5331C42.6523 66.533 42.6528 66.5327 42.6528 66.5327C42.6529 66.5326 42.6531 66.5326 42.6531 66.5325C42.6534 66.5324 42.6529 66.5326 42.6532 66.5325C42.6533 66.5324 42.6532 66.5325 42.6533 66.5324C42.6533 66.5324 42.6534 66.5324 42.6534 66.5324C42.6534 66.5324 42.6535 66.5324 42.6535 66.5324C42.6535 66.5324 42.6535 66.5324 42.6535 66.5324C42.6535 66.5324 42.6535 66.5324 42.4696 66.1952ZM41.836 66.5408L41.6771 66.1913C41.237 66.3913 40.7243 66.6679 40.1408 67.018L40.3384 67.3472L40.536 67.6765C41.1045 67.3354 41.5902 67.0744 41.9949 66.8904L41.836 66.5408ZM40.3384 67.3472L40.1479 67.0138C39.5942 67.3302 39.0962 67.6685 38.6552 68.0292L38.8984 68.3264L39.1415 68.6236C39.5454 68.2932 40.0074 67.9786 40.5289 67.6806L40.3384 67.3472ZM38.8984 68.3264L38.6552 68.0292C38.2093 68.3941 37.8808 68.8192 37.8808 69.3056H38.2648H38.6488C38.6488 69.1777 38.7427 68.95 39.1415 68.6236L38.8984 68.3264ZM38.2072 69.3056L38.5901 69.2768L38.1869 63.92L37.804 63.9488L37.4211 63.9777L37.8243 69.3345L38.2072 69.3056ZM37.804 63.9488L38.0254 64.2626L40.963 62.189L40.7416 61.8752L40.5201 61.5615L37.5825 63.6351L37.804 63.9488ZM40.7416 61.8752L40.8047 62.254L57.7391 59.4316L57.676 59.0528L57.6129 58.6741L40.6785 61.4965L40.7416 61.8752ZM57.676 59.0528L57.2952 59.0032C57.1781 59.901 57.1005 60.9119 57.0618 62.0348L57.4456 62.048L57.8294 62.0613C57.8674 60.957 57.9435 59.9711 58.0568 59.1025L57.676 59.0528ZM57.4456 62.048H57.0616C57.0616 63.165 57.0808 64.0753 57.1198 64.7765L57.5032 64.7552L57.8866 64.7339C57.8488 64.0528 57.8296 63.1582 57.8296 62.048H57.4456ZM57.5032 64.7552L57.4308 64.3781C53.6282 65.1079 50.5346 65.7228 48.1508 66.2226L48.2296 66.5984L48.3084 66.9743C50.6862 66.4757 53.775 65.8618 57.5756 65.1324L57.5032 64.7552ZM48.2296 66.5984L48.1495 66.2229C45.8064 66.7222 43.9611 67.1259 42.6144 67.4337L42.7 67.808L42.7856 68.1824C44.1269 67.8758 45.9679 67.4731 48.3096 66.974L48.2296 66.5984ZM42.7 67.808L42.612 67.4342C41.303 67.7423 40.3075 68.0148 39.6346 68.2523L39.7624 68.6144L39.8902 68.9765C40.5229 68.7532 41.4858 68.4882 42.7879 68.1818L42.7 67.808ZM39.7624 68.6144L39.6346 68.2523C38.9691 68.4872 38.4242 68.7276 38.0096 68.9764L38.2072 69.3056L38.4048 69.6349C38.7581 69.4229 39.2501 69.2025 39.8902 68.9765L39.7624 68.6144ZM37.804 55.2512L38.1765 55.1581C38.0565 54.6782 37.8593 54.0684 37.5883 53.3329L37.228 53.4656L36.8677 53.5984C37.1343 54.3221 37.321 54.9027 37.4315 55.3444L37.804 55.2512ZM37.228 53.4656L37.5958 53.3553C37.363 52.5795 37.0919 51.7661 36.7825 50.9152L36.4216 51.0464L36.0607 51.1777C36.3657 52.0164 36.6321 52.8158 36.8602 53.576L37.228 53.4656ZM36.4216 51.0464L36.7825 50.9152C36.4729 50.0638 36.1806 49.3422 35.9056 48.7529L35.5576 48.9152L35.2096 49.0776C35.4722 49.6402 35.7559 50.3395 36.0607 51.1777L36.4216 51.0464ZM35.5576 48.9152L35.6507 49.2878C36.3494 49.1131 37.0033 48.7037 37.6147 48.0924L37.3432 47.8208L37.0717 47.5493C36.531 48.0899 35.9946 48.4102 35.4645 48.5427L35.5576 48.9152ZM37.3432 47.8208L37.6147 48.0924C38.2163 47.4908 38.8283 46.6987 39.4522 45.7238L39.1288 45.5168L38.8054 45.3098C38.2005 46.255 37.6221 46.9989 37.0717 47.5493L37.3432 47.8208ZM39.1288 45.5168L39.4483 45.7298C39.7634 45.2572 40.2298 44.4792 40.8446 43.4034L40.5112 43.2128L40.1778 43.0223C39.5638 44.0968 39.1086 44.8549 38.8093 45.3038L39.1288 45.5168ZM40.5112 43.2128L40.8446 43.4034C41.4625 42.322 42.1373 41.0688 42.8688 39.6443L42.5272 39.4688L42.1856 39.2934C41.4579 40.7105 40.7887 41.9533 40.1778 43.0223L40.5112 43.2128ZM42.5272 39.4688L42.8706 39.6406C43.6038 38.1742 44.3364 36.5932 45.0685 34.8979L44.716 34.7456L44.3635 34.5934C43.6363 36.2772 42.9097 37.8451 42.1837 39.2971L42.5272 39.4688ZM44.716 34.7456L45.0685 34.8979C45.804 33.1947 46.4237 31.4907 46.9274 29.7856L46.5592 29.6768L46.1909 29.568C45.6963 31.2422 45.0872 32.9173 44.3635 34.5934L44.716 34.7456ZM46.5592 29.6768L46.3937 30.0234L52.7873 33.0762L52.9528 32.7296L53.1182 32.3831L46.7246 29.3303L46.5592 29.6768ZM52.9528 32.7296L52.6001 32.5776C51.6454 34.7927 50.5373 37.0472 49.2755 39.3414L49.612 39.5264L49.9485 39.7115C51.2211 37.3976 52.3402 35.121 53.3054 32.8816L52.9528 32.7296ZM49.612 39.5264L49.2744 39.3434C48.0514 41.5984 46.7329 43.7767 45.319 45.8785L45.6376 46.0928L45.9562 46.3072C47.3839 44.1849 48.715 41.9857 49.9495 39.7095L49.612 39.5264ZM45.6376 46.0928L45.3163 45.8825C43.9417 47.9827 42.55 49.8505 41.1417 51.4872L41.4328 51.7376L41.7239 51.9881C43.1572 50.3224 44.5687 48.427 45.9589 46.3031L45.6376 46.0928ZM41.4328 51.7376H41.0488V51.968H41.4328H41.8168V51.7376H41.4328ZM41.4328 51.968C41.2198 51.6485 41.2198 51.6485 41.2198 51.6485C41.2198 51.6485 41.2198 51.6485 41.2198 51.6485C41.2198 51.6486 41.2198 51.6485 41.2197 51.6486C41.2197 51.6486 41.2198 51.6485 41.2197 51.6486C41.2197 51.6486 41.2197 51.6486 41.2197 51.6486C41.219 51.649 41.2201 51.6483 41.2195 51.6487C41.2195 51.6487 41.2194 51.6488 41.2194 51.6488C41.2193 51.6488 41.2193 51.6488 41.2193 51.6489C41.2166 51.6507 41.2214 51.6474 41.2186 51.6493C41.2183 51.6495 41.2186 51.6493 41.2182 51.6496C41.2178 51.6498 41.2182 51.6496 41.2178 51.6499C41.2164 51.6508 41.2144 51.6521 41.2117 51.6539C41.1912 51.6676 41.2234 51.6461 41.2016 51.6607C41.1887 51.6693 41.2082 51.6562 41.195 51.6651C41.1832 51.6729 41.1995 51.662 41.1874 51.6701C41.186 51.6711 41.1868 51.6705 41.1853 51.6715C41.1775 51.6767 41.1911 51.6677 41.1832 51.6729C41.1828 51.6732 41.1826 51.6734 41.1821 51.6736C41.1819 51.6738 41.1818 51.6739 41.1816 51.674C41.1814 51.6741 41.1812 51.6742 41.181 51.6744C41.1718 51.6805 41.188 51.6697 41.1788 51.6759C41.1555 51.6914 41.1928 51.6665 41.1692 51.6823C41.1616 51.6873 41.1558 51.6912 41.1469 51.6971C41.1443 51.6988 41.1371 51.7037 41.1342 51.7056C41.131 51.7077 41.1342 51.7056 41.1309 51.7078C41.1292 51.7089 41.1292 51.7089 41.1275 51.71C41.1248 51.7119 41.1268 51.7105 41.1241 51.7123C41.1232 51.7129 41.1215 51.7141 41.1206 51.7147C41.0967 51.7306 41.1154 51.7181 41.0902 51.7349C41.0898 51.7352 41.0865 51.7374 41.0861 51.7377C41.0858 51.7379 41.0854 51.7381 41.0851 51.7383C41.0847 51.7386 41.0844 51.7388 41.084 51.739C41.0839 51.7391 41.082 51.7404 41.082 51.7404C41.0816 51.7406 41.0813 51.7409 41.0809 51.7411C41.0806 51.7413 41.0802 51.7416 41.0799 51.7418C41.0792 51.7423 41.0785 51.7428 41.0777 51.7432C41.0694 51.7488 41.0818 51.7405 41.0735 51.7461C41.0658 51.7512 41.0725 51.7467 41.0647 51.7519C41.0621 51.7537 41.063 51.7531 41.0603 51.7549C41.0592 51.7556 41.0592 51.7556 41.058 51.7564C41.0576 51.7566 41.0573 51.7569 41.0569 51.7571C41.0565 51.7574 41.0561 51.7576 41.0558 51.7579C41.0517 51.7606 41.0553 51.7582 41.0512 51.7609C41.0411 51.7676 41.0566 51.7573 41.0465 51.764C41.044 51.7657 41.0467 51.7639 41.0442 51.7656C41.0438 51.7659 41.0434 51.7661 41.043 51.7664C41.0426 51.7667 41.0422 51.7669 41.0418 51.7672C41.0408 51.7679 41.0381 51.7697 41.037 51.7704C41.0132 51.7863 41.0414 51.7674 41.0173 51.7835C41.0038 51.7925 40.9896 51.802 40.9748 51.8119C40.9522 51.8269 40.9917 51.8006 40.9692 51.8156C40.9587 51.8226 40.9739 51.8124 40.9635 51.8194C40.9595 51.8221 40.956 51.8244 40.952 51.8271C40.9417 51.8339 40.9564 51.8241 40.9461 51.831C40.9456 51.8313 40.9451 51.8316 40.9446 51.832C40.9442 51.8323 40.9437 51.8326 40.9432 51.8329C40.9427 51.8333 40.9422 51.8336 40.9417 51.8339C40.9412 51.8343 40.9407 51.8346 40.9402 51.8349C40.9397 51.8352 40.9392 51.8356 40.9387 51.8359C40.9382 51.8362 40.9377 51.8366 40.9372 51.8369C40.9345 51.8387 40.9369 51.8371 40.9342 51.8389C40.927 51.8437 40.9354 51.8381 40.9282 51.8429C40.9232 51.8463 40.921 51.8477 40.9159 51.8511C40.9154 51.8515 40.9149 51.8518 40.9144 51.8521C40.9138 51.8525 40.9133 51.8528 40.9128 51.8532C40.912 51.8537 40.9105 51.8547 40.9097 51.8553C40.9049 51.8584 40.9113 51.8542 40.9065 51.8574C40.8947 51.8652 40.9152 51.8516 40.9034 51.8595C40.9014 51.8608 40.899 51.8624 40.897 51.8637C40.8965 51.8641 40.8959 51.8644 40.8954 51.8648C40.8949 51.8651 40.8943 51.8655 40.8938 51.8658C40.8844 51.8721 40.9 51.8617 40.8906 51.868C40.8892 51.8689 40.8855 51.8714 40.8841 51.8723C40.8836 51.8727 40.883 51.873 40.8825 51.8734C40.8819 51.8738 40.8814 51.8741 40.8808 51.8745C40.8789 51.8758 40.8795 51.8754 40.8776 51.8767C40.8577 51.8899 40.8709 51.8811 40.8507 51.8946C40.8339 51.9058 40.84 51.9017 40.8229 51.9131C40.8157 51.9179 40.8015 51.9274 40.794 51.9324C40.7677 51.9499 40.7908 51.9345 40.7642 51.9523C40.7615 51.9541 40.7054 51.9915 40.7014 51.9941L40.9144 52.3136L41.1274 52.6331C41.1515 52.6171 41.1674 52.6065 41.1902 52.5913C41.1938 52.5889 41.2167 52.5736 41.22 52.5714C41.2367 52.5603 41.2326 52.563 41.2489 52.5521C41.2525 52.5497 41.2594 52.5451 41.2629 52.5428C41.2649 52.5415 41.2644 52.5418 41.2664 52.5405C41.267 52.5401 41.2676 52.5397 41.2681 52.5393C41.2687 52.5389 41.2693 52.5385 41.2699 52.5382C41.2721 52.5367 41.2711 52.5374 41.2733 52.5359C41.2775 52.5331 41.2726 52.5363 41.2767 52.5336C41.2822 52.53 41.2985 52.5191 41.3036 52.5157C41.3298 52.4982 41.2839 52.5288 41.3101 52.5113C41.3115 52.5104 41.3152 52.5079 41.3166 52.507C41.3289 52.4988 41.3172 52.5066 41.3294 52.4985C41.3533 52.4826 41.3181 52.506 41.3419 52.4901C41.3548 52.4815 41.3414 52.4905 41.3542 52.4819C41.3576 52.4797 41.3568 52.4802 41.3602 52.4779C41.3708 52.4709 41.3557 52.4809 41.3662 52.4739C41.3688 52.4722 41.3666 52.4737 41.3692 52.472C41.3729 52.4695 41.3684 52.4725 41.3721 52.47C41.3745 52.4684 41.3756 52.4677 41.378 52.4661C41.3836 52.4623 41.384 52.4621 41.3895 52.4584C41.3915 52.4571 41.3988 52.4522 41.4008 52.4509C41.4158 52.4409 41.4079 52.4462 41.4225 52.4364C41.4323 52.4298 41.418 52.4394 41.4278 52.4329C41.4283 52.4326 41.4287 52.4323 41.4291 52.432C41.4296 52.4317 41.43 52.4314 41.4304 52.4311C41.4328 52.4296 41.4307 52.4309 41.433 52.4294C41.4426 52.423 41.4287 52.4323 41.4382 52.4259C41.4386 52.4257 41.4391 52.4254 41.4395 52.4251C41.4399 52.4248 41.4403 52.4245 41.4408 52.4242C41.442 52.4234 41.442 52.4234 41.4433 52.4225C41.4548 52.4149 41.4519 52.4168 41.463 52.4094C41.4928 52.3895 41.4523 52.4165 41.4818 52.3969C41.514 52.3754 41.4853 52.3945 41.5162 52.3739C41.5185 52.3724 41.5179 52.3728 41.5202 52.3713C41.5205 52.371 41.5209 52.3708 41.5212 52.3706C41.5215 52.3704 41.5219 52.3702 41.5222 52.3699C41.5225 52.3697 41.5229 52.3695 41.5232 52.3693C41.5235 52.3691 41.5238 52.3688 41.5242 52.3686C41.5272 52.3666 41.525 52.3681 41.5281 52.366C41.531 52.364 41.527 52.3667 41.53 52.3648C41.5303 52.3645 41.5306 52.3643 41.5309 52.3641C41.5313 52.3639 41.5316 52.3637 41.5319 52.3635C41.5385 52.3591 41.5328 52.3629 41.5394 52.3585C41.5415 52.3571 41.539 52.3587 41.5412 52.3573C41.5424 52.3564 41.5417 52.3569 41.543 52.3561C41.5463 52.3539 41.5415 52.3571 41.5448 52.3549C41.5464 52.3538 41.545 52.3547 41.5466 52.3537C41.5471 52.3533 41.5478 52.3529 41.5483 52.3525C41.5493 52.3519 41.5491 52.352 41.5501 52.3514C41.5515 52.3504 41.5521 52.35 41.5535 52.3491C41.5593 52.3452 41.5494 52.3518 41.5552 52.3479C41.5555 52.3477 41.5558 52.3475 41.5561 52.3474C41.5564 52.3472 41.5566 52.347 41.5569 52.3468C41.5774 52.3331 41.5398 52.3582 41.5602 52.3446C41.5796 52.3317 41.5474 52.3531 41.5667 52.3403C41.5683 52.3392 41.5667 52.3403 41.5683 52.3392C41.5692 52.3386 41.5689 52.3388 41.5698 52.3382C41.5756 52.3343 41.5656 52.341 41.5714 52.3372C41.5744 52.3351 41.5699 52.3382 41.5729 52.3361C41.5751 52.3347 41.5943 52.3219 41.5952 52.3213C41.5963 52.3206 41.5991 52.3187 41.6001 52.318C41.6012 52.3173 41.6038 52.3155 41.6048 52.3149C41.6079 52.3128 41.6028 52.3162 41.6059 52.3141C41.6066 52.3137 41.6064 52.3138 41.607 52.3134C41.6084 52.3125 41.6067 52.3136 41.6081 52.3127C41.6083 52.3125 41.6091 52.312 41.6092 52.3119C41.611 52.3107 41.6085 52.3124 41.6103 52.3112C41.6122 52.3099 41.6094 52.3118 41.6113 52.3105C41.6116 52.3104 41.6132 52.3093 41.6134 52.3091C41.6311 52.2974 41.6112 52.3106 41.6276 52.2997C41.6287 52.299 41.6324 52.2965 41.6331 52.296C41.6358 52.2942 41.6317 52.2969 41.6344 52.2952C41.6428 52.2896 41.6271 52.3 41.6355 52.2944C41.636 52.2941 41.6373 52.2932 41.6377 52.2929C41.6512 52.2839 41.6316 52.297 41.6438 52.2889C41.644 52.2887 41.6438 52.2889 41.644 52.2887C41.645 52.2881 41.6432 52.2892 41.6442 52.2886C41.6443 52.2886 41.6443 52.2885 41.6443 52.2885C41.6444 52.2885 41.6444 52.2885 41.6445 52.2884C41.6445 52.2884 41.6445 52.2884 41.6446 52.2884C41.6446 52.2883 41.6446 52.2883 41.6447 52.2883C41.6474 52.2864 41.6426 52.2897 41.6453 52.2879C41.6454 52.2878 41.6453 52.2878 41.6454 52.2878C41.6455 52.2878 41.6454 52.2878 41.6455 52.2877C41.6456 52.2877 41.6455 52.2877 41.6456 52.2877C41.6457 52.2876 41.6455 52.2877 41.6457 52.2876C41.6457 52.2876 41.6457 52.2876 41.6458 52.2876C41.6458 52.2875 41.6458 52.2876 41.6458 52.2875C41.6458 52.2875 41.6458 52.2875 41.6458 52.2875C41.6458 52.2875 41.6458 52.2875 41.4328 51.968ZM40.9144 52.3136L40.7014 51.9941C40.3533 52.2262 39.9289 52.5156 39.4286 52.8619L39.6472 53.1776L39.8658 53.4934C40.3639 53.1485 40.7843 52.8619 41.1274 52.6331L40.9144 52.3136ZM39.6472 53.1776L39.4459 52.8506C38.9232 53.1723 38.4576 53.5361 38.0509 53.9429L38.3224 54.2144L38.5939 54.486C38.9551 54.1248 39.3727 53.7974 39.8484 53.5047L39.6472 53.1776ZM38.3224 54.2144L38.037 53.9576C37.668 54.3675 37.42 54.8027 37.42 55.2512H37.804H38.188C38.188 55.0854 38.2855 54.8294 38.6078 54.4713L38.3224 54.2144ZM37.804 55.2512L38.1877 55.2374L38.0149 50.4566L37.6312 50.4704L37.2474 50.4843L37.4202 55.2651L37.804 55.2512ZM37.6312 50.4704L37.8442 50.7899L40.609 48.9467L40.396 48.6272L40.183 48.3077L37.4182 50.1509L37.6312 50.4704ZM40.396 48.6272L40.4254 49.0101L50.1598 48.2613L50.1304 47.8784L50.1009 47.4956L40.3665 48.2444L40.396 48.6272ZM50.1304 47.8784L49.7526 47.8097C49.5969 48.6658 49.4613 49.6353 49.3454 50.7175L49.7272 50.7584L50.109 50.7993C50.2234 49.7312 50.3566 48.7807 50.5082 47.9471L50.1304 47.8784ZM49.7272 50.7584L49.3455 50.716C49.23 51.7561 49.1524 52.6082 49.1134 53.2703L49.4968 53.2928L49.8801 53.3154C49.918 52.6719 49.994 51.8344 50.1088 50.8008L49.7272 50.7584ZM49.4968 53.2928L49.45 52.9117C47.2604 53.1806 45.4539 53.4112 44.031 53.6035L44.0824 53.984L44.1338 54.3646C45.5525 54.1729 47.3556 53.9427 49.5436 53.674L49.4968 53.2928ZM44.0824 53.984L44.04 53.6024C42.6534 53.7564 41.53 53.9112 40.6729 54.067L40.7416 54.4448L40.8103 54.8226C41.6427 54.6713 42.7465 54.5188 44.1248 54.3657L44.0824 53.984ZM40.7416 54.4448L40.6873 54.0647C39.8711 54.1813 39.2117 54.3196 38.7194 54.4837L38.8408 54.848L38.9622 55.2123C39.3914 55.0693 39.9992 54.9388 40.7959 54.825L40.7416 54.4448ZM38.8408 54.848L38.7397 54.4776C38.2979 54.5981 37.9193 54.743 37.6135 54.9178L37.804 55.2512L37.9945 55.5846C38.2262 55.4522 38.5389 55.3284 38.9418 55.2185L38.8408 54.848ZM36.1912 75.1232L36.2665 75.4998C37.9929 75.1545 39.9693 74.7707 42.1955 74.3485L42.124 73.9712L42.0524 73.594C39.8243 74.0165 37.8454 74.4008 36.1159 74.7467L36.1912 75.1232ZM42.124 73.9712L42.2018 74.3473C44.4301 73.8862 46.7927 73.3868 49.2896 72.849L49.2088 72.4736L49.1279 72.0982C46.6328 72.6357 44.2723 73.1346 42.0462 73.5952L42.124 73.9712ZM49.2088 72.4736L49.2896 72.849C49.3025 72.8463 49.3353 72.8392 49.3481 72.8364C49.361 72.8337 49.3938 72.8266 49.4066 72.8238C49.4195 72.8211 49.4523 72.814 49.4651 72.8112C49.478 72.8085 49.5108 72.8014 49.5236 72.7986C49.5365 72.7959 49.5693 72.7888 49.5821 72.786C49.595 72.7833 49.6278 72.7762 49.6406 72.7734C49.6535 72.7707 49.6863 72.7636 49.6991 72.7608C49.712 72.7581 49.7448 72.751 49.7576 72.7482C49.9031 72.7169 50.0802 72.6788 50.2256 72.6474C50.242 72.6439 50.3263 72.6257 50.3426 72.6222C50.359 72.6187 50.4433 72.6005 50.4596 72.597C50.476 72.5935 50.5603 72.5753 50.5766 72.5718C50.593 72.5683 50.6773 72.5501 50.6936 72.5466C50.71 72.5431 50.7943 72.5249 50.8106 72.5214C50.827 72.5179 50.9113 72.4997 50.9276 72.4962C50.944 72.4927 51.0283 72.4745 51.0446 72.471C51.061 72.4675 51.1453 72.4493 51.1616 72.4458C51.178 72.4423 51.2623 72.4241 51.2786 72.4206C51.295 72.4171 51.3793 72.3989 51.3956 72.3954C51.412 72.3919 51.4963 72.3737 51.5126 72.3702C51.529 72.3667 51.6133 72.3485 51.6296 72.345C51.646 72.3415 51.7303 72.3233 51.7466 72.3198C51.763 72.3163 51.8473 72.2981 51.8636 72.2946C51.88 72.2911 51.9643 72.2729 51.9806 72.2694C51.997 72.2659 52.0813 72.2477 52.0976 72.2442C52.114 72.2407 52.1983 72.2225 52.2146 72.219C52.231 72.2155 52.3153 72.1973 52.3316 72.1938C52.348 72.1903 52.4323 72.1721 52.4486 72.1686C52.465 72.1651 52.5493 72.1469 52.5656 72.1434C52.582 72.1399 52.6663 72.1217 52.6826 72.1182C52.7471 72.1043 52.7352 72.1069 52.7996 72.093C52.816 72.0895 52.9003 72.0714 52.9166 72.0678C52.933 72.0643 53.0173 72.0462 53.0336 72.0426C53.0506 72.039 53.0459 72.04 53.0629 72.0363C53.0689 72.035 53.0861 72.0313 53.0921 72.03C53.1091 72.0264 53.1044 72.0274 53.1214 72.0237C53.1394 72.0198 53.1326 72.0213 53.1506 72.0174C53.1676 72.0138 53.1629 72.0148 53.1799 72.0111C53.1979 72.0072 53.1911 72.0087 53.2091 72.0048C53.2261 72.0012 53.2214 72.0022 53.2384 71.9985C53.2444 71.9972 53.2616 71.9935 53.2676 71.9922C53.2846 71.9886 53.2799 71.9896 53.2969 71.9859C53.3029 71.9846 53.3201 71.9809 53.3261 71.9796C53.3431 71.976 53.3384 71.977 53.3554 71.9733C53.3734 71.9694 53.3666 71.9709 53.3846 71.967C53.4016 71.9634 53.3969 71.9644 53.4139 71.9607C53.4319 71.9568 53.4251 71.9583 53.4431 71.9544C53.4601 71.9508 53.4554 71.9518 53.4724 71.9481C53.4904 71.9442 53.4836 71.9457 53.5016 71.9418C53.5186 71.9382 53.5139 71.9392 53.5309 71.9355C53.5369 71.9342 53.5541 71.9305 53.5601 71.9292C53.5771 71.9256 53.5724 71.9266 53.5894 71.9229C53.6074 71.919 53.6006 71.9205 53.6186 71.9166C53.6356 71.913 53.6309 71.914 53.6479 71.9103C53.6659 71.9064 53.6591 71.9079 53.6771 71.904C53.6941 71.9004 53.6894 71.9014 53.7064 71.8977C53.7124 71.8964 53.7296 71.8927 53.7356 71.8914C53.7526 71.8878 53.7479 71.8888 53.7649 71.8851C53.7709 71.8838 53.7881 71.8801 53.7941 71.8788C53.8111 71.8752 53.8064 71.8762 53.8234 71.8725C53.8414 71.8686 53.8346 71.8701 53.8526 71.8662C53.8696 71.8626 53.8649 71.8636 53.8819 71.8599C53.8999 71.856 53.8931 71.8575 53.9111 71.8536C53.9281 71.85 53.9234 71.851 53.9404 71.8473C53.9584 71.8434 53.9516 71.8449 53.9696 71.841C53.9866 71.8374 53.9819 71.8384 53.9989 71.8347C54.0049 71.8334 54.0221 71.8297 54.0281 71.8284C54.0451 71.8248 54.0404 71.8258 54.0574 71.8221C54.0754 71.8182 54.0686 71.8197 54.0866 71.8158C54.1036 71.8122 54.0989 71.8132 54.1159 71.8095C54.1339 71.8056 54.1271 71.8071 54.1451 71.8032C54.1621 71.7996 54.1574 71.8006 54.1744 71.7969C54.1804 71.7956 54.1976 71.7919 54.2036 71.7906C54.2206 71.787 54.2159 71.788 54.2329 71.7843C54.2389 71.783 54.2561 71.7793 54.2621 71.778C54.2791 71.7744 54.2744 71.7754 54.2914 71.7717C54.3094 71.7678 54.3026 71.7693 54.3206 71.7654C54.3376 71.7618 54.3329 71.7628 54.3499 71.7591C54.3679 71.7552 54.3611 71.7567 54.3791 71.7528C54.3961 71.7492 54.3914 71.7502 54.4084 71.7465C54.4264 71.7426 54.4196 71.7441 54.4376 71.7402C54.4546 71.7366 54.4499 71.7376 54.4669 71.7339C54.4729 71.7326 54.4901 71.7289 54.4961 71.7276C54.5131 71.724 54.5084 71.725 54.5254 71.7213C54.5434 71.7174 54.5366 71.7189 54.5546 71.715C54.5716 71.7114 54.5669 71.7124 54.5839 71.7087C54.6019 71.7048 54.5951 71.7063 54.6131 71.7024C54.6301 71.6988 54.6254 71.6998 54.6424 71.6961C54.6484 71.6948 54.6656 71.6911 54.6716 71.6898C54.6886 71.6862 54.6839 71.6872 54.7009 71.6835C54.7069 71.6822 54.7241 71.6785 54.7301 71.6772C54.7471 71.6736 54.7424 71.6746 54.7594 71.6709C54.7774 71.667 54.7706 71.6685 54.7886 71.6646C54.8056 71.661 54.8009 71.662 54.8179 71.6583C54.8359 71.6544 54.8291 71.6559 54.8471 71.652C54.8641 71.6484 54.8594 71.6494 54.8764 71.6457C54.8944 71.6418 54.8876 71.6433 54.9056 71.6394C54.9226 71.6358 54.9179 71.6368 54.9349 71.6331C54.9409 71.6318 54.9581 71.6281 54.9641 71.6268C54.9811 71.6232 54.9764 71.6242 54.9934 71.6205C55.0114 71.6166 55.0046 71.6181 55.0226 71.6142C55.0396 71.6106 55.0349 71.6116 55.0519 71.6079C55.0699 71.604 55.0631 71.6055 55.0811 71.6016C55.0981 71.598 55.0934 71.599 55.1104 71.5953C55.1164 71.594 55.1336 71.5903 55.1396 71.589C55.1566 71.5854 55.1519 71.5864 55.1689 71.5827C55.1749 71.5814 55.1921 71.5777 55.1981 71.5764C55.2151 71.5728 55.2104 71.5738 55.2274 71.5701C55.2454 71.5662 55.2386 71.5677 55.2566 71.5638C55.2736 71.5602 55.2689 71.5612 55.2859 71.5575C55.3039 71.5536 55.2971 71.5551 55.3151 71.5512C55.3321 71.5476 55.3274 71.5486 55.3444 71.5449C55.3624 71.541 55.3556 71.5425 55.3736 71.5386C55.4775 71.5163 55.5038 71.5106 55.6076 71.4882C55.6462 71.4799 55.6276 71.4839 55.6661 71.4756C55.671 71.4746 55.6759 71.4735 55.6808 71.4725C55.6856 71.4714 55.6905 71.4704 55.6954 71.4693C55.7003 71.4683 55.7051 71.4672 55.71 71.4662C55.7149 71.4651 55.7198 71.4641 55.7246 71.463C55.7295 71.462 55.7344 71.4609 55.7393 71.4599C55.7441 71.4588 55.749 71.4578 55.7539 71.4567C55.779 71.4513 55.7581 71.4558 55.7831 71.4504C55.788 71.4494 55.7929 71.4483 55.7978 71.4473C55.8026 71.4462 55.8075 71.4452 55.8124 71.4441C55.8173 71.4431 55.8221 71.442 55.827 71.441C55.8319 71.4399 55.8368 71.4389 55.8416 71.4378C55.902 71.4248 55.8983 71.4256 55.9586 71.4126C55.972 71.4098 56.0038 71.4029 56.0171 71.4C56.0305 71.3972 56.0623 71.3903 56.0756 71.3874C56.1276 71.3762 56.1407 71.3734 56.1926 71.3622C56.2446 71.351 56.2577 71.3482 56.3096 71.337C56.3616 71.3258 56.3747 71.323 56.4266 71.3118C56.44 71.309 56.4718 71.3021 56.4851 71.2992C56.4985 71.2964 56.5303 71.2895 56.5436 71.2866C56.5956 71.2754 56.6087 71.2726 56.6606 71.2614C56.7126 71.2502 56.7257 71.2474 56.7776 71.2362L56.6968 70.8608L56.6159 70.4854C56.4588 70.5193 56.305 70.5524 56.1479 70.5862C56.1477 70.5863 56.119 70.5925 56.1187 70.5925C56.0887 70.599 56.1194 70.5924 56.0894 70.5988C56.0813 70.6006 56.0683 70.6034 56.0602 70.6051C56.0302 70.6116 56.0609 70.605 56.0309 70.6114C56.0307 70.6115 56.002 70.6177 56.0017 70.6177C55.9717 70.6242 56.0024 70.6176 55.9724 70.624C55.9643 70.6258 55.9513 70.6286 55.9432 70.6303C55.9132 70.6368 55.9439 70.6302 55.9139 70.6366C55.9137 70.6367 55.885 70.6429 55.8847 70.6429C55.8547 70.6494 55.8854 70.6428 55.8554 70.6492C55.8473 70.651 55.8343 70.6538 55.8262 70.6555C55.7962 70.662 55.8269 70.6554 55.7969 70.6618C55.7888 70.6636 55.7758 70.6664 55.7677 70.6681C55.7628 70.6692 55.7579 70.6702 55.7531 70.6713C55.7482 70.6723 55.7433 70.6734 55.7384 70.6744C55.7336 70.6755 55.7287 70.6765 55.7238 70.6776C55.7189 70.6786 55.7141 70.6797 55.7092 70.6807C55.7043 70.6818 55.6994 70.6828 55.6946 70.6839C55.6897 70.6849 55.6848 70.686 55.6799 70.687C55.6632 70.6907 55.5797 70.7086 55.5629 70.7122C55.5462 70.7159 55.4627 70.7338 55.4459 70.7374C55.4148 70.7441 55.4478 70.737 55.4167 70.7437C55.4118 70.7448 55.4069 70.7458 55.4021 70.7469C55.3972 70.7479 55.3923 70.749 55.3874 70.75C55.3771 70.7523 55.3685 70.7541 55.3582 70.7563C55.3533 70.7574 55.3484 70.7584 55.3436 70.7595C55.3387 70.7605 55.3338 70.7616 55.3289 70.7626C55.3229 70.7639 55.3057 70.7677 55.2997 70.7689C55.2948 70.77 55.2899 70.771 55.2851 70.7721C55.2802 70.7731 55.2753 70.7742 55.2704 70.7752C55.2644 70.7765 55.2472 70.7803 55.2412 70.7815C55.2363 70.7826 55.2314 70.7836 55.2266 70.7847C55.2217 70.7857 55.2168 70.7868 55.2119 70.7878C55.2071 70.7889 55.2022 70.7899 55.1973 70.791C55.1924 70.792 55.1876 70.7931 55.1827 70.7941C55.1778 70.7952 55.1729 70.7962 55.1681 70.7973C55.1632 70.7983 55.1583 70.7994 55.1534 70.8004C55.1474 70.8017 55.1302 70.8055 55.1242 70.8067C55.1193 70.8078 55.1144 70.8088 55.1096 70.8099C55.1047 70.8109 55.0998 70.812 55.0949 70.813C55.0901 70.8141 55.0852 70.8151 55.0803 70.8162C55.0754 70.8172 55.0706 70.8183 55.0657 70.8193C55.0608 70.8204 55.0559 70.8214 55.0511 70.8225C55.0462 70.8235 55.0413 70.8246 55.0364 70.8256C55.0304 70.8269 55.0132 70.8307 55.0072 70.8319C55.0023 70.833 54.9974 70.834 54.9926 70.8351C54.9877 70.8361 54.9828 70.8372 54.9779 70.8382C54.9731 70.8393 54.9682 70.8403 54.9633 70.8414C54.9584 70.8424 54.9536 70.8435 54.9487 70.8445C54.9438 70.8456 54.9389 70.8466 54.9341 70.8477C54.9292 70.8487 54.9243 70.8498 54.9194 70.8508C54.9146 70.8519 54.9097 70.8529 54.9048 70.854C54.8999 70.855 54.8951 70.8561 54.8902 70.8571C54.8853 70.8582 54.8804 70.8592 54.8756 70.8603C54.8707 70.8613 54.8658 70.8624 54.8609 70.8634C54.8549 70.8647 54.8377 70.8685 54.8317 70.8697C54.8268 70.8708 54.8219 70.8718 54.8171 70.8729C54.8122 70.8739 54.8073 70.875 54.8024 70.876C54.7964 70.8773 54.7792 70.8811 54.7732 70.8823C54.7683 70.8834 54.7634 70.8844 54.7586 70.8855C54.7537 70.8865 54.7488 70.8876 54.7439 70.8886C54.7391 70.8897 54.7342 70.8907 54.7293 70.8918C54.7244 70.8928 54.7196 70.8939 54.7147 70.8949C54.7098 70.896 54.7049 70.897 54.7001 70.8981C54.6952 70.8991 54.6903 70.9002 54.6854 70.9012C54.6794 70.9025 54.6622 70.9062 54.6562 70.9075C54.6513 70.9086 54.6464 70.9096 54.6416 70.9107C54.6367 70.9117 54.6318 70.9128 54.6269 70.9138C54.6221 70.9149 54.6172 70.9159 54.6123 70.917C54.6074 70.918 54.6026 70.9191 54.5977 70.9201C54.5928 70.9212 54.5879 70.9222 54.5831 70.9233C54.5782 70.9243 54.5733 70.9254 54.5684 70.9264C54.5624 70.9277 54.5452 70.9314 54.5392 70.9327C54.5343 70.9338 54.5294 70.9348 54.5246 70.9359C54.5197 70.9369 54.5148 70.938 54.5099 70.939C54.5051 70.9401 54.5002 70.9411 54.4953 70.9422C54.4904 70.9432 54.4856 70.9443 54.4807 70.9453C54.4758 70.9464 54.4709 70.9474 54.4661 70.9485C54.4612 70.9495 54.4563 70.9506 54.4514 70.9516C54.4466 70.9527 54.4417 70.9537 54.4368 70.9548C54.4319 70.9558 54.4271 70.9569 54.4222 70.9579C54.4173 70.959 54.4124 70.96 54.4076 70.9611C54.4027 70.9621 54.3978 70.9632 54.3929 70.9642C54.3869 70.9655 54.3697 70.9693 54.3637 70.9705C54.3588 70.9716 54.3539 70.9726 54.3491 70.9737C54.3442 70.9747 54.3393 70.9758 54.3344 70.9768C54.3284 70.9781 54.3112 70.9818 54.3052 70.9831C54.3003 70.9842 54.2954 70.9852 54.2906 70.9863C54.2857 70.9873 54.2808 70.9884 54.2759 70.9894C54.2711 70.9905 54.2662 70.9915 54.2613 70.9926C54.2564 70.9936 54.2516 70.9947 54.2467 70.9957C54.2418 70.9968 54.2369 70.9978 54.2321 70.9989C54.2272 70.9999 54.2223 71.001 54.2174 71.002C54.2114 71.0033 54.1942 71.007 54.1882 71.0083C54.1833 71.0094 54.1784 71.0104 54.1736 71.0115C54.1687 71.0125 54.1638 71.0136 54.1589 71.0146C54.1541 71.0157 54.1492 71.0167 54.1443 71.0178C54.1394 71.0188 54.1346 71.0199 54.1297 71.0209C54.1248 71.022 54.1199 71.023 54.1151 71.0241C54.1102 71.0251 54.1053 71.0262 54.1004 71.0272C54.0944 71.0285 54.0772 71.0322 54.0712 71.0335C54.0663 71.0346 54.0614 71.0356 54.0566 71.0367C54.0517 71.0377 54.0468 71.0388 54.0419 71.0398C54.0371 71.0409 54.0322 71.0419 54.0273 71.043C54.0224 71.044 54.0176 71.0451 54.0127 71.0461C54.0037 71.0481 53.9924 71.0505 53.9834 71.0524C53.9786 71.0535 53.9737 71.0545 53.9688 71.0556C53.9639 71.0566 53.9591 71.0577 53.9542 71.0587C53.9493 71.0598 53.9444 71.0608 53.9396 71.0619C53.9347 71.0629 53.9298 71.064 53.9249 71.065C53.9189 71.0663 53.9017 71.0701 53.8957 71.0713C53.8867 71.0733 53.8754 71.0757 53.8664 71.0776C53.8604 71.0789 53.8432 71.0827 53.8372 71.0839C53.8323 71.085 53.8274 71.086 53.8226 71.0871C53.8177 71.0881 53.8128 71.0892 53.8079 71.0902C53.8031 71.0913 53.7982 71.0923 53.7933 71.0934C53.7884 71.0944 53.7836 71.0955 53.7787 71.0965C53.7697 71.0985 53.7584 71.1009 53.7494 71.1028C53.7434 71.1041 53.7262 71.1079 53.7202 71.1091C53.7153 71.1102 53.7104 71.1112 53.7056 71.1123C53.7007 71.1133 53.6958 71.1144 53.6909 71.1154C53.6861 71.1165 53.6812 71.1175 53.6763 71.1186C53.6714 71.1196 53.6666 71.1207 53.6617 71.1217C53.6527 71.1237 53.6414 71.1261 53.6324 71.128C53.6264 71.1293 53.6092 71.1331 53.6032 71.1343C53.5983 71.1354 53.5934 71.1364 53.5886 71.1375C53.5837 71.1385 53.5788 71.1396 53.5739 71.1406C53.5691 71.1417 53.5642 71.1427 53.5593 71.1438C53.5544 71.1448 53.5496 71.1459 53.5447 71.1469C53.5357 71.1489 53.5244 71.1513 53.5154 71.1532C53.5106 71.1543 53.5057 71.1553 53.5008 71.1564C53.4959 71.1574 53.4911 71.1585 53.4862 71.1595C53.4813 71.1606 53.4764 71.1616 53.4716 71.1627C53.4667 71.1637 53.4618 71.1648 53.4569 71.1658C53.4509 71.1671 53.4337 71.1709 53.4277 71.1721C53.4187 71.1741 53.4074 71.1765 53.3984 71.1784C53.3924 71.1797 53.3752 71.1835 53.3692 71.1847C53.3643 71.1858 53.3594 71.1868 53.3546 71.1879C53.3497 71.1889 53.3448 71.19 53.3399 71.191C53.3351 71.1921 53.3302 71.1931 53.3253 71.1942C53.3204 71.1952 53.3156 71.1963 53.3107 71.1973C53.3017 71.1993 53.2904 71.2017 53.2814 71.2036C53.2754 71.2049 53.2582 71.2087 53.2522 71.2099C53.2473 71.211 53.2424 71.212 53.2376 71.2131C53.2327 71.2141 53.2278 71.2152 53.2229 71.2162C53.2181 71.2173 53.2132 71.2183 53.2083 71.2194C53.2034 71.2204 53.1986 71.2215 53.1937 71.2225C53.1847 71.2245 53.1734 71.2269 53.1644 71.2288C53.1584 71.2301 53.1412 71.2339 53.1352 71.2351C53.1303 71.2362 53.1254 71.2372 53.1206 71.2383C53.1157 71.2393 53.1108 71.2404 53.1059 71.2414C53.1011 71.2425 53.0962 71.2435 53.0913 71.2446C53.0864 71.2456 53.0816 71.2467 53.0767 71.2477C53.0677 71.2497 53.0564 71.2521 53.0474 71.254C53.0426 71.2551 53.0377 71.2561 53.0328 71.2572C53.0279 71.2582 53.0231 71.2593 53.0182 71.2603C53.0133 71.2614 53.0084 71.2624 53.0036 71.2635C52.9987 71.2645 52.9938 71.2656 52.9889 71.2666C52.9829 71.2679 52.9657 71.2717 52.9597 71.2729C52.9507 71.2749 52.9394 71.2773 52.9304 71.2792C52.9244 71.2805 52.9072 71.2843 52.9012 71.2855C52.8963 71.2866 52.8914 71.2876 52.8866 71.2887C52.8817 71.2897 52.8768 71.2908 52.8719 71.2918C52.8671 71.2929 52.8622 71.2939 52.8573 71.295C52.8524 71.296 52.8476 71.2971 52.8427 71.2981C52.8297 71.3009 52.8264 71.3016 52.8134 71.3044C52.7952 71.3084 52.7732 71.3131 52.7549 71.317C52.7501 71.3181 52.7452 71.3191 52.7403 71.3202C52.7354 71.3212 52.7306 71.3223 52.7257 71.3233C52.7208 71.3244 52.7159 71.3254 52.7111 71.3265C52.7062 71.3275 52.7013 71.3286 52.6964 71.3296C52.6916 71.3307 52.6867 71.3317 52.6818 71.3328C52.6769 71.3338 52.6721 71.3349 52.6672 71.3359C52.6623 71.337 52.6574 71.338 52.6526 71.3391C52.6477 71.3401 52.6428 71.3412 52.6379 71.3422C52.6197 71.3462 52.5977 71.3509 52.5794 71.3548C52.5612 71.3588 52.5392 71.3635 52.5209 71.3674C52.5161 71.3685 52.5112 71.3695 52.5063 71.3706C52.5014 71.3716 52.4966 71.3727 52.4917 71.3737C52.4868 71.3748 52.4819 71.3758 52.4771 71.3769C52.4722 71.3779 52.4673 71.379 52.4624 71.38C52.4442 71.384 52.4222 71.3887 52.4039 71.3926C52.3991 71.3937 52.3942 71.3947 52.3893 71.3958C52.3844 71.3968 52.3796 71.3979 52.3747 71.3989C52.3617 71.4017 52.3584 71.4024 52.3454 71.4052C52.3272 71.4092 52.3052 71.4139 52.2869 71.4178C52.2821 71.4189 52.2772 71.4199 52.2723 71.421C52.2674 71.422 52.2626 71.4231 52.2577 71.4241C52.2528 71.4252 52.2479 71.4262 52.2431 71.4273C52.2382 71.4283 52.2333 71.4294 52.2284 71.4304C52.2102 71.4344 52.1882 71.4391 52.1699 71.443C52.1651 71.4441 52.1602 71.4451 52.1553 71.4462C52.1504 71.4472 52.1456 71.4483 52.1407 71.4493C52.1277 71.4521 52.1244 71.4528 52.1114 71.4556C52.0932 71.4596 52.0712 71.4643 52.0529 71.4682C52.0481 71.4693 52.0432 71.4703 52.0383 71.4714C52.0334 71.4724 52.0286 71.4735 52.0237 71.4745C52.0188 71.4756 52.0139 71.4766 52.0091 71.4777C52.0042 71.4787 51.9993 71.4798 51.9944 71.4808C51.9762 71.4848 51.9542 71.4895 51.9359 71.4934C51.9311 71.4945 51.9262 71.4955 51.9213 71.4966C51.9164 71.4976 51.9116 71.4987 51.9067 71.4997C51.8937 71.5025 51.8904 71.5032 51.8774 71.506C51.8592 71.51 51.8372 71.5147 51.8189 71.5186C51.8141 71.5197 51.8092 71.5207 51.8043 71.5218C51.7994 71.5228 51.7946 71.5239 51.7897 71.5249C51.7848 71.526 51.7799 71.527 51.7751 71.5281C51.7702 71.5291 51.7653 71.5302 51.7604 71.5312C51.7422 71.5352 51.7202 71.5399 51.7019 71.5438C51.6971 71.5449 51.6922 71.5459 51.6873 71.547C51.6824 71.548 51.6776 71.5491 51.6727 71.5501C51.6597 71.5529 51.6564 71.5536 51.6434 71.5564C51.6252 71.5604 51.6032 71.5651 51.5849 71.569C51.5801 71.5701 51.5752 71.5711 51.5703 71.5722C51.5654 71.5732 51.5606 71.5743 51.5557 71.5753C51.5508 71.5764 51.5459 71.5774 51.5411 71.5785C51.5362 71.5795 51.5313 71.5806 51.5264 71.5816C51.5082 71.5856 51.4862 71.5903 51.4679 71.5942C51.4631 71.5953 51.4582 71.5963 51.4533 71.5974C51.4484 71.5984 51.4436 71.5995 51.4387 71.6005C51.4257 71.6033 51.4224 71.604 51.4094 71.6068C51.3912 71.6108 51.3692 71.6155 51.3509 71.6194C51.3461 71.6205 51.3412 71.6215 51.3363 71.6226C51.3314 71.6236 51.3266 71.6247 51.3217 71.6257C51.3168 71.6268 51.3119 71.6278 51.3071 71.6289C51.3022 71.6299 51.2973 71.631 51.2924 71.632C51.2742 71.636 51.2522 71.6407 51.2339 71.6446C51.2291 71.6457 51.2242 71.6467 51.2193 71.6478C51.2144 71.6488 51.2096 71.6499 51.2047 71.6509C51.1917 71.6537 51.1884 71.6544 51.1754 71.6572C51.1572 71.6612 51.1352 71.6659 51.1169 71.6698C51.1121 71.6709 51.1072 71.6719 51.1023 71.673C51.0974 71.674 51.0926 71.6751 51.0877 71.6761C51.0828 71.6772 51.0779 71.6782 51.0731 71.6793C51.0682 71.6803 51.0633 71.6814 51.0584 71.6824C51.0402 71.6864 51.0182 71.6911 50.9999 71.695C50.9951 71.6961 50.9902 71.6971 50.9853 71.6982C50.9804 71.6992 50.9756 71.7003 50.9707 71.7013C50.9577 71.7041 50.9544 71.7048 50.9414 71.7076C50.9232 71.7116 50.9012 71.7163 50.8829 71.7202C50.8781 71.7213 50.8732 71.7223 50.8683 71.7234C50.8634 71.7244 50.8586 71.7255 50.8537 71.7265C50.8488 71.7276 50.8439 71.7286 50.8391 71.7297C50.8342 71.7307 50.8293 71.7318 50.8244 71.7328C50.8062 71.7368 50.7842 71.7415 50.7659 71.7454C50.7611 71.7465 50.7562 71.7475 50.7513 71.7486C50.7464 71.7496 50.7416 71.7507 50.7367 71.7517C50.7237 71.7545 50.7204 71.7552 50.7074 71.758C50.6892 71.762 50.6672 71.7667 50.6489 71.7706C50.6441 71.7717 50.6392 71.7727 50.6343 71.7738C50.6294 71.7748 50.6246 71.7759 50.6197 71.7769C50.6148 71.778 50.6099 71.779 50.6051 71.7801C50.6002 71.7811 50.5953 71.7822 50.5904 71.7832C50.5722 71.7872 50.5502 71.7919 50.5319 71.7958C50.5271 71.7969 50.5222 71.7979 50.5173 71.799C50.5124 71.8 50.5076 71.8011 50.5027 71.8021C50.4897 71.8049 50.4864 71.8056 50.4734 71.8084C50.4552 71.8124 50.4332 71.8171 50.4149 71.821C50.4101 71.8221 50.4052 71.8231 50.4003 71.8242C50.3954 71.8252 50.3906 71.8263 50.3857 71.8273C50.3808 71.8284 50.3759 71.8294 50.3711 71.8305C50.3662 71.8315 50.3613 71.8326 50.3564 71.8336C50.3382 71.8376 50.3162 71.8423 50.2979 71.8462C50.2931 71.8473 50.2882 71.8483 50.2833 71.8494C50.2784 71.8504 50.2736 71.8515 50.2687 71.8525C50.2557 71.8553 50.2524 71.856 50.2394 71.8588C50.2212 71.8628 50.1992 71.8675 50.1809 71.8714C50.1761 71.8725 50.1712 71.8735 50.1663 71.8746C50.1614 71.8756 50.1566 71.8767 50.1517 71.8777C50.1468 71.8788 50.1419 71.8798 50.1371 71.8809C50.1322 71.8819 50.1273 71.883 50.1224 71.884C50.1042 71.888 50.0822 71.8927 50.0639 71.8966C49.7719 71.9595 49.42 72.0353 49.1279 72.0982L49.2088 72.4736ZM56.6968 70.8608L56.315 70.9024L56.9486 76.72L57.3304 76.6784L57.7121 76.6369L57.0785 70.8193L56.6968 70.8608ZM57.3304 76.6784L57.2314 76.3074C53.7771 77.2286 50.3035 78.1306 46.8107 79.0133L46.9048 79.3856L46.9989 79.7579C50.4949 78.8743 53.9717 77.9715 57.4293 77.0495L57.3304 76.6784ZM46.9048 79.3856L46.8107 79.0133C43.3159 79.8966 40.1474 80.7032 37.3053 81.4329L37.4008 81.8048L37.4963 82.1768C40.3373 81.4473 43.5048 80.641 46.9989 79.7579L46.9048 79.3856ZM37.4008 81.8048L37.7786 81.7364L36.569 75.0548L36.1912 75.1232L35.8133 75.1916L37.0229 81.8732L37.4008 81.8048ZM72.8824 37.6256V38.0096H79.7368V37.6256V37.2416H72.8824V37.6256ZM79.7368 37.6256L79.3529 37.6183C79.276 41.6539 79.2568 45.5936 79.2952 49.4375L79.6792 49.4336L80.0632 49.4298C80.0248 45.5937 80.044 41.6614 80.1207 37.6329L79.7368 37.6256ZM79.6792 49.4336L79.2953 49.4414C79.3722 53.2471 79.5067 56.8231 79.699 60.1693L80.0824 60.1472L80.4658 60.1252C80.2741 56.7897 80.1398 53.2233 80.0631 49.4259L79.6792 49.4336ZM80.0824 60.1472L79.6993 60.174C79.9301 63.4825 80.2189 66.3907 80.566 68.8975L80.9464 68.8448L81.3268 68.7922C80.9827 66.307 80.6954 63.4168 80.4655 60.1205L80.0824 60.1472ZM80.9464 68.8448L80.5669 68.9032C80.9522 71.4077 81.3783 73.3893 81.8483 74.8385L82.2136 74.72L82.5789 74.6016C82.1273 73.2092 81.7086 71.2739 81.3259 68.7864L80.9464 68.8448ZM82.2136 74.72L81.8483 74.8385C82.0838 75.5645 82.3437 76.1417 82.6378 76.5448C82.9299 76.9451 83.3039 77.2352 83.7688 77.2352V76.8512V76.4672C83.6576 76.4672 83.4845 76.4022 83.2582 76.0921C83.0339 75.7848 82.8042 75.2963 82.5789 74.6016L82.2136 74.72ZM83.7688 76.8512V77.2352C84.0013 77.2352 84.187 77.1204 84.3212 76.9746C84.4504 76.8344 84.5495 76.6488 84.63 76.445C84.7915 76.0358 84.9163 75.4512 85.0135 74.7125L84.6328 74.6624L84.2521 74.6123C84.1573 75.3329 84.042 75.8427 83.9156 76.163C83.852 76.3241 83.7952 76.4121 83.7563 76.4543C83.7226 76.4909 83.7283 76.4672 83.7688 76.4672V76.8512ZM84.6328 74.6624L85.0135 74.7125C85.2086 73.23 85.3239 71.0035 85.3624 68.0434L84.9784 68.0384L84.5944 68.0335C84.5561 70.987 84.441 73.1765 84.2521 74.6123L84.6328 74.6624ZM84.9784 68.0384L84.7069 68.31C85.4578 69.0609 86.3431 69.7684 87.3602 70.4334L87.5704 70.112L87.7805 69.7906C86.8009 69.1501 85.9582 68.4752 85.2499 67.7669L84.9784 68.0384ZM87.5704 70.112L87.3658 70.437C88.4175 71.0992 89.3993 71.6107 90.3105 71.9672L90.4504 71.6096L90.5903 71.252C89.7351 70.9174 88.7969 70.4305 87.775 69.7871L87.5704 70.112ZM90.4504 71.6096L90.0677 71.5774C89.8 74.7522 89.3619 77.1716 88.7638 78.8538L89.1256 78.9824L89.4874 79.1111C90.1181 77.3372 90.5632 74.8415 90.833 71.6419L90.4504 71.6096ZM89.1256 78.9824L88.7613 78.861C88.199 80.548 87.4504 81.6461 86.5538 82.2322L86.764 82.5536L86.9741 82.875C88.0744 82.1556 88.9002 80.8729 89.4899 79.1039L89.1256 78.9824ZM86.764 82.5536L86.5396 82.242C85.6605 82.875 84.5162 83.2064 83.0776 83.2064V83.5904V83.9744C84.6342 83.9744 85.9475 83.6147 86.9884 82.8653L86.764 82.5536ZM83.0776 83.5904V83.2064C81.4162 83.2064 80.0073 82.4383 78.8377 80.8302L78.5272 81.056L78.2166 81.2819C79.5047 83.053 81.1294 83.9744 83.0776 83.9744V83.5904ZM78.5272 81.056L78.8411 80.8349C77.688 79.1982 76.7431 76.9248 76.02 73.9944L75.6472 74.0864L75.2744 74.1784C76.0105 77.1616 76.9856 79.5347 78.2133 81.2772L78.5272 81.056ZM75.6472 74.0864L76.02 73.9944C75.2954 71.0581 74.722 67.6579 74.3009 63.7921L73.9192 63.8336L73.5374 63.8752C73.9612 67.7661 74.5397 71.2012 75.2744 74.1784L75.6472 74.0864ZM73.9192 63.8336L74.3013 63.7958C73.9182 59.9266 73.6499 55.7685 73.4966 51.3212L73.1128 51.3344L72.729 51.3477C72.8829 55.8092 73.1521 59.9838 73.5371 63.8715L73.9192 63.8336ZM73.1128 51.3344L73.4967 51.3246C73.3815 46.8341 73.3048 42.2667 73.2664 37.6225L72.8824 37.6256L72.4984 37.6288C72.5368 42.2774 72.6137 46.8492 72.7289 51.3443L73.1128 51.3344ZM63.436 52.0256V52.4096H89.068V52.0256V51.6416H63.436V52.0256ZM89.068 52.0256H88.684V58.4192H89.068H89.452V52.0256H89.068ZM89.068 58.4192V58.0352H63.436V58.4192V58.8032H89.068V58.4192ZM63.436 58.4192H63.82V52.0256H63.436H63.052V58.4192H63.436ZM83.8264 30.5984L83.5334 30.8466L88.3142 36.4914L88.6072 36.2432L88.9002 35.9951L84.1194 30.3503L83.8264 30.5984ZM88.6072 36.2432L88.5003 35.8744C85.8612 36.6394 82.9907 37.3475 79.8883 37.9986L79.9672 38.3744L80.0461 38.7503C83.1645 38.0958 86.054 37.3831 88.7141 36.6121L88.6072 36.2432ZM79.9672 38.3744L79.8928 37.9977C76.7877 38.6111 73.625 39.1669 70.4045 39.6654L70.4632 40.0448L70.5219 40.4243C73.7526 39.9243 76.9258 39.3666 80.0416 38.7512L79.9672 38.3744ZM70.4632 40.0448L70.4045 39.6654C67.1836 40.1638 64.0591 40.5855 61.0309 40.9305L61.0744 41.312L61.1179 41.6936C64.1569 41.3474 67.2916 40.9243 70.5219 40.4243L70.4632 40.0448ZM61.0744 41.312L61.4541 41.2551C61.3331 40.4483 61.0538 39.4972 60.6254 38.4068L60.268 38.5472L59.9106 38.6876C60.327 39.7476 60.5852 40.6398 60.6946 41.369L61.0744 41.312ZM60.268 38.5472L60.631 38.4221C60.2443 37.3006 59.8743 36.3647 59.5206 35.6181L59.1736 35.7824L58.8266 35.9468C59.1641 36.6593 59.5237 37.5667 59.905 38.6724L60.268 38.5472ZM59.1736 35.7824L59.2237 36.1632C62.1482 35.7784 65.1109 35.3166 68.1118 34.778L68.044 34.4L67.9761 34.0221C64.9866 34.5587 62.0358 35.0185 59.1235 35.4017L59.1736 35.7824ZM68.044 34.4L68.1165 34.7771C71.1169 34.2001 73.9833 33.5845 76.7158 32.9303L76.6264 32.5568L76.537 32.1834C73.8166 32.8347 70.9615 33.4479 67.9715 34.0229L68.044 34.4ZM76.6264 32.5568L76.7158 32.9303C79.4486 32.276 81.8575 31.6208 83.9417 30.9647L83.8264 30.5984L83.7111 30.2322C81.648 30.8816 79.257 31.5321 76.537 32.1834L76.6264 32.5568ZM59.692 84.5696L60.0725 84.5179L59.2661 78.5851L58.8856 78.6368L58.5051 78.6886L59.3115 84.6214L59.692 84.5696ZM58.8856 78.6368L59.136 78.9279L61.6128 76.7967L61.3624 76.5056L61.1119 76.2146L58.6351 78.3458L58.8856 78.6368ZM61.3624 76.5056L61.4726 76.8735L73.9718 73.1295L73.8616 72.7616L73.7514 72.3938L61.2522 76.1378L61.3624 76.5056ZM73.8616 72.7616L73.4779 72.7776C73.5169 73.7134 73.6142 74.7621 73.769 75.9228L74.1496 75.872L74.5302 75.8213C74.3778 74.678 74.2831 73.6531 74.2453 72.7457L73.8616 72.7616ZM74.1496 75.872L73.769 75.9228C73.9232 77.0797 74.0783 78.0309 74.2346 78.7735L74.6104 78.6944L74.9862 78.6153C74.8353 77.8988 74.6832 76.9684 74.5302 75.8213L74.1496 75.872ZM74.6104 78.6944L74.4846 78.3316C71.6049 79.3299 69.2633 80.1361 67.4594 80.7501L67.5832 81.1136L67.7069 81.4772C69.5127 80.8624 71.8558 80.0558 74.7362 79.0573L74.6104 78.6944ZM67.5832 81.1136L67.4526 80.7525C65.6458 81.406 64.2196 81.9456 63.1759 82.3708L63.3208 82.7264L63.4657 83.0821C64.4956 82.6625 65.9109 82.1268 67.7138 81.4747L67.5832 81.1136ZM63.3208 82.7264L63.1759 82.3708C62.1363 82.7944 61.3384 83.1443 60.7875 83.4198L60.9592 83.7632L61.1309 84.1067C61.6552 83.8445 62.4317 83.5033 63.4657 83.0821L63.3208 82.7264ZM60.9592 83.7632L60.7687 83.4298C60.2245 83.7408 59.7868 84.0185 59.4616 84.2624L59.692 84.5696L59.9224 84.8768C60.2116 84.66 60.6187 84.4001 61.1497 84.0966L60.9592 83.7632ZM59.692 84.5696L60.059 84.4567C59.897 83.9302 59.6377 83.3144 59.2866 82.6123L58.9432 82.784L58.5997 82.9558C58.9399 83.6361 59.1798 84.2107 59.325 84.6826L59.692 84.5696ZM58.9432 82.784L59.2826 82.6044C58.93 81.9384 58.5383 81.2922 58.1076 80.6657L57.7912 80.8832L57.4748 81.1008C57.8889 81.7031 58.2652 82.3241 58.6038 82.9637L58.9432 82.784ZM57.7912 80.8832L58.1168 80.6797C57.727 80.0561 57.3685 79.5562 57.0414 79.1881L56.7544 79.4432L56.4674 79.6984C56.7546 80.0215 57.0873 80.4816 57.4656 81.0868L57.7912 80.8832ZM56.7544 79.4432L56.9815 79.7529C57.6079 79.2935 58.1766 78.6375 58.6937 77.8022L58.3672 77.6L58.0407 77.3979C57.5594 78.1754 57.0529 78.7482 56.5273 79.1336L56.7544 79.4432ZM58.3672 77.6L58.6912 77.8062C59.2782 76.8837 59.5576 75.7313 59.5576 74.3744H59.1736H58.7896C58.7896 75.6288 58.5313 76.6268 58.0432 77.3939L58.3672 77.6ZM59.1736 74.3744H59.5576V35.7824H59.1736H58.7896V74.3744H59.1736ZM59.1736 35.7824V36.1664H65.6824V35.7824V35.3984H59.1736V35.7824ZM65.6824 35.7824H65.2984V78.3488H65.6824H66.0664V35.7824H65.6824ZM65.6824 78.3488C65.4648 78.0324 65.4648 78.0324 65.4648 78.0324C65.4648 78.0324 65.4648 78.0324 65.4648 78.0324C65.4648 78.0324 65.4648 78.0324 65.4648 78.0324C65.4648 78.0324 65.4648 78.0324 65.4648 78.0324C65.4647 78.0325 65.4647 78.0325 65.4646 78.0326C65.4645 78.0326 65.4642 78.0329 65.4639 78.033C65.4617 78.0345 65.464 78.033 65.4612 78.0349C65.4604 78.0354 65.4602 78.0356 65.4592 78.0363C65.4534 78.0403 65.4645 78.0326 65.4586 78.0367C65.4436 78.047 65.473 78.0268 65.458 78.0371C65.4579 78.0372 65.4578 78.0372 65.4577 78.0373C65.4576 78.0374 65.4575 78.0374 65.4574 78.0375C65.4572 78.0377 65.457 78.0378 65.4567 78.038C65.4557 78.0387 65.4521 78.0412 65.4504 78.0423C65.4503 78.0424 65.4501 78.0425 65.45 78.0426C65.4498 78.0427 65.4497 78.0428 65.4495 78.0429C65.44 78.0494 65.4581 78.0371 65.4486 78.0436C65.4479 78.0441 65.4483 78.0438 65.4476 78.0443C65.4407 78.049 65.4536 78.0402 65.4466 78.0449C65.4394 78.0499 65.4497 78.0428 65.4423 78.0479C65.4421 78.048 65.438 78.0509 65.4376 78.0511C65.4293 78.0569 65.441 78.0488 65.4324 78.0547C65.4291 78.057 65.4331 78.0542 65.4297 78.0566C65.4256 78.0594 65.4309 78.0557 65.4268 78.0585C65.421 78.0626 65.4267 78.0586 65.4207 78.0627C65.4153 78.0665 65.4198 78.0634 65.4142 78.0672C65.407 78.0722 65.4146 78.0669 65.4072 78.072C65.3747 78.0944 65.4098 78.0703 65.3748 78.0943C65.3728 78.0957 65.3678 78.0991 65.3656 78.1006C65.3539 78.1087 65.3678 78.0991 65.3559 78.1073C65.3555 78.1076 65.3551 78.1078 65.3547 78.1081C65.3543 78.1084 65.3539 78.1087 65.3535 78.109C65.3474 78.1131 65.357 78.1066 65.3509 78.1107C65.3503 78.1111 65.349 78.112 65.3484 78.1125C65.3479 78.1128 65.3463 78.1139 65.3458 78.1142C65.3429 78.1162 65.3435 78.1158 65.3406 78.1178C65.3403 78.118 65.3355 78.1213 65.3352 78.1215C65.3348 78.1218 65.3343 78.1221 65.3339 78.1224C65.3334 78.1227 65.333 78.1231 65.3325 78.1234C65.3323 78.1235 65.33 78.1251 65.3298 78.1253C65.3293 78.1256 65.3289 78.1259 65.3284 78.1262C65.3279 78.1265 65.3275 78.1268 65.327 78.1272C65.3223 78.1304 65.3289 78.1259 65.3242 78.1291C65.3206 78.1316 65.3165 78.1344 65.3127 78.137C65.2957 78.1487 65.3239 78.1293 65.3068 78.141C65.3063 78.1414 65.3058 78.1417 65.3053 78.1421C65.3048 78.1424 65.3043 78.1427 65.3038 78.1431C65.3027 78.1438 65.3019 78.1444 65.3008 78.1452C65.283 78.1574 65.3064 78.1413 65.2884 78.1537C65.2659 78.1692 65.2855 78.1557 65.2623 78.1716C65.2441 78.1842 65.267 78.1684 65.2486 78.1811C65.247 78.1822 65.2362 78.1896 65.2344 78.1908C65.2132 78.2054 65.2412 78.1862 65.2198 78.2009C65.1928 78.2194 65.2319 78.1926 65.2047 78.2112C65.2014 78.2135 65.1927 78.2195 65.1892 78.2219C65.1868 78.2236 65.1837 78.2257 65.1813 78.2274C65.156 78.2448 65.1986 78.2154 65.1732 78.2329C65.1726 78.2333 65.1719 78.2338 65.1712 78.2343C65.1705 78.2347 65.1699 78.2352 65.1692 78.2357C65.1685 78.2361 65.1678 78.2366 65.1671 78.2371C65.1665 78.2375 65.1658 78.238 65.1651 78.2385C65.1632 78.2398 65.1629 78.24 65.161 78.2413C65.1458 78.2518 65.172 78.2337 65.1568 78.2442C65.1309 78.262 65.1786 78.2292 65.1526 78.247C65.1515 78.2479 65.1496 78.2491 65.1484 78.2499C65.1476 78.2505 65.145 78.2523 65.1442 78.2528C65.1435 78.2533 65.1428 78.2538 65.1421 78.2543C65.1414 78.2548 65.1407 78.2553 65.1399 78.2558C65.1392 78.2563 65.1385 78.2568 65.1378 78.2572C65.1371 78.2577 65.1364 78.2582 65.1357 78.2587C65.1349 78.2592 65.1342 78.2597 65.1335 78.2602C65.1328 78.2607 65.1321 78.2612 65.1313 78.2617C65.1247 78.2662 65.1292 78.2631 65.1226 78.2677C65.1178 78.271 65.1098 78.2765 65.1048 78.2799C65.0765 78.2994 65.0599 78.3108 65.0292 78.3319C65.0209 78.3376 64.9571 78.3815 64.9464 78.3888C64.946 78.3891 64.936 78.396 64.9356 78.3963C64.9189 78.4078 64.9414 78.3923 64.9246 78.4038C64.9126 78.4121 64.9256 78.4031 64.9135 78.4114C64.9126 78.4121 64.9117 78.4127 64.9107 78.4133C64.9098 78.414 64.9089 78.4146 64.908 78.4153C64.8906 78.4272 64.9197 78.4072 64.9023 78.4191C64.8962 78.4234 64.8859 78.4304 64.8796 78.4347C64.8787 78.4354 64.8777 78.4361 64.8767 78.4367C64.8758 78.4374 64.8748 78.438 64.8739 78.4387C64.8729 78.4394 64.8719 78.44 64.871 78.4407C64.87 78.4413 64.869 78.442 64.8681 78.4427C64.8588 78.449 64.8657 78.4443 64.8564 78.4507C64.8461 78.4578 64.7719 78.5088 64.7592 78.5175C64.7376 78.5324 64.7302 78.5375 64.7079 78.5528C64.7069 78.5535 64.7058 78.5543 64.7047 78.555C64.7036 78.5558 64.7025 78.5565 64.7014 78.5573C64.7003 78.558 64.6992 78.5588 64.6981 78.5595C64.697 78.5603 64.6959 78.561 64.6948 78.5618C64.6845 78.5689 64.6919 78.5638 64.6816 78.5709C64.648 78.594 64.6886 78.5661 64.6548 78.5893C64.6325 78.6047 64.6637 78.5832 64.6413 78.5986C64.6402 78.5994 64.639 78.6002 64.6379 78.6009C64.6367 78.6017 64.6356 78.6025 64.6345 78.6033C64.6315 78.6053 64.6306 78.606 64.6276 78.608C64.6093 78.6206 64.6322 78.6049 64.6138 78.6175C64.6106 78.6197 64.6101 78.62 64.6069 78.6222C64.6057 78.623 64.6046 78.6238 64.6034 78.6246C64.6023 78.6254 64.6011 78.6262 64.5999 78.627C64.5767 78.643 64.5952 78.6303 64.5718 78.6464C64.554 78.6586 64.5612 78.6536 64.5432 78.666L64.7608 78.9824L64.9783 79.2989C64.9796 79.298 64.9843 79.2948 64.9855 79.2939C64.9867 79.2931 64.9879 79.2923 64.9891 79.2915C64.9903 79.2906 64.9915 79.2898 64.9927 79.289C64.9967 79.2862 65.0029 79.282 65.0069 79.2792C65.0083 79.2783 65.0197 79.2704 65.021 79.2695C65.0212 79.2694 65.0349 79.26 65.035 79.2599C65.041 79.2558 65.0569 79.2448 65.0627 79.2409C65.0788 79.2298 65.0604 79.2425 65.0764 79.2315C65.0775 79.2307 65.0786 79.2299 65.0798 79.2291C65.0809 79.2284 65.082 79.2276 65.0832 79.2268C65.0843 79.226 65.0854 79.2252 65.0866 79.2245C65.0877 79.2237 65.0888 79.2229 65.0899 79.2221C65.1083 79.2095 65.0985 79.2162 65.1167 79.2037C65.1178 79.203 65.1189 79.2022 65.12 79.2015C65.1211 79.2007 65.1222 79.1999 65.1233 79.1992C65.1251 79.1979 65.1281 79.1959 65.1299 79.1946C65.131 79.1939 65.1321 79.1931 65.1332 79.1924C65.1343 79.1916 65.1354 79.1909 65.1365 79.1901C65.1376 79.1894 65.1387 79.1886 65.1398 79.1879C65.1409 79.1871 65.1419 79.1864 65.143 79.1856C65.1484 79.1819 65.1442 79.1849 65.1495 79.1812C65.1506 79.1804 65.1517 79.1797 65.1528 79.1789C65.1539 79.1782 65.155 79.1774 65.156 79.1767C65.1626 79.1722 65.1559 79.1768 65.1625 79.1723C65.1836 79.1578 65.1478 79.1823 65.1689 79.1679C65.1941 79.1505 65.1693 79.1676 65.1943 79.1504C65.2027 79.1446 65.1986 79.1475 65.2069 79.1417C65.2079 79.141 65.209 79.1403 65.21 79.1396C65.211 79.1389 65.2121 79.1382 65.2131 79.1375C65.2141 79.1368 65.2152 79.136 65.2162 79.1353C65.2172 79.1346 65.2183 79.1339 65.2193 79.1332C65.2435 79.1166 65.2198 79.1329 65.2438 79.1163C65.268 79.0997 65.2439 79.1163 65.2679 79.0998C65.2689 79.0991 65.2699 79.0984 65.2709 79.0977C65.2719 79.0971 65.2729 79.0964 65.2739 79.0957C65.2941 79.0817 65.2595 79.1056 65.2798 79.0916C65.2808 79.091 65.2817 79.0903 65.2827 79.0896C65.2837 79.0889 65.2847 79.0882 65.2857 79.0876C65.3056 79.0739 65.2716 79.0972 65.2915 79.0835C65.3441 79.0474 65.3314 79.0562 65.3815 79.0217C65.4308 78.9878 65.4174 78.997 65.4643 78.9647C65.483 78.9519 65.4654 78.964 65.4839 78.9513C65.512 78.932 65.4751 78.9573 65.503 78.9381C65.5264 78.9221 65.4985 78.9413 65.5217 78.9253C65.5402 78.9126 65.5216 78.9254 65.5399 78.9128C65.6094 78.865 65.6097 78.8648 65.6695 78.8237C65.7655 78.7577 65.7848 78.7444 65.8423 78.7049C65.8458 78.7025 65.8665 78.6883 65.8675 78.6875C65.8708 78.6853 65.8747 78.6826 65.8774 78.6807C65.8804 78.6787 65.8767 78.6812 65.8796 78.6792C65.8837 78.6764 65.8777 78.6806 65.8817 78.6778C65.8835 78.6766 65.8839 78.6763 65.8855 78.6752C65.891 78.6714 65.8933 78.6698 65.8963 78.6677C65.8972 78.6671 65.8972 78.6672 65.8979 78.6667C65.8983 78.6664 65.8988 78.6661 65.899 78.6659C65.8996 78.6655 65.8989 78.666 65.8994 78.6656C65.8998 78.6654 65.8992 78.6657 65.8996 78.6655C65.9024 78.6636 65.8969 78.6674 65.8997 78.6654C65.8997 78.6654 65.8998 78.6654 65.8998 78.6654C65.9001 78.6651 65.8996 78.6655 65.8999 78.6653C65.9004 78.665 65.8994 78.6656 65.8999 78.6653C65.8999 78.6653 65.8999 78.6653 65.8999 78.6653C65.8999 78.6653 65.8999 78.6653 65.6824 78.3488ZM64.7608 78.9824L64.5432 78.666C63.9151 79.0979 63.2132 79.6441 62.4385 80.3027L62.6872 80.5952L62.9359 80.8878C63.6971 80.2408 64.3777 79.7118 64.9783 79.2989L64.7608 78.9824ZM62.6872 80.5952L62.4385 80.3027C61.6581 80.966 60.9539 81.6504 60.3266 82.3561L60.6136 82.6112L60.9006 82.8664C61.5021 82.1897 62.1803 81.5301 62.9359 80.8878L62.6872 80.5952ZM60.6136 82.6112L60.3199 82.3639C59.6826 83.1207 59.308 83.8602 59.308 84.5696H59.692H60.076C60.076 84.1271 60.3158 83.561 60.9073 82.8586L60.6136 82.6112Z" fill="black" fill-opacity="0.08"/>
<path d="M105.6 11.52H21.12C17.9388 11.52 15.36 14.0989 15.36 17.28V23.04C15.36 26.2212 17.9388 28.8 21.12 28.8H105.6C108.781 28.8 111.36 26.2212 111.36 23.04V17.28C111.36 14.0989 108.781 11.52 105.6 11.52Z" fill="url(#paint3_linear_1_39)"/>
</g>
</g>
<defs>
<filter id="filter0_d_1_39" x="-1.43051e-05" y="1.97887e-05" width="126.72" height="126.72" filterUnits="userSpaceOnUse" color-interpolation-filters="sRGB">
<feFlood flood-opacity="0" result="BackgroundImageFix"/>
<feColorMatrix in="SourceAlpha" type="matrix" values="0 0 0 0 0 0 0 0 0 0 0 0 0 0 0 0 0 0 127 0" result="hardAlpha"/>
<feOffset dy="3.84"/>
<feGaussianBlur stdDeviation="7.68"/>
<feColorMatrix type="matrix" values="0 0 0 0 0 0 0 0 0 0 0 0 0 0 0 0 0 0 0.15 0"/>
<feBlend mode="normal" in2="BackgroundImageFix" result="effect1_dropShadow_1_39"/>
<feBlend mode="normal" in="SourceGraphic" in2="effect1_dropShadow_1_39" result="shape"/>
</filter>
<linearGradient id="paint0_linear_1_39" x1="15.36" y1="11.52" x2="111.36" y2="107.52" gradientUnits="userSpaceOnUse">
<stop stop-color="#E23A28"/>
<stop offset="0.5" stop-color="#C91F1F"/>
<stop offset="1" stop-color="#A81717"/>
</linearGradient>
<linearGradient id="paint1_linear_1_39" x1="29.76" y1="25.92" x2="96.96" y2="93.12" gradientUnits="userSpaceOnUse">
<stop stop-color="#8B0000" stop-opacity="0"/>
<stop offset="0.5" stop-color="#8B0000" stop-opacity="0.08"/>
<stop offset="1" stop-color="#8B0000" stop-opacity="0"/>
</linearGradient>
<linearGradient id="paint2_linear_1_39" x1="83.9039" y1="11.52" x2="111.36" y2="38.976" gradientUnits="userSpaceOnUse">
<stop stop-color="#A91D1D" stop-opacity="0.6"/>
<stop offset="1" stop-color="#A91D1D" stop-opacity="0"/>
</linearGradient>
<linearGradient id="paint3_linear_1_39" x1="15.36" y1="11.52" x2="15.36" y2="28.8" gradientUnits="userSpaceOnUse">
<stop stop-color="white" stop-opacity="0.055"/>
<stop offset="1" stop-color="white" stop-opacity="0"/>
</linearGradient>
<clipPath id="clip0_1_39">
<rect width="96" height="96" fill="white" transform="translate(15.36 11.52)"/>
</clipPath>
</defs>
</svg>
