<svg width="43" height="43" viewBox="0 0 43 43" fill="none" xmlns="http://www.w3.org/2000/svg">
<g filter="url(#filter0_d_1_66)">
<g clip-path="url(#clip0_1_66)">
<path d="M35.2 3.84003H7.04C5.97961 3.84003 5.12 4.69964 5.12 5.76003V33.92C5.12 34.9804 5.97961 35.84 7.04 35.84H35.2C36.2604 35.84 37.12 34.9804 37.12 33.92V5.76003C37.12 4.69964 36.2604 3.84003 35.2 3.84003Z" fill="url(#paint0_linear_1_66)"/>
<path opacity="0.72" d="M37.12 3.84003V10.88L30.08 3.84003H37.12Z" fill="#D96B62"/>
<path d="M12.2176 21.6544C12.1899 21.5435 12.1413 21.4048 12.072 21.2384C12.0165 21.072 11.9541 20.8987 11.8848 20.7184C11.8293 20.5243 11.7739 20.3648 11.7184 20.24C11.9541 20.1984 12.1968 20.0597 12.4464 19.824C12.7099 19.5883 13.008 19.2832 13.3408 18.9088C13.5211 18.7147 13.7776 18.4027 14.1104 17.9728C14.4571 17.5429 14.8453 17.0368 15.2752 16.4544C15.7051 15.8581 16.1349 15.2203 16.5648 14.5408C17.0085 13.8613 17.4176 13.168 17.792 12.4608L19.0608 13.2512C18.2149 14.6656 17.2859 16.0384 16.2736 17.3696C15.2752 18.6869 14.2699 19.8448 13.2576 20.8432V20.8848C13.2576 20.8848 13.2021 20.9125 13.0912 20.968C12.9941 21.0096 12.8763 21.072 12.7376 21.1552C12.5989 21.2245 12.4741 21.3077 12.3632 21.4048C12.2661 21.488 12.2176 21.5712 12.2176 21.6544ZM12.1968 21.6544L12.1344 20.3856L12.904 19.8656L19.0816 18.7216C19.0677 18.9296 19.0608 19.1584 19.0608 19.408C19.0608 19.6576 19.0677 19.8656 19.0816 20.032C17.6672 20.3232 16.5232 20.5589 15.6496 20.7392C14.7899 20.9195 14.1312 21.0651 13.6736 21.176C13.216 21.2869 12.8832 21.3771 12.6752 21.4464C12.4672 21.5157 12.3077 21.5851 12.1968 21.6544ZM12.0512 16.6416C12.0373 16.5307 12.0027 16.392 11.9472 16.2256C11.8917 16.0453 11.8293 15.8581 11.76 15.664C11.6907 15.4699 11.6213 15.3104 11.552 15.1856C11.7461 15.144 11.9403 15.0053 12.1344 14.7696C12.3285 14.5339 12.5435 14.2427 12.7792 13.896C12.904 13.7157 13.0843 13.4245 13.32 13.0224C13.5557 12.6203 13.8123 12.1488 14.0896 11.608C14.3808 11.0533 14.672 10.464 14.9632 9.84C15.2544 9.20214 15.5109 8.5712 15.7328 7.9472L17.168 8.6128C16.7936 9.47254 16.3776 10.3392 15.92 11.2128C15.4624 12.0725 14.984 12.8976 14.4848 13.688C13.9995 14.4645 13.5072 15.1648 13.008 15.7888V15.8304C13.008 15.8304 12.9595 15.8581 12.8624 15.9136C12.7653 15.9691 12.6544 16.0384 12.5296 16.1216C12.4048 16.2048 12.2939 16.2949 12.1968 16.392C12.0997 16.4752 12.0512 16.5584 12.0512 16.6416ZM12.0512 16.6416L12.0304 15.4976L12.7584 15.0192L16.7312 14.6032C16.6896 14.8112 16.6619 15.0331 16.648 15.2688C16.6341 15.5045 16.6203 15.7056 16.6064 15.872C15.7051 15.9829 14.9701 16.08 14.4016 16.1632C13.8469 16.2464 13.4101 16.3157 13.0912 16.3712C12.7861 16.4267 12.5573 16.4752 12.4048 16.5168C12.2661 16.5584 12.1483 16.6 12.0512 16.6416ZM11.656 24.3376C12.28 24.2128 12.9803 24.0672 13.7568 23.9008C14.5333 23.7205 15.3584 23.5333 16.232 23.3392C17.1195 23.1451 18.0139 22.944 18.9152 22.736L19.0608 24.088C17.8128 24.3931 16.5648 24.7051 15.3168 25.024C14.0688 25.3291 12.9456 25.6064 11.9472 25.856L11.656 24.3376ZM24.9056 10.0272H26.4448C26.4309 11.7883 26.4587 13.4453 26.528 14.9984C26.5973 16.5515 26.7013 17.9659 26.84 19.2416C26.9787 20.5173 27.1451 21.6128 27.3392 22.528C27.5472 23.4432 27.7829 24.1504 28.0464 24.6496C28.3237 25.1488 28.6149 25.3984 28.92 25.3984C29.1141 25.3984 29.2528 25.1349 29.336 24.608C29.4331 24.0672 29.5024 23.2283 29.544 22.0912C29.7104 22.2437 29.9115 22.3893 30.1472 22.528C30.3968 22.6667 30.6117 22.7776 30.792 22.8608C30.7227 23.9008 30.6117 24.7189 30.4592 25.3152C30.3205 25.8976 30.1125 26.3067 29.8352 26.5424C29.5717 26.792 29.2181 26.9168 28.7744 26.9168C28.1781 26.9168 27.6651 26.6256 27.2352 26.0432C26.8053 25.4747 26.4379 24.6704 26.1328 23.6304C25.8416 22.5904 25.6059 21.3701 25.4256 19.9696C25.2592 18.5552 25.1344 17.0091 25.0512 15.3312C24.968 13.6395 24.9195 11.8715 24.9056 10.0272ZM20.8704 16.0384H30.2304V17.4944H20.8704V16.0384ZM28.7952 8.1136L29.9184 9.3824C29.0587 9.632 28.088 9.86774 27.0064 10.0896C25.9387 10.3115 24.8363 10.5125 23.6992 10.6928C22.5621 10.8592 21.4597 11.0048 20.392 11.1296C20.3643 10.9493 20.2949 10.7344 20.184 10.4848C20.0869 10.2352 19.9968 10.0341 19.9136 9.8816C20.9675 9.72907 22.0421 9.56267 23.1376 9.3824C24.2331 9.20214 25.2731 9.008 26.2576 8.8C27.2421 8.57814 28.088 8.34934 28.7952 8.1136ZM19.8512 27.1456L19.7056 25.752L20.3712 25.1696L24.968 23.7552C24.9819 23.9632 25.0027 24.1989 25.0304 24.4624C25.072 24.7259 25.1136 24.9408 25.1552 25.1072C24.0736 25.4677 23.2069 25.7659 22.5552 26.0016C21.9035 26.2373 21.3973 26.4245 21.0368 26.5632C20.6901 26.7157 20.4267 26.8336 20.2464 26.9168C20.08 27 19.9483 27.0763 19.8512 27.1456ZM19.8512 27.1456C19.8096 27.0208 19.7472 26.8821 19.664 26.7296C19.5947 26.5771 19.5115 26.4245 19.4144 26.272C19.3312 26.1195 19.248 25.9947 19.1648 25.8976C19.3173 25.8005 19.4768 25.6411 19.6432 25.4192C19.8235 25.1973 19.9136 24.8715 19.9136 24.4416V9.8816H21.3904V25.648C21.3904 25.648 21.3141 25.6965 21.1616 25.7936C21.0091 25.9045 20.8288 26.0363 20.6208 26.1888C20.4267 26.3413 20.2464 26.5008 20.08 26.6672C19.9275 26.8475 19.8512 27.0069 19.8512 27.1456Z" fill="white"/>
</g>
</g>
<defs>
<filter id="filter0_d_1_66" x="-4.76837e-06" y="2.69413e-05" width="42.24" height="42.24" filterUnits="userSpaceOnUse" color-interpolation-filters="sRGB">
<feFlood flood-opacity="0" result="BackgroundImageFix"/>
<feColorMatrix in="SourceAlpha" type="matrix" values="0 0 0 0 0 0 0 0 0 0 0 0 0 0 0 0 0 0 127 0" result="hardAlpha"/>
<feOffset dy="1.28"/>
<feGaussianBlur stdDeviation="2.56"/>
<feColorMatrix type="matrix" values="0 0 0 0 0 0 0 0 0 0 0 0 0 0 0 0 0 0 0.08 0"/>
<feBlend mode="normal" in2="BackgroundImageFix" result="effect1_dropShadow_1_66"/>
<feBlend mode="normal" in="SourceGraphic" in2="effect1_dropShadow_1_66" result="shape"/>
</filter>
<linearGradient id="paint0_linear_1_66" x1="5.12" y1="3.84003" x2="37.12" y2="35.84" gradientUnits="userSpaceOnUse">
<stop stop-color="#E23A28"/>
<stop offset="0.5" stop-color="#C91F1F"/>
<stop offset="1" stop-color="#A81717"/>
</linearGradient>
<clipPath id="clip0_1_66">
<rect width="32" height="32" fill="white" transform="translate(5.12 3.84003)"/>
</clipPath>
</defs>
</svg>
